<?xml version="1.0" encoding="utf-8" standalone="no"?>
<!DOCTYPE svg PUBLIC "-//W3C//DTD SVG 1.1//EN"
  "http://www.w3.org/Graphics/SVG/1.1/DTD/svg11.dtd">
<!-- Created with matplotlib (https://matplotlib.org/) -->
<svg height="666.72pt" version="1.1" viewBox="0 0 684 666.72" width="684pt" xmlns="http://www.w3.org/2000/svg" xmlns:xlink="http://www.w3.org/1999/xlink">
 <metadata>
  <rdf:RDF xmlns:cc="http://creativecommons.org/ns#" xmlns:dc="http://purl.org/dc/elements/1.1/" xmlns:rdf="http://www.w3.org/1999/02/22-rdf-syntax-ns#">
   <cc:Work>
    <dc:type rdf:resource="http://purl.org/dc/dcmitype/StillImage"/>
    <dc:date>2021-04-11T22:01:37.909323</dc:date>
    <dc:format>image/svg+xml</dc:format>
    <dc:creator>
     <cc:Agent>
      <dc:title>Matplotlib v3.3.3, https://matplotlib.org/</dc:title>
     </cc:Agent>
    </dc:creator>
   </cc:Work>
  </rdf:RDF>
 </metadata>
 <defs>
  <style type="text/css">*{stroke-linecap:butt;stroke-linejoin:round;}</style>
 </defs>
 <g id="figure_1">
  <g id="patch_1">
   <path d="M 0 666.72 
L 684 666.72 
L 684 0 
L 0 0 
z
" style="fill:none;"/>
  </g>
  <g id="axes_1">
   <g id="PathCollection_1">
    <defs>
     <path d="M 0 3.535534 
C 0.937635 3.535534 1.836992 3.163008 2.5 2.5 
C 3.163008 1.836992 3.535534 0.937635 3.535534 0 
C 3.535534 -0.937635 3.163008 -1.836992 2.5 -2.5 
C 1.836992 -3.163008 0.937635 -3.535534 0 -3.535534 
C -0.937635 -3.535534 -1.836992 -3.163008 -2.5 -2.5 
C -3.163008 -1.836992 -3.535534 -0.937635 -3.535534 0 
C -3.535534 0.937635 -3.163008 1.836992 -2.5 2.5 
C -1.836992 3.163008 -0.937635 3.535534 0 3.535534 
z
" id="m51155b883b" style="stroke:#000000;"/>
    </defs>
    <g clip-path="url(#pe3d0d78e6f)">
     <use style="stroke:#000000;" x="322.232727" xlink:href="#m51155b883b" y="36.850909"/>
    </g>
   </g>
   <g id="PathCollection_2">
    <g clip-path="url(#pe3d0d78e6f)">
     <use style="stroke:#000000;" x="104.792727" xlink:href="#m51155b883b" y="96.152727"/>
    </g>
   </g>
   <g id="PathCollection_3">
    <g clip-path="url(#pe3d0d78e6f)">
     <use style="stroke:#000000;" x="85.025455" xlink:href="#m51155b883b" y="155.454545"/>
    </g>
   </g>
   <g id="PathCollection_4">
    <g clip-path="url(#pe3d0d78e6f)">
     <use style="stroke:#000000;" x="75.141818" xlink:href="#m51155b883b" y="214.756364"/>
    </g>
   </g>
   <g id="PathCollection_5">
    <g clip-path="url(#pe3d0d78e6f)">
     <use style="stroke:#000000;" x="94.909091" xlink:href="#m51155b883b" y="214.756364"/>
    </g>
   </g>
   <g id="PathCollection_6">
    <g clip-path="url(#pe3d0d78e6f)">
     <use style="stroke:#000000;" x="164.094545" xlink:href="#m51155b883b" y="155.454545"/>
    </g>
   </g>
   <g id="PathCollection_7">
    <g clip-path="url(#pe3d0d78e6f)">
     <use style="stroke:#000000;" x="144.327273" xlink:href="#m51155b883b" y="214.756364"/>
    </g>
   </g>
   <g id="PathCollection_8">
    <g clip-path="url(#pe3d0d78e6f)">
     <use style="stroke:#000000;" x="124.56" xlink:href="#m51155b883b" y="274.058182"/>
    </g>
   </g>
   <g id="PathCollection_9">
    <g clip-path="url(#pe3d0d78e6f)">
     <use style="stroke:#000000;" x="114.676364" xlink:href="#m51155b883b" y="333.36"/>
    </g>
   </g>
   <g id="PathCollection_10">
    <g clip-path="url(#pe3d0d78e6f)">
     <use style="stroke:#000000;" x="134.443636" xlink:href="#m51155b883b" y="333.36"/>
    </g>
   </g>
   <g id="PathCollection_11">
    <g clip-path="url(#pe3d0d78e6f)">
     <use style="stroke:#000000;" x="154.210909" xlink:href="#m51155b883b" y="274.058182"/>
    </g>
   </g>
   <g id="PathCollection_12">
    <g clip-path="url(#pe3d0d78e6f)">
     <use style="stroke:#000000;" x="302.465455" xlink:href="#m51155b883b" y="214.756364"/>
    </g>
   </g>
   <g id="PathCollection_13">
    <g clip-path="url(#pe3d0d78e6f)">
     <use style="stroke:#000000;" x="282.698182" xlink:href="#m51155b883b" y="274.058182"/>
    </g>
   </g>
   <g id="PathCollection_14">
    <g clip-path="url(#pe3d0d78e6f)">
     <use style="stroke:#000000;" x="262.930909" xlink:href="#m51155b883b" y="333.36"/>
    </g>
   </g>
   <g id="PathCollection_15">
    <g clip-path="url(#pe3d0d78e6f)">
     <use style="stroke:#000000;" x="183.861818" xlink:href="#m51155b883b" y="392.661818"/>
    </g>
   </g>
   <g id="PathCollection_16">
    <g clip-path="url(#pe3d0d78e6f)">
     <use style="stroke:#000000;" x="173.978182" xlink:href="#m51155b883b" y="451.963636"/>
    </g>
   </g>
   <g id="PathCollection_17">
    <g clip-path="url(#pe3d0d78e6f)">
     <use style="stroke:#000000;" x="203.629091" xlink:href="#m51155b883b" y="451.963636"/>
    </g>
   </g>
   <g id="PathCollection_18">
    <g clip-path="url(#pe3d0d78e6f)">
     <use style="stroke:#000000;" x="193.745455" xlink:href="#m51155b883b" y="511.265455"/>
    </g>
   </g>
   <g id="PathCollection_19">
    <g clip-path="url(#pe3d0d78e6f)">
     <use style="stroke:#000000;" x="223.396364" xlink:href="#m51155b883b" y="511.265455"/>
    </g>
   </g>
   <g id="PathCollection_20">
    <g clip-path="url(#pe3d0d78e6f)">
     <use style="stroke:#000000;" x="213.512727" xlink:href="#m51155b883b" y="570.567273"/>
    </g>
   </g>
   <g id="PathCollection_21">
    <g clip-path="url(#pe3d0d78e6f)">
     <use style="stroke:#000000;" x="243.163636" xlink:href="#m51155b883b" y="570.567273"/>
    </g>
   </g>
   <g id="PathCollection_22">
    <g clip-path="url(#pe3d0d78e6f)">
     <use style="stroke:#000000;" x="233.28" xlink:href="#m51155b883b" y="629.869091"/>
    </g>
   </g>
   <g id="PathCollection_23">
    <g clip-path="url(#pe3d0d78e6f)">
     <use style="stroke:#000000;" x="253.047273" xlink:href="#m51155b883b" y="629.869091"/>
    </g>
   </g>
   <g id="PathCollection_24">
    <g clip-path="url(#pe3d0d78e6f)">
     <use style="stroke:#000000;" x="272.814545" xlink:href="#m51155b883b" y="392.661818"/>
    </g>
   </g>
   <g id="PathCollection_25">
    <g clip-path="url(#pe3d0d78e6f)">
     <use style="stroke:#000000;" x="292.581818" xlink:href="#m51155b883b" y="333.36"/>
    </g>
   </g>
   <g id="PathCollection_26">
    <g clip-path="url(#pe3d0d78e6f)">
     <use style="stroke:#000000;" x="312.349091" xlink:href="#m51155b883b" y="274.058182"/>
    </g>
   </g>
   <g id="PathCollection_27">
    <g clip-path="url(#pe3d0d78e6f)">
     <use style="stroke:#000000;" x="421.069091" xlink:href="#m51155b883b" y="96.152727"/>
    </g>
   </g>
   <g id="PathCollection_28">
    <g clip-path="url(#pe3d0d78e6f)">
     <use style="stroke:#000000;" x="381.534545" xlink:href="#m51155b883b" y="155.454545"/>
    </g>
   </g>
   <g id="PathCollection_29">
    <g clip-path="url(#pe3d0d78e6f)">
     <use style="stroke:#000000;" x="342" xlink:href="#m51155b883b" y="214.756364"/>
    </g>
   </g>
   <g id="PathCollection_30">
    <g clip-path="url(#pe3d0d78e6f)">
     <use style="stroke:#000000;" x="332.116364" xlink:href="#m51155b883b" y="274.058182"/>
    </g>
   </g>
   <g id="PathCollection_31">
    <g clip-path="url(#pe3d0d78e6f)">
     <use style="stroke:#000000;" x="361.767273" xlink:href="#m51155b883b" y="274.058182"/>
    </g>
   </g>
   <g id="PathCollection_32">
    <g clip-path="url(#pe3d0d78e6f)">
     <use style="stroke:#000000;" x="351.883636" xlink:href="#m51155b883b" y="333.36"/>
    </g>
   </g>
   <g id="PathCollection_33">
    <g clip-path="url(#pe3d0d78e6f)">
     <use style="stroke:#000000;" x="371.650909" xlink:href="#m51155b883b" y="333.36"/>
    </g>
   </g>
   <g id="PathCollection_34">
    <g clip-path="url(#pe3d0d78e6f)">
     <use style="stroke:#000000;" x="401.301818" xlink:href="#m51155b883b" y="214.756364"/>
    </g>
   </g>
   <g id="PathCollection_35">
    <g clip-path="url(#pe3d0d78e6f)">
     <use style="stroke:#000000;" x="391.418182" xlink:href="#m51155b883b" y="274.058182"/>
    </g>
   </g>
   <g id="PathCollection_36">
    <g clip-path="url(#pe3d0d78e6f)">
     <use style="stroke:#000000;" x="411.185455" xlink:href="#m51155b883b" y="274.058182"/>
    </g>
   </g>
   <g id="PathCollection_37">
    <g clip-path="url(#pe3d0d78e6f)">
     <use style="stroke:#000000;" x="500.138182" xlink:href="#m51155b883b" y="155.454545"/>
    </g>
   </g>
   <g id="PathCollection_38">
    <g clip-path="url(#pe3d0d78e6f)">
     <use style="stroke:#000000;" x="440.836364" xlink:href="#m51155b883b" y="214.756364"/>
    </g>
   </g>
   <g id="PathCollection_39">
    <g clip-path="url(#pe3d0d78e6f)">
     <use style="stroke:#000000;" x="430.952727" xlink:href="#m51155b883b" y="274.058182"/>
    </g>
   </g>
   <g id="PathCollection_40">
    <g clip-path="url(#pe3d0d78e6f)">
     <use style="stroke:#000000;" x="480.370909" xlink:href="#m51155b883b" y="274.058182"/>
    </g>
   </g>
   <g id="PathCollection_41">
    <g clip-path="url(#pe3d0d78e6f)">
     <use style="stroke:#000000;" x="460.603636" xlink:href="#m51155b883b" y="333.36"/>
    </g>
   </g>
   <g id="PathCollection_42">
    <g clip-path="url(#pe3d0d78e6f)">
     <use style="stroke:#000000;" x="450.72" xlink:href="#m51155b883b" y="392.661818"/>
    </g>
   </g>
   <g id="PathCollection_43">
    <g clip-path="url(#pe3d0d78e6f)">
     <use style="stroke:#000000;" x="470.487273" xlink:href="#m51155b883b" y="392.661818"/>
    </g>
   </g>
   <g id="PathCollection_44">
    <g clip-path="url(#pe3d0d78e6f)">
     <use style="stroke:#000000;" x="490.254545" xlink:href="#m51155b883b" y="333.36"/>
    </g>
   </g>
   <g id="PathCollection_45">
    <g clip-path="url(#pe3d0d78e6f)">
     <use style="stroke:#000000;" x="519.905455" xlink:href="#m51155b883b" y="214.756364"/>
    </g>
   </g>
   <g id="PathCollection_46">
    <g clip-path="url(#pe3d0d78e6f)">
     <use style="stroke:#000000;" x="510.021818" xlink:href="#m51155b883b" y="274.058182"/>
    </g>
   </g>
   <g id="PathCollection_47">
    <g clip-path="url(#pe3d0d78e6f)">
     <use style="stroke:#000000;" x="559.44" xlink:href="#m51155b883b" y="274.058182"/>
    </g>
   </g>
   <g id="PathCollection_48">
    <g clip-path="url(#pe3d0d78e6f)">
     <use style="stroke:#000000;" x="539.672727" xlink:href="#m51155b883b" y="333.36"/>
    </g>
   </g>
   <g id="PathCollection_49">
    <g clip-path="url(#pe3d0d78e6f)">
     <use style="stroke:#000000;" x="529.789091" xlink:href="#m51155b883b" y="392.661818"/>
    </g>
   </g>
   <g id="PathCollection_50">
    <g clip-path="url(#pe3d0d78e6f)">
     <use style="stroke:#000000;" x="549.556364" xlink:href="#m51155b883b" y="392.661818"/>
    </g>
   </g>
   <g id="PathCollection_51">
    <g clip-path="url(#pe3d0d78e6f)">
     <use style="stroke:#000000;" x="579.207273" xlink:href="#m51155b883b" y="333.36"/>
    </g>
   </g>
   <g id="PathCollection_52">
    <g clip-path="url(#pe3d0d78e6f)">
     <use style="stroke:#000000;" x="569.323636" xlink:href="#m51155b883b" y="392.661818"/>
    </g>
   </g>
   <g id="PathCollection_53">
    <g clip-path="url(#pe3d0d78e6f)">
     <use style="stroke:#000000;" x="598.974545" xlink:href="#m51155b883b" y="392.661818"/>
    </g>
   </g>
   <g id="PathCollection_54">
    <g clip-path="url(#pe3d0d78e6f)">
     <use style="stroke:#000000;" x="589.090909" xlink:href="#m51155b883b" y="451.963636"/>
    </g>
   </g>
   <g id="PathCollection_55">
    <g clip-path="url(#pe3d0d78e6f)">
     <use style="stroke:#000000;" x="608.858182" xlink:href="#m51155b883b" y="451.963636"/>
    </g>
   </g>
   <g id="line2d_1">
    <path clip-path="url(#pe3d0d78e6f)" d="M 322.232727 36.850909 
L 104.792727 96.152727 
" style="fill:none;stroke:#1f77b4;stroke-linecap:square;stroke-width:1.5;"/>
   </g>
   <g id="line2d_2">
    <path clip-path="url(#pe3d0d78e6f)" d="M 104.792727 96.152727 
L 85.025455 155.454545 
" style="fill:none;stroke:#ff7f0e;stroke-linecap:square;stroke-width:1.5;"/>
   </g>
   <g id="line2d_3">
    <path clip-path="url(#pe3d0d78e6f)" d="M 85.025455 155.454545 
L 75.141818 214.756364 
" style="fill:none;stroke:#2ca02c;stroke-linecap:square;stroke-width:1.5;"/>
   </g>
   <g id="line2d_4">
    <path clip-path="url(#pe3d0d78e6f)" d="M 85.025455 155.454545 
L 94.909091 214.756364 
" style="fill:none;stroke:#d62728;stroke-linecap:square;stroke-width:1.5;"/>
   </g>
   <g id="line2d_5">
    <path clip-path="url(#pe3d0d78e6f)" d="M 104.792727 96.152727 
L 164.094545 155.454545 
" style="fill:none;stroke:#9467bd;stroke-linecap:square;stroke-width:1.5;"/>
   </g>
   <g id="line2d_6">
    <path clip-path="url(#pe3d0d78e6f)" d="M 164.094545 155.454545 
L 144.327273 214.756364 
" style="fill:none;stroke:#8c564b;stroke-linecap:square;stroke-width:1.5;"/>
   </g>
   <g id="line2d_7">
    <path clip-path="url(#pe3d0d78e6f)" d="M 144.327273 214.756364 
L 124.56 274.058182 
" style="fill:none;stroke:#e377c2;stroke-linecap:square;stroke-width:1.5;"/>
   </g>
   <g id="line2d_8">
    <path clip-path="url(#pe3d0d78e6f)" d="M 124.56 274.058182 
L 114.676364 333.36 
" style="fill:none;stroke:#7f7f7f;stroke-linecap:square;stroke-width:1.5;"/>
   </g>
   <g id="line2d_9">
    <path clip-path="url(#pe3d0d78e6f)" d="M 124.56 274.058182 
L 134.443636 333.36 
" style="fill:none;stroke:#bcbd22;stroke-linecap:square;stroke-width:1.5;"/>
   </g>
   <g id="line2d_10">
    <path clip-path="url(#pe3d0d78e6f)" d="M 144.327273 214.756364 
L 154.210909 274.058182 
" style="fill:none;stroke:#17becf;stroke-linecap:square;stroke-width:1.5;"/>
   </g>
   <g id="line2d_11">
    <path clip-path="url(#pe3d0d78e6f)" d="M 164.094545 155.454545 
L 302.465455 214.756364 
" style="fill:none;stroke:#1f77b4;stroke-linecap:square;stroke-width:1.5;"/>
   </g>
   <g id="line2d_12">
    <path clip-path="url(#pe3d0d78e6f)" d="M 302.465455 214.756364 
L 282.698182 274.058182 
" style="fill:none;stroke:#ff7f0e;stroke-linecap:square;stroke-width:1.5;"/>
   </g>
   <g id="line2d_13">
    <path clip-path="url(#pe3d0d78e6f)" d="M 282.698182 274.058182 
L 262.930909 333.36 
" style="fill:none;stroke:#2ca02c;stroke-linecap:square;stroke-width:1.5;"/>
   </g>
   <g id="line2d_14">
    <path clip-path="url(#pe3d0d78e6f)" d="M 262.930909 333.36 
L 183.861818 392.661818 
" style="fill:none;stroke:#d62728;stroke-linecap:square;stroke-width:1.5;"/>
   </g>
   <g id="line2d_15">
    <path clip-path="url(#pe3d0d78e6f)" d="M 183.861818 392.661818 
L 173.978182 451.963636 
" style="fill:none;stroke:#9467bd;stroke-linecap:square;stroke-width:1.5;"/>
   </g>
   <g id="line2d_16">
    <path clip-path="url(#pe3d0d78e6f)" d="M 183.861818 392.661818 
L 203.629091 451.963636 
" style="fill:none;stroke:#8c564b;stroke-linecap:square;stroke-width:1.5;"/>
   </g>
   <g id="line2d_17">
    <path clip-path="url(#pe3d0d78e6f)" d="M 203.629091 451.963636 
L 193.745455 511.265455 
" style="fill:none;stroke:#e377c2;stroke-linecap:square;stroke-width:1.5;"/>
   </g>
   <g id="line2d_18">
    <path clip-path="url(#pe3d0d78e6f)" d="M 203.629091 451.963636 
L 223.396364 511.265455 
" style="fill:none;stroke:#7f7f7f;stroke-linecap:square;stroke-width:1.5;"/>
   </g>
   <g id="line2d_19">
    <path clip-path="url(#pe3d0d78e6f)" d="M 223.396364 511.265455 
L 213.512727 570.567273 
" style="fill:none;stroke:#bcbd22;stroke-linecap:square;stroke-width:1.5;"/>
   </g>
   <g id="line2d_20">
    <path clip-path="url(#pe3d0d78e6f)" d="M 223.396364 511.265455 
L 243.163636 570.567273 
" style="fill:none;stroke:#17becf;stroke-linecap:square;stroke-width:1.5;"/>
   </g>
   <g id="line2d_21">
    <path clip-path="url(#pe3d0d78e6f)" d="M 243.163636 570.567273 
L 233.28 629.869091 
" style="fill:none;stroke:#1f77b4;stroke-linecap:square;stroke-width:1.5;"/>
   </g>
   <g id="line2d_22">
    <path clip-path="url(#pe3d0d78e6f)" d="M 243.163636 570.567273 
L 253.047273 629.869091 
" style="fill:none;stroke:#ff7f0e;stroke-linecap:square;stroke-width:1.5;"/>
   </g>
   <g id="line2d_23">
    <path clip-path="url(#pe3d0d78e6f)" d="M 262.930909 333.36 
L 272.814545 392.661818 
" style="fill:none;stroke:#2ca02c;stroke-linecap:square;stroke-width:1.5;"/>
   </g>
   <g id="line2d_24">
    <path clip-path="url(#pe3d0d78e6f)" d="M 282.698182 274.058182 
L 292.581818 333.36 
" style="fill:none;stroke:#d62728;stroke-linecap:square;stroke-width:1.5;"/>
   </g>
   <g id="line2d_25">
    <path clip-path="url(#pe3d0d78e6f)" d="M 302.465455 214.756364 
L 312.349091 274.058182 
" style="fill:none;stroke:#9467bd;stroke-linecap:square;stroke-width:1.5;"/>
   </g>
   <g id="line2d_26">
    <path clip-path="url(#pe3d0d78e6f)" d="M 322.232727 36.850909 
L 421.069091 96.152727 
" style="fill:none;stroke:#8c564b;stroke-linecap:square;stroke-width:1.5;"/>
   </g>
   <g id="line2d_27">
    <path clip-path="url(#pe3d0d78e6f)" d="M 421.069091 96.152727 
L 381.534545 155.454545 
" style="fill:none;stroke:#e377c2;stroke-linecap:square;stroke-width:1.5;"/>
   </g>
   <g id="line2d_28">
    <path clip-path="url(#pe3d0d78e6f)" d="M 381.534545 155.454545 
L 342 214.756364 
" style="fill:none;stroke:#7f7f7f;stroke-linecap:square;stroke-width:1.5;"/>
   </g>
   <g id="line2d_29">
    <path clip-path="url(#pe3d0d78e6f)" d="M 342 214.756364 
L 332.116364 274.058182 
" style="fill:none;stroke:#bcbd22;stroke-linecap:square;stroke-width:1.5;"/>
   </g>
   <g id="line2d_30">
    <path clip-path="url(#pe3d0d78e6f)" d="M 342 214.756364 
L 361.767273 274.058182 
" style="fill:none;stroke:#17becf;stroke-linecap:square;stroke-width:1.5;"/>
   </g>
   <g id="line2d_31">
    <path clip-path="url(#pe3d0d78e6f)" d="M 361.767273 274.058182 
L 351.883636 333.36 
" style="fill:none;stroke:#1f77b4;stroke-linecap:square;stroke-width:1.5;"/>
   </g>
   <g id="line2d_32">
    <path clip-path="url(#pe3d0d78e6f)" d="M 361.767273 274.058182 
L 371.650909 333.36 
" style="fill:none;stroke:#ff7f0e;stroke-linecap:square;stroke-width:1.5;"/>
   </g>
   <g id="line2d_33">
    <path clip-path="url(#pe3d0d78e6f)" d="M 381.534545 155.454545 
L 401.301818 214.756364 
" style="fill:none;stroke:#2ca02c;stroke-linecap:square;stroke-width:1.5;"/>
   </g>
   <g id="line2d_34">
    <path clip-path="url(#pe3d0d78e6f)" d="M 401.301818 214.756364 
L 391.418182 274.058182 
" style="fill:none;stroke:#d62728;stroke-linecap:square;stroke-width:1.5;"/>
   </g>
   <g id="line2d_35">
    <path clip-path="url(#pe3d0d78e6f)" d="M 401.301818 214.756364 
L 411.185455 274.058182 
" style="fill:none;stroke:#9467bd;stroke-linecap:square;stroke-width:1.5;"/>
   </g>
   <g id="line2d_36">
    <path clip-path="url(#pe3d0d78e6f)" d="M 421.069091 96.152727 
L 500.138182 155.454545 
" style="fill:none;stroke:#8c564b;stroke-linecap:square;stroke-width:1.5;"/>
   </g>
   <g id="line2d_37">
    <path clip-path="url(#pe3d0d78e6f)" d="M 500.138182 155.454545 
L 440.836364 214.756364 
" style="fill:none;stroke:#e377c2;stroke-linecap:square;stroke-width:1.5;"/>
   </g>
   <g id="line2d_38">
    <path clip-path="url(#pe3d0d78e6f)" d="M 440.836364 214.756364 
L 430.952727 274.058182 
" style="fill:none;stroke:#7f7f7f;stroke-linecap:square;stroke-width:1.5;"/>
   </g>
   <g id="line2d_39">
    <path clip-path="url(#pe3d0d78e6f)" d="M 440.836364 214.756364 
L 480.370909 274.058182 
" style="fill:none;stroke:#bcbd22;stroke-linecap:square;stroke-width:1.5;"/>
   </g>
   <g id="line2d_40">
    <path clip-path="url(#pe3d0d78e6f)" d="M 480.370909 274.058182 
L 460.603636 333.36 
" style="fill:none;stroke:#17becf;stroke-linecap:square;stroke-width:1.5;"/>
   </g>
   <g id="line2d_41">
    <path clip-path="url(#pe3d0d78e6f)" d="M 460.603636 333.36 
L 450.72 392.661818 
" style="fill:none;stroke:#1f77b4;stroke-linecap:square;stroke-width:1.5;"/>
   </g>
   <g id="line2d_42">
    <path clip-path="url(#pe3d0d78e6f)" d="M 460.603636 333.36 
L 470.487273 392.661818 
" style="fill:none;stroke:#ff7f0e;stroke-linecap:square;stroke-width:1.5;"/>
   </g>
   <g id="line2d_43">
    <path clip-path="url(#pe3d0d78e6f)" d="M 480.370909 274.058182 
L 490.254545 333.36 
" style="fill:none;stroke:#2ca02c;stroke-linecap:square;stroke-width:1.5;"/>
   </g>
   <g id="line2d_44">
    <path clip-path="url(#pe3d0d78e6f)" d="M 500.138182 155.454545 
L 519.905455 214.756364 
" style="fill:none;stroke:#d62728;stroke-linecap:square;stroke-width:1.5;"/>
   </g>
   <g id="line2d_45">
    <path clip-path="url(#pe3d0d78e6f)" d="M 519.905455 214.756364 
L 510.021818 274.058182 
" style="fill:none;stroke:#9467bd;stroke-linecap:square;stroke-width:1.5;"/>
   </g>
   <g id="line2d_46">
    <path clip-path="url(#pe3d0d78e6f)" d="M 519.905455 214.756364 
L 559.44 274.058182 
" style="fill:none;stroke:#8c564b;stroke-linecap:square;stroke-width:1.5;"/>
   </g>
   <g id="line2d_47">
    <path clip-path="url(#pe3d0d78e6f)" d="M 559.44 274.058182 
L 539.672727 333.36 
" style="fill:none;stroke:#e377c2;stroke-linecap:square;stroke-width:1.5;"/>
   </g>
   <g id="line2d_48">
    <path clip-path="url(#pe3d0d78e6f)" d="M 539.672727 333.36 
L 529.789091 392.661818 
" style="fill:none;stroke:#7f7f7f;stroke-linecap:square;stroke-width:1.5;"/>
   </g>
   <g id="line2d_49">
    <path clip-path="url(#pe3d0d78e6f)" d="M 539.672727 333.36 
L 549.556364 392.661818 
" style="fill:none;stroke:#bcbd22;stroke-linecap:square;stroke-width:1.5;"/>
   </g>
   <g id="line2d_50">
    <path clip-path="url(#pe3d0d78e6f)" d="M 559.44 274.058182 
L 579.207273 333.36 
" style="fill:none;stroke:#17becf;stroke-linecap:square;stroke-width:1.5;"/>
   </g>
   <g id="line2d_51">
    <path clip-path="url(#pe3d0d78e6f)" d="M 579.207273 333.36 
L 569.323636 392.661818 
" style="fill:none;stroke:#1f77b4;stroke-linecap:square;stroke-width:1.5;"/>
   </g>
   <g id="line2d_52">
    <path clip-path="url(#pe3d0d78e6f)" d="M 579.207273 333.36 
L 598.974545 392.661818 
" style="fill:none;stroke:#ff7f0e;stroke-linecap:square;stroke-width:1.5;"/>
   </g>
   <g id="line2d_53">
    <path clip-path="url(#pe3d0d78e6f)" d="M 598.974545 392.661818 
L 589.090909 451.963636 
" style="fill:none;stroke:#2ca02c;stroke-linecap:square;stroke-width:1.5;"/>
   </g>
   <g id="line2d_54">
    <path clip-path="url(#pe3d0d78e6f)" d="M 598.974545 392.661818 
L 608.858182 451.963636 
" style="fill:none;stroke:#d62728;stroke-linecap:square;stroke-width:1.5;"/>
   </g>
   <g id="text_1">
    <!-- 0 -->
    <g transform="translate(213.512727 66.501818)scale(0.1 -0.1)">
     <defs>
      <path d="M 31.78125 66.40625 
Q 24.171875 66.40625 20.328125 58.90625 
Q 16.5 51.421875 16.5 36.375 
Q 16.5 21.390625 20.328125 13.890625 
Q 24.171875 6.390625 31.78125 6.390625 
Q 39.453125 6.390625 43.28125 13.890625 
Q 47.125 21.390625 47.125 36.375 
Q 47.125 51.421875 43.28125 58.90625 
Q 39.453125 66.40625 31.78125 66.40625 
z
M 31.78125 74.21875 
Q 44.046875 74.21875 50.515625 64.515625 
Q 56.984375 54.828125 56.984375 36.375 
Q 56.984375 17.96875 50.515625 8.265625 
Q 44.046875 -1.421875 31.78125 -1.421875 
Q 19.53125 -1.421875 13.0625 8.265625 
Q 6.59375 17.96875 6.59375 36.375 
Q 6.59375 54.828125 13.0625 64.515625 
Q 19.53125 74.21875 31.78125 74.21875 
z
" id="DejaVuSans-48"/>
     </defs>
     <use xlink:href="#DejaVuSans-48"/>
    </g>
   </g>
   <g id="text_2">
    <!-- 0 -->
    <g transform="translate(94.909091 125.803636)scale(0.1 -0.1)">
     <use xlink:href="#DejaVuSans-48"/>
    </g>
   </g>
   <g id="text_3">
    <!-- 0 -->
    <g transform="translate(80.083636 185.105455)scale(0.1 -0.1)">
     <use xlink:href="#DejaVuSans-48"/>
    </g>
   </g>
   <g id="text_4">
    <!-- e -->
    <g transform="translate(73.165091 229.581818)scale(0.1 -0.1)">
     <defs>
      <path d="M 56.203125 29.59375 
L 56.203125 25.203125 
L 14.890625 25.203125 
Q 15.484375 15.921875 20.484375 11.0625 
Q 25.484375 6.203125 34.421875 6.203125 
Q 39.59375 6.203125 44.453125 7.46875 
Q 49.3125 8.734375 54.109375 11.28125 
L 54.109375 2.78125 
Q 49.265625 0.734375 44.1875 -0.34375 
Q 39.109375 -1.421875 33.890625 -1.421875 
Q 20.796875 -1.421875 13.15625 6.1875 
Q 5.515625 13.8125 5.515625 26.8125 
Q 5.515625 40.234375 12.765625 48.109375 
Q 20.015625 56 32.328125 56 
Q 43.359375 56 49.78125 48.890625 
Q 56.203125 41.796875 56.203125 29.59375 
z
M 47.21875 32.234375 
Q 47.125 39.59375 43.09375 43.984375 
Q 39.0625 48.390625 32.421875 48.390625 
Q 24.90625 48.390625 20.390625 44.140625 
Q 15.875 39.890625 15.1875 32.171875 
z
" id="DejaVuSans-101"/>
     </defs>
     <use xlink:href="#DejaVuSans-101"/>
    </g>
   </g>
   <g id="text_5">
    <!-- 1 -->
    <g transform="translate(89.967273 185.105455)scale(0.1 -0.1)">
     <defs>
      <path d="M 12.40625 8.296875 
L 28.515625 8.296875 
L 28.515625 63.921875 
L 10.984375 60.40625 
L 10.984375 69.390625 
L 28.421875 72.90625 
L 38.28125 72.90625 
L 38.28125 8.296875 
L 54.390625 8.296875 
L 54.390625 0 
L 12.40625 0 
z
" id="DejaVuSans-49"/>
     </defs>
     <use xlink:href="#DejaVuSans-49"/>
    </g>
   </g>
   <g id="text_6">
    <!--   -->
    <g transform="translate(92.932364 229.581818)scale(0.1 -0.1)">
     <defs>
      <path id="DejaVuSans-32"/>
     </defs>
     <use xlink:href="#DejaVuSans-32"/>
    </g>
   </g>
   <g id="text_7">
    <!-- 1 -->
    <g transform="translate(134.443636 125.803636)scale(0.1 -0.1)">
     <use xlink:href="#DejaVuSans-49"/>
    </g>
   </g>
   <g id="text_8">
    <!-- 0 -->
    <g transform="translate(154.210909 185.105455)scale(0.1 -0.1)">
     <use xlink:href="#DejaVuSans-48"/>
    </g>
   </g>
   <g id="text_9">
    <!-- 0 -->
    <g transform="translate(134.443636 244.407273)scale(0.1 -0.1)">
     <use xlink:href="#DejaVuSans-48"/>
    </g>
   </g>
   <g id="text_10">
    <!-- 0 -->
    <g transform="translate(119.618182 303.709091)scale(0.1 -0.1)">
     <use xlink:href="#DejaVuSans-48"/>
    </g>
   </g>
   <g id="text_11">
    <!-- m -->
    <g transform="translate(112.699636 348.185455)scale(0.1 -0.1)">
     <defs>
      <path d="M 52 44.1875 
Q 55.375 50.25 60.0625 53.125 
Q 64.75 56 71.09375 56 
Q 79.640625 56 84.28125 50.015625 
Q 88.921875 44.046875 88.921875 33.015625 
L 88.921875 0 
L 79.890625 0 
L 79.890625 32.71875 
Q 79.890625 40.578125 77.09375 44.375 
Q 74.3125 48.1875 68.609375 48.1875 
Q 61.625 48.1875 57.5625 43.546875 
Q 53.515625 38.921875 53.515625 30.90625 
L 53.515625 0 
L 44.484375 0 
L 44.484375 32.71875 
Q 44.484375 40.625 41.703125 44.40625 
Q 38.921875 48.1875 33.109375 48.1875 
Q 26.21875 48.1875 22.15625 43.53125 
Q 18.109375 38.875 18.109375 30.90625 
L 18.109375 0 
L 9.078125 0 
L 9.078125 54.6875 
L 18.109375 54.6875 
L 18.109375 46.1875 
Q 21.1875 51.21875 25.484375 53.609375 
Q 29.78125 56 35.6875 56 
Q 41.65625 56 45.828125 52.96875 
Q 50 49.953125 52 44.1875 
z
" id="DejaVuSans-109"/>
     </defs>
     <use xlink:href="#DejaVuSans-109"/>
    </g>
   </g>
   <g id="text_12">
    <!-- 1 -->
    <g transform="translate(129.501818 303.709091)scale(0.1 -0.1)">
     <use xlink:href="#DejaVuSans-49"/>
    </g>
   </g>
   <g id="text_13">
    <!-- u -->
    <g transform="translate(132.466909 348.185455)scale(0.1 -0.1)">
     <defs>
      <path d="M 8.5 21.578125 
L 8.5 54.6875 
L 17.484375 54.6875 
L 17.484375 21.921875 
Q 17.484375 14.15625 20.5 10.265625 
Q 23.53125 6.390625 29.59375 6.390625 
Q 36.859375 6.390625 41.078125 11.03125 
Q 45.3125 15.671875 45.3125 23.6875 
L 45.3125 54.6875 
L 54.296875 54.6875 
L 54.296875 0 
L 45.3125 0 
L 45.3125 8.40625 
Q 42.046875 3.421875 37.71875 1 
Q 33.40625 -1.421875 27.6875 -1.421875 
Q 18.265625 -1.421875 13.375 4.4375 
Q 8.5 10.296875 8.5 21.578125 
z
M 31.109375 56 
z
" id="DejaVuSans-117"/>
     </defs>
     <use xlink:href="#DejaVuSans-117"/>
    </g>
   </g>
   <g id="text_14">
    <!-- 1 -->
    <g transform="translate(149.269091 244.407273)scale(0.1 -0.1)">
     <use xlink:href="#DejaVuSans-49"/>
    </g>
   </g>
   <g id="text_15">
    <!-- r -->
    <g transform="translate(152.234182 288.883636)scale(0.1 -0.1)">
     <defs>
      <path d="M 41.109375 46.296875 
Q 39.59375 47.171875 37.8125 47.578125 
Q 36.03125 48 33.890625 48 
Q 26.265625 48 22.1875 43.046875 
Q 18.109375 38.09375 18.109375 28.8125 
L 18.109375 0 
L 9.078125 0 
L 9.078125 54.6875 
L 18.109375 54.6875 
L 18.109375 46.1875 
Q 20.953125 51.171875 25.484375 53.578125 
Q 30.03125 56 36.53125 56 
Q 37.453125 56 38.578125 55.875 
Q 39.703125 55.765625 41.0625 55.515625 
z
" id="DejaVuSans-114"/>
     </defs>
     <use xlink:href="#DejaVuSans-114"/>
    </g>
   </g>
   <g id="text_16">
    <!-- 1 -->
    <g transform="translate(233.28 185.105455)scale(0.1 -0.1)">
     <use xlink:href="#DejaVuSans-49"/>
    </g>
   </g>
   <g id="text_17">
    <!-- 0 -->
    <g transform="translate(292.581818 244.407273)scale(0.1 -0.1)">
     <use xlink:href="#DejaVuSans-48"/>
    </g>
   </g>
   <g id="text_18">
    <!-- 0 -->
    <g transform="translate(272.814545 303.709091)scale(0.1 -0.1)">
     <use xlink:href="#DejaVuSans-48"/>
    </g>
   </g>
   <g id="text_19">
    <!-- 0 -->
    <g transform="translate(223.396364 363.010909)scale(0.1 -0.1)">
     <use xlink:href="#DejaVuSans-48"/>
    </g>
   </g>
   <g id="text_20">
    <!-- 0 -->
    <g transform="translate(178.92 422.312727)scale(0.1 -0.1)">
     <use xlink:href="#DejaVuSans-48"/>
    </g>
   </g>
   <g id="text_21">
    <!-- k -->
    <g transform="translate(172.001455 466.789091)scale(0.1 -0.1)">
     <defs>
      <path d="M 9.078125 75.984375 
L 18.109375 75.984375 
L 18.109375 31.109375 
L 44.921875 54.6875 
L 56.390625 54.6875 
L 27.390625 29.109375 
L 57.625 0 
L 45.90625 0 
L 18.109375 26.703125 
L 18.109375 0 
L 9.078125 0 
z
" id="DejaVuSans-107"/>
     </defs>
     <use xlink:href="#DejaVuSans-107"/>
    </g>
   </g>
   <g id="text_22">
    <!-- 1 -->
    <g transform="translate(193.745455 422.312727)scale(0.1 -0.1)">
     <use xlink:href="#DejaVuSans-49"/>
    </g>
   </g>
   <g id="text_23">
    <!-- 0 -->
    <g transform="translate(198.687273 481.614545)scale(0.1 -0.1)">
     <use xlink:href="#DejaVuSans-48"/>
    </g>
   </g>
   <g id="text_24">
    <!-- x -->
    <g transform="translate(191.768727 526.090909)scale(0.1 -0.1)">
     <defs>
      <path d="M 54.890625 54.6875 
L 35.109375 28.078125 
L 55.90625 0 
L 45.3125 0 
L 29.390625 21.484375 
L 13.484375 0 
L 2.875 0 
L 24.125 28.609375 
L 4.6875 54.6875 
L 15.28125 54.6875 
L 29.78125 35.203125 
L 44.28125 54.6875 
z
" id="DejaVuSans-120"/>
     </defs>
     <use xlink:href="#DejaVuSans-120"/>
    </g>
   </g>
   <g id="text_25">
    <!-- 1 -->
    <g transform="translate(213.512727 481.614545)scale(0.1 -0.1)">
     <use xlink:href="#DejaVuSans-49"/>
    </g>
   </g>
   <g id="text_26">
    <!-- 0 -->
    <g transform="translate(218.454545 540.916364)scale(0.1 -0.1)">
     <use xlink:href="#DejaVuSans-48"/>
    </g>
   </g>
   <g id="text_27">
    <!-- j -->
    <g transform="translate(211.536 585.392727)scale(0.1 -0.1)">
     <defs>
      <path d="M 9.421875 54.6875 
L 18.40625 54.6875 
L 18.40625 -0.984375 
Q 18.40625 -11.421875 14.421875 -16.109375 
Q 10.453125 -20.796875 1.609375 -20.796875 
L -1.8125 -20.796875 
L -1.8125 -13.1875 
L 0.59375 -13.1875 
Q 5.71875 -13.1875 7.5625 -10.8125 
Q 9.421875 -8.453125 9.421875 -0.984375 
z
M 9.421875 75.984375 
L 18.40625 75.984375 
L 18.40625 64.59375 
L 9.421875 64.59375 
z
" id="DejaVuSans-106"/>
     </defs>
     <use xlink:href="#DejaVuSans-106"/>
    </g>
   </g>
   <g id="text_28">
    <!-- 1 -->
    <g transform="translate(233.28 540.916364)scale(0.1 -0.1)">
     <use xlink:href="#DejaVuSans-49"/>
    </g>
   </g>
   <g id="text_29">
    <!-- 0 -->
    <g transform="translate(238.221818 600.218182)scale(0.1 -0.1)">
     <use xlink:href="#DejaVuSans-48"/>
    </g>
   </g>
   <g id="text_30">
    <!-- z -->
    <g transform="translate(231.303273 644.694545)scale(0.1 -0.1)">
     <defs>
      <path d="M 5.515625 54.6875 
L 48.1875 54.6875 
L 48.1875 46.484375 
L 14.40625 7.171875 
L 48.1875 7.171875 
L 48.1875 0 
L 4.296875 0 
L 4.296875 8.203125 
L 38.09375 47.515625 
L 5.515625 47.515625 
z
" id="DejaVuSans-122"/>
     </defs>
     <use xlink:href="#DejaVuSans-122"/>
    </g>
   </g>
   <g id="text_31">
    <!-- 1 -->
    <g transform="translate(248.105455 600.218182)scale(0.1 -0.1)">
     <use xlink:href="#DejaVuSans-49"/>
    </g>
   </g>
   <g id="text_32">
    <!-- q -->
    <g transform="translate(251.070545 644.694545)scale(0.1 -0.1)">
     <defs>
      <path d="M 14.796875 27.296875 
Q 14.796875 17.390625 18.875 11.75 
Q 22.953125 6.109375 30.078125 6.109375 
Q 37.203125 6.109375 41.296875 11.75 
Q 45.40625 17.390625 45.40625 27.296875 
Q 45.40625 37.203125 41.296875 42.84375 
Q 37.203125 48.484375 30.078125 48.484375 
Q 22.953125 48.484375 18.875 42.84375 
Q 14.796875 37.203125 14.796875 27.296875 
z
M 45.40625 8.203125 
Q 42.578125 3.328125 38.25 0.953125 
Q 33.9375 -1.421875 27.875 -1.421875 
Q 17.96875 -1.421875 11.734375 6.484375 
Q 5.515625 14.40625 5.515625 27.296875 
Q 5.515625 40.1875 11.734375 48.09375 
Q 17.96875 56 27.875 56 
Q 33.9375 56 38.25 53.625 
Q 42.578125 51.265625 45.40625 46.390625 
L 45.40625 54.6875 
L 54.390625 54.6875 
L 54.390625 -20.796875 
L 45.40625 -20.796875 
z
" id="DejaVuSans-113"/>
     </defs>
     <use xlink:href="#DejaVuSans-113"/>
    </g>
   </g>
   <g id="text_33">
    <!-- 1 -->
    <g transform="translate(267.872727 363.010909)scale(0.1 -0.1)">
     <use xlink:href="#DejaVuSans-49"/>
    </g>
   </g>
   <g id="text_34">
    <!-- b -->
    <g transform="translate(270.837818 407.487273)scale(0.1 -0.1)">
     <defs>
      <path d="M 48.6875 27.296875 
Q 48.6875 37.203125 44.609375 42.84375 
Q 40.53125 48.484375 33.40625 48.484375 
Q 26.265625 48.484375 22.1875 42.84375 
Q 18.109375 37.203125 18.109375 27.296875 
Q 18.109375 17.390625 22.1875 11.75 
Q 26.265625 6.109375 33.40625 6.109375 
Q 40.53125 6.109375 44.609375 11.75 
Q 48.6875 17.390625 48.6875 27.296875 
z
M 18.109375 46.390625 
Q 20.953125 51.265625 25.265625 53.625 
Q 29.59375 56 35.59375 56 
Q 45.5625 56 51.78125 48.09375 
Q 58.015625 40.1875 58.015625 27.296875 
Q 58.015625 14.40625 51.78125 6.484375 
Q 45.5625 -1.421875 35.59375 -1.421875 
Q 29.59375 -1.421875 25.265625 0.953125 
Q 20.953125 3.328125 18.109375 8.203125 
L 18.109375 0 
L 9.078125 0 
L 9.078125 75.984375 
L 18.109375 75.984375 
z
" id="DejaVuSans-98"/>
     </defs>
     <use xlink:href="#DejaVuSans-98"/>
    </g>
   </g>
   <g id="text_35">
    <!-- 1 -->
    <g transform="translate(287.64 303.709091)scale(0.1 -0.1)">
     <use xlink:href="#DejaVuSans-49"/>
    </g>
   </g>
   <g id="text_36">
    <!-- h -->
    <g transform="translate(290.605091 348.185455)scale(0.1 -0.1)">
     <defs>
      <path d="M 54.890625 33.015625 
L 54.890625 0 
L 45.90625 0 
L 45.90625 32.71875 
Q 45.90625 40.484375 42.875 44.328125 
Q 39.84375 48.1875 33.796875 48.1875 
Q 26.515625 48.1875 22.3125 43.546875 
Q 18.109375 38.921875 18.109375 30.90625 
L 18.109375 0 
L 9.078125 0 
L 9.078125 75.984375 
L 18.109375 75.984375 
L 18.109375 46.1875 
Q 21.34375 51.125 25.703125 53.5625 
Q 30.078125 56 35.796875 56 
Q 45.21875 56 50.046875 50.171875 
Q 54.890625 44.34375 54.890625 33.015625 
z
" id="DejaVuSans-104"/>
     </defs>
     <use xlink:href="#DejaVuSans-104"/>
    </g>
   </g>
   <g id="text_37">
    <!-- 1 -->
    <g transform="translate(307.407273 244.407273)scale(0.1 -0.1)">
     <use xlink:href="#DejaVuSans-49"/>
    </g>
   </g>
   <g id="text_38">
    <!-- s -->
    <g transform="translate(310.372364 288.883636)scale(0.1 -0.1)">
     <defs>
      <path d="M 44.28125 53.078125 
L 44.28125 44.578125 
Q 40.484375 46.53125 36.375 47.5 
Q 32.28125 48.484375 27.875 48.484375 
Q 21.1875 48.484375 17.84375 46.4375 
Q 14.5 44.390625 14.5 40.28125 
Q 14.5 37.15625 16.890625 35.375 
Q 19.28125 33.59375 26.515625 31.984375 
L 29.59375 31.296875 
Q 39.15625 29.25 43.1875 25.515625 
Q 47.21875 21.78125 47.21875 15.09375 
Q 47.21875 7.46875 41.1875 3.015625 
Q 35.15625 -1.421875 24.609375 -1.421875 
Q 20.21875 -1.421875 15.453125 -0.5625 
Q 10.6875 0.296875 5.421875 2 
L 5.421875 11.28125 
Q 10.40625 8.6875 15.234375 7.390625 
Q 20.0625 6.109375 24.8125 6.109375 
Q 31.15625 6.109375 34.5625 8.28125 
Q 37.984375 10.453125 37.984375 14.40625 
Q 37.984375 18.0625 35.515625 20.015625 
Q 33.0625 21.96875 24.703125 23.78125 
L 21.578125 24.515625 
Q 13.234375 26.265625 9.515625 29.90625 
Q 5.8125 33.546875 5.8125 39.890625 
Q 5.8125 47.609375 11.28125 51.796875 
Q 16.75 56 26.8125 56 
Q 31.78125 56 36.171875 55.265625 
Q 40.578125 54.546875 44.28125 53.078125 
z
" id="DejaVuSans-115"/>
     </defs>
     <use xlink:href="#DejaVuSans-115"/>
    </g>
   </g>
   <g id="text_39">
    <!-- 1 -->
    <g transform="translate(371.650909 66.501818)scale(0.1 -0.1)">
     <use xlink:href="#DejaVuSans-49"/>
    </g>
   </g>
   <g id="text_40">
    <!-- 0 -->
    <g transform="translate(401.301818 125.803636)scale(0.1 -0.1)">
     <use xlink:href="#DejaVuSans-48"/>
    </g>
   </g>
   <g id="text_41">
    <!-- 0 -->
    <g transform="translate(361.767273 185.105455)scale(0.1 -0.1)">
     <use xlink:href="#DejaVuSans-48"/>
    </g>
   </g>
   <g id="text_42">
    <!-- 0 -->
    <g transform="translate(337.058182 244.407273)scale(0.1 -0.1)">
     <use xlink:href="#DejaVuSans-48"/>
    </g>
   </g>
   <g id="text_43">
    <!-- n -->
    <g transform="translate(330.139636 288.883636)scale(0.1 -0.1)">
     <defs>
      <path d="M 54.890625 33.015625 
L 54.890625 0 
L 45.90625 0 
L 45.90625 32.71875 
Q 45.90625 40.484375 42.875 44.328125 
Q 39.84375 48.1875 33.796875 48.1875 
Q 26.515625 48.1875 22.3125 43.546875 
Q 18.109375 38.921875 18.109375 30.90625 
L 18.109375 0 
L 9.078125 0 
L 9.078125 54.6875 
L 18.109375 54.6875 
L 18.109375 46.1875 
Q 21.34375 51.125 25.703125 53.5625 
Q 30.078125 56 35.796875 56 
Q 45.21875 56 50.046875 50.171875 
Q 54.890625 44.34375 54.890625 33.015625 
z
" id="DejaVuSans-110"/>
     </defs>
     <use xlink:href="#DejaVuSans-110"/>
    </g>
   </g>
   <g id="text_44">
    <!-- 1 -->
    <g transform="translate(351.883636 244.407273)scale(0.1 -0.1)">
     <use xlink:href="#DejaVuSans-49"/>
    </g>
   </g>
   <g id="text_45">
    <!-- 0 -->
    <g transform="translate(356.825455 303.709091)scale(0.1 -0.1)">
     <use xlink:href="#DejaVuSans-48"/>
    </g>
   </g>
   <g id="text_46">
    <!-- d -->
    <g transform="translate(349.906909 348.185455)scale(0.1 -0.1)">
     <defs>
      <path d="M 45.40625 46.390625 
L 45.40625 75.984375 
L 54.390625 75.984375 
L 54.390625 0 
L 45.40625 0 
L 45.40625 8.203125 
Q 42.578125 3.328125 38.25 0.953125 
Q 33.9375 -1.421875 27.875 -1.421875 
Q 17.96875 -1.421875 11.734375 6.484375 
Q 5.515625 14.40625 5.515625 27.296875 
Q 5.515625 40.1875 11.734375 48.09375 
Q 17.96875 56 27.875 56 
Q 33.9375 56 38.25 53.625 
Q 42.578125 51.265625 45.40625 46.390625 
z
M 14.796875 27.296875 
Q 14.796875 17.390625 18.875 11.75 
Q 22.953125 6.109375 30.078125 6.109375 
Q 37.203125 6.109375 41.296875 11.75 
Q 45.40625 17.390625 45.40625 27.296875 
Q 45.40625 37.203125 41.296875 42.84375 
Q 37.203125 48.484375 30.078125 48.484375 
Q 22.953125 48.484375 18.875 42.84375 
Q 14.796875 37.203125 14.796875 27.296875 
z
" id="DejaVuSans-100"/>
     </defs>
     <use xlink:href="#DejaVuSans-100"/>
    </g>
   </g>
   <g id="text_47">
    <!-- 1 -->
    <g transform="translate(366.709091 303.709091)scale(0.1 -0.1)">
     <use xlink:href="#DejaVuSans-49"/>
    </g>
   </g>
   <g id="text_48">
    <!-- c -->
    <g transform="translate(369.674182 348.185455)scale(0.1 -0.1)">
     <defs>
      <path d="M 48.78125 52.59375 
L 48.78125 44.1875 
Q 44.96875 46.296875 41.140625 47.34375 
Q 37.3125 48.390625 33.40625 48.390625 
Q 24.65625 48.390625 19.8125 42.84375 
Q 14.984375 37.3125 14.984375 27.296875 
Q 14.984375 17.28125 19.8125 11.734375 
Q 24.65625 6.203125 33.40625 6.203125 
Q 37.3125 6.203125 41.140625 7.25 
Q 44.96875 8.296875 48.78125 10.40625 
L 48.78125 2.09375 
Q 45.015625 0.34375 40.984375 -0.53125 
Q 36.96875 -1.421875 32.421875 -1.421875 
Q 20.0625 -1.421875 12.78125 6.34375 
Q 5.515625 14.109375 5.515625 27.296875 
Q 5.515625 40.671875 12.859375 48.328125 
Q 20.21875 56 33.015625 56 
Q 37.15625 56 41.109375 55.140625 
Q 45.0625 54.296875 48.78125 52.59375 
z
" id="DejaVuSans-99"/>
     </defs>
     <use xlink:href="#DejaVuSans-99"/>
    </g>
   </g>
   <g id="text_49">
    <!-- 1 -->
    <g transform="translate(391.418182 185.105455)scale(0.1 -0.1)">
     <use xlink:href="#DejaVuSans-49"/>
    </g>
   </g>
   <g id="text_50">
    <!-- 0 -->
    <g transform="translate(396.36 244.407273)scale(0.1 -0.1)">
     <use xlink:href="#DejaVuSans-48"/>
    </g>
   </g>
   <g id="text_51">
    <!-- i -->
    <g transform="translate(389.441455 288.883636)scale(0.1 -0.1)">
     <defs>
      <path d="M 9.421875 54.6875 
L 18.40625 54.6875 
L 18.40625 0 
L 9.421875 0 
z
M 9.421875 75.984375 
L 18.40625 75.984375 
L 18.40625 64.59375 
L 9.421875 64.59375 
z
" id="DejaVuSans-105"/>
     </defs>
     <use xlink:href="#DejaVuSans-105"/>
    </g>
   </g>
   <g id="text_52">
    <!-- 1 -->
    <g transform="translate(406.243636 244.407273)scale(0.1 -0.1)">
     <use xlink:href="#DejaVuSans-49"/>
    </g>
   </g>
   <g id="text_53">
    <!-- o -->
    <g transform="translate(409.208727 288.883636)scale(0.1 -0.1)">
     <defs>
      <path d="M 30.609375 48.390625 
Q 23.390625 48.390625 19.1875 42.75 
Q 14.984375 37.109375 14.984375 27.296875 
Q 14.984375 17.484375 19.15625 11.84375 
Q 23.34375 6.203125 30.609375 6.203125 
Q 37.796875 6.203125 41.984375 11.859375 
Q 46.1875 17.53125 46.1875 27.296875 
Q 46.1875 37.015625 41.984375 42.703125 
Q 37.796875 48.390625 30.609375 48.390625 
z
M 30.609375 56 
Q 42.328125 56 49.015625 48.375 
Q 55.71875 40.765625 55.71875 27.296875 
Q 55.71875 13.875 49.015625 6.21875 
Q 42.328125 -1.421875 30.609375 -1.421875 
Q 18.84375 -1.421875 12.171875 6.21875 
Q 5.515625 13.875 5.515625 27.296875 
Q 5.515625 40.765625 12.171875 48.375 
Q 18.84375 56 30.609375 56 
z
" id="DejaVuSans-111"/>
     </defs>
     <use xlink:href="#DejaVuSans-111"/>
    </g>
   </g>
   <g id="text_54">
    <!-- 1 -->
    <g transform="translate(460.603636 125.803636)scale(0.1 -0.1)">
     <use xlink:href="#DejaVuSans-49"/>
    </g>
   </g>
   <g id="text_55">
    <!-- 0 -->
    <g transform="translate(470.487273 185.105455)scale(0.1 -0.1)">
     <use xlink:href="#DejaVuSans-48"/>
    </g>
   </g>
   <g id="text_56">
    <!-- 0 -->
    <g transform="translate(435.894545 244.407273)scale(0.1 -0.1)">
     <use xlink:href="#DejaVuSans-48"/>
    </g>
   </g>
   <g id="text_57">
    <!-- a -->
    <g transform="translate(428.976 288.883636)scale(0.1 -0.1)">
     <defs>
      <path d="M 34.28125 27.484375 
Q 23.390625 27.484375 19.1875 25 
Q 14.984375 22.515625 14.984375 16.5 
Q 14.984375 11.71875 18.140625 8.90625 
Q 21.296875 6.109375 26.703125 6.109375 
Q 34.1875 6.109375 38.703125 11.40625 
Q 43.21875 16.703125 43.21875 25.484375 
L 43.21875 27.484375 
z
M 52.203125 31.203125 
L 52.203125 0 
L 43.21875 0 
L 43.21875 8.296875 
Q 40.140625 3.328125 35.546875 0.953125 
Q 30.953125 -1.421875 24.3125 -1.421875 
Q 15.921875 -1.421875 10.953125 3.296875 
Q 6 8.015625 6 15.921875 
Q 6 25.140625 12.171875 29.828125 
Q 18.359375 34.515625 30.609375 34.515625 
L 43.21875 34.515625 
L 43.21875 35.40625 
Q 43.21875 41.609375 39.140625 45 
Q 35.0625 48.390625 27.6875 48.390625 
Q 23 48.390625 18.546875 47.265625 
Q 14.109375 46.140625 10.015625 43.890625 
L 10.015625 52.203125 
Q 14.9375 54.109375 19.578125 55.046875 
Q 24.21875 56 28.609375 56 
Q 40.484375 56 46.34375 49.84375 
Q 52.203125 43.703125 52.203125 31.203125 
z
" id="DejaVuSans-97"/>
     </defs>
     <use xlink:href="#DejaVuSans-97"/>
    </g>
   </g>
   <g id="text_58">
    <!-- 1 -->
    <g transform="translate(460.603636 244.407273)scale(0.1 -0.1)">
     <use xlink:href="#DejaVuSans-49"/>
    </g>
   </g>
   <g id="text_59">
    <!-- 0 -->
    <g transform="translate(470.487273 303.709091)scale(0.1 -0.1)">
     <use xlink:href="#DejaVuSans-48"/>
    </g>
   </g>
   <g id="text_60">
    <!-- 0 -->
    <g transform="translate(455.661818 363.010909)scale(0.1 -0.1)">
     <use xlink:href="#DejaVuSans-48"/>
    </g>
   </g>
   <g id="text_61">
    <!-- y -->
    <g transform="translate(448.743273 407.487273)scale(0.1 -0.1)">
     <defs>
      <path d="M 32.171875 -5.078125 
Q 28.375 -14.84375 24.75 -17.8125 
Q 21.140625 -20.796875 15.09375 -20.796875 
L 7.90625 -20.796875 
L 7.90625 -13.28125 
L 13.1875 -13.28125 
Q 16.890625 -13.28125 18.9375 -11.515625 
Q 21 -9.765625 23.484375 -3.21875 
L 25.09375 0.875 
L 2.984375 54.6875 
L 12.5 54.6875 
L 29.59375 11.921875 
L 46.6875 54.6875 
L 56.203125 54.6875 
z
" id="DejaVuSans-121"/>
     </defs>
     <use xlink:href="#DejaVuSans-121"/>
    </g>
   </g>
   <g id="text_62">
    <!-- 1 -->
    <g transform="translate(465.545455 363.010909)scale(0.1 -0.1)">
     <use xlink:href="#DejaVuSans-49"/>
    </g>
   </g>
   <g id="text_63">
    <!-- f -->
    <g transform="translate(468.510545 407.487273)scale(0.1 -0.1)">
     <defs>
      <path d="M 37.109375 75.984375 
L 37.109375 68.5 
L 28.515625 68.5 
Q 23.6875 68.5 21.796875 66.546875 
Q 19.921875 64.59375 19.921875 59.515625 
L 19.921875 54.6875 
L 34.71875 54.6875 
L 34.71875 47.703125 
L 19.921875 47.703125 
L 19.921875 0 
L 10.890625 0 
L 10.890625 47.703125 
L 2.296875 47.703125 
L 2.296875 54.6875 
L 10.890625 54.6875 
L 10.890625 58.5 
Q 10.890625 67.625 15.140625 71.796875 
Q 19.390625 75.984375 28.609375 75.984375 
z
" id="DejaVuSans-102"/>
     </defs>
     <use xlink:href="#DejaVuSans-102"/>
    </g>
   </g>
   <g id="text_64">
    <!-- 1 -->
    <g transform="translate(485.312727 303.709091)scale(0.1 -0.1)">
     <use xlink:href="#DejaVuSans-49"/>
    </g>
   </g>
   <g id="text_65">
    <!-- l -->
    <g transform="translate(488.277818 348.185455)scale(0.1 -0.1)">
     <defs>
      <path d="M 9.421875 75.984375 
L 18.40625 75.984375 
L 18.40625 0 
L 9.421875 0 
z
" id="DejaVuSans-108"/>
     </defs>
     <use xlink:href="#DejaVuSans-108"/>
    </g>
   </g>
   <g id="text_66">
    <!-- 1 -->
    <g transform="translate(510.021818 185.105455)scale(0.1 -0.1)">
     <use xlink:href="#DejaVuSans-49"/>
    </g>
   </g>
   <g id="text_67">
    <!-- 0 -->
    <g transform="translate(514.963636 244.407273)scale(0.1 -0.1)">
     <use xlink:href="#DejaVuSans-48"/>
    </g>
   </g>
   <g id="text_68">
    <!-- t -->
    <g transform="translate(508.045091 288.883636)scale(0.1 -0.1)">
     <defs>
      <path d="M 18.3125 70.21875 
L 18.3125 54.6875 
L 36.8125 54.6875 
L 36.8125 47.703125 
L 18.3125 47.703125 
L 18.3125 18.015625 
Q 18.3125 11.328125 20.140625 9.421875 
Q 21.96875 7.515625 27.59375 7.515625 
L 36.8125 7.515625 
L 36.8125 0 
L 27.59375 0 
Q 17.1875 0 13.234375 3.875 
Q 9.28125 7.765625 9.28125 18.015625 
L 9.28125 47.703125 
L 2.6875 47.703125 
L 2.6875 54.6875 
L 9.28125 54.6875 
L 9.28125 70.21875 
z
" id="DejaVuSans-116"/>
     </defs>
     <use xlink:href="#DejaVuSans-116"/>
    </g>
   </g>
   <g id="text_69">
    <!-- 1 -->
    <g transform="translate(539.672727 244.407273)scale(0.1 -0.1)">
     <use xlink:href="#DejaVuSans-49"/>
    </g>
   </g>
   <g id="text_70">
    <!-- 0 -->
    <g transform="translate(549.556364 303.709091)scale(0.1 -0.1)">
     <use xlink:href="#DejaVuSans-48"/>
    </g>
   </g>
   <g id="text_71">
    <!-- 0 -->
    <g transform="translate(534.730909 363.010909)scale(0.1 -0.1)">
     <use xlink:href="#DejaVuSans-48"/>
    </g>
   </g>
   <g id="text_72">
    <!-- g -->
    <g transform="translate(527.812364 407.487273)scale(0.1 -0.1)">
     <defs>
      <path d="M 45.40625 27.984375 
Q 45.40625 37.75 41.375 43.109375 
Q 37.359375 48.484375 30.078125 48.484375 
Q 22.859375 48.484375 18.828125 43.109375 
Q 14.796875 37.75 14.796875 27.984375 
Q 14.796875 18.265625 18.828125 12.890625 
Q 22.859375 7.515625 30.078125 7.515625 
Q 37.359375 7.515625 41.375 12.890625 
Q 45.40625 18.265625 45.40625 27.984375 
z
M 54.390625 6.78125 
Q 54.390625 -7.171875 48.1875 -13.984375 
Q 42 -20.796875 29.203125 -20.796875 
Q 24.46875 -20.796875 20.265625 -20.09375 
Q 16.0625 -19.390625 12.109375 -17.921875 
L 12.109375 -9.1875 
Q 16.0625 -11.328125 19.921875 -12.34375 
Q 23.78125 -13.375 27.78125 -13.375 
Q 36.625 -13.375 41.015625 -8.765625 
Q 45.40625 -4.15625 45.40625 5.171875 
L 45.40625 9.625 
Q 42.625 4.78125 38.28125 2.390625 
Q 33.9375 0 27.875 0 
Q 17.828125 0 11.671875 7.65625 
Q 5.515625 15.328125 5.515625 27.984375 
Q 5.515625 40.671875 11.671875 48.328125 
Q 17.828125 56 27.875 56 
Q 33.9375 56 38.28125 53.609375 
Q 42.625 51.21875 45.40625 46.390625 
L 45.40625 54.6875 
L 54.390625 54.6875 
z
" id="DejaVuSans-103"/>
     </defs>
     <use xlink:href="#DejaVuSans-103"/>
    </g>
   </g>
   <g id="text_73">
    <!-- 1 -->
    <g transform="translate(544.614545 363.010909)scale(0.1 -0.1)">
     <use xlink:href="#DejaVuSans-49"/>
    </g>
   </g>
   <g id="text_74">
    <!-- . -->
    <g transform="translate(547.579636 407.487273)scale(0.1 -0.1)">
     <defs>
      <path d="M 10.6875 12.40625 
L 21 12.40625 
L 21 0 
L 10.6875 0 
z
" id="DejaVuSans-46"/>
     </defs>
     <use xlink:href="#DejaVuSans-46"/>
    </g>
   </g>
   <g id="text_75">
    <!-- 1 -->
    <g transform="translate(569.323636 303.709091)scale(0.1 -0.1)">
     <use xlink:href="#DejaVuSans-49"/>
    </g>
   </g>
   <g id="text_76">
    <!-- 0 -->
    <g transform="translate(574.265455 363.010909)scale(0.1 -0.1)">
     <use xlink:href="#DejaVuSans-48"/>
    </g>
   </g>
   <g id="text_77">
    <!-- p -->
    <g transform="translate(567.346909 407.487273)scale(0.1 -0.1)">
     <defs>
      <path d="M 18.109375 8.203125 
L 18.109375 -20.796875 
L 9.078125 -20.796875 
L 9.078125 54.6875 
L 18.109375 54.6875 
L 18.109375 46.390625 
Q 20.953125 51.265625 25.265625 53.625 
Q 29.59375 56 35.59375 56 
Q 45.5625 56 51.78125 48.09375 
Q 58.015625 40.1875 58.015625 27.296875 
Q 58.015625 14.40625 51.78125 6.484375 
Q 45.5625 -1.421875 35.59375 -1.421875 
Q 29.59375 -1.421875 25.265625 0.953125 
Q 20.953125 3.328125 18.109375 8.203125 
z
M 48.6875 27.296875 
Q 48.6875 37.203125 44.609375 42.84375 
Q 40.53125 48.484375 33.40625 48.484375 
Q 26.265625 48.484375 22.1875 42.84375 
Q 18.109375 37.203125 18.109375 27.296875 
Q 18.109375 17.390625 22.1875 11.75 
Q 26.265625 6.109375 33.40625 6.109375 
Q 40.53125 6.109375 44.609375 11.75 
Q 48.6875 17.390625 48.6875 27.296875 
z
" id="DejaVuSans-112"/>
     </defs>
     <use xlink:href="#DejaVuSans-112"/>
    </g>
   </g>
   <g id="text_78">
    <!-- 1 -->
    <g transform="translate(589.090909 363.010909)scale(0.1 -0.1)">
     <use xlink:href="#DejaVuSans-49"/>
    </g>
   </g>
   <g id="text_79">
    <!-- 0 -->
    <g transform="translate(594.032727 422.312727)scale(0.1 -0.1)">
     <use xlink:href="#DejaVuSans-48"/>
    </g>
   </g>
   <g id="text_80">
    <!-- v -->
    <g transform="translate(587.114182 466.789091)scale(0.1 -0.1)">
     <defs>
      <path d="M 2.984375 54.6875 
L 12.5 54.6875 
L 29.59375 8.796875 
L 46.6875 54.6875 
L 56.203125 54.6875 
L 35.6875 0 
L 23.484375 0 
z
" id="DejaVuSans-118"/>
     </defs>
     <use xlink:href="#DejaVuSans-118"/>
    </g>
   </g>
   <g id="text_81">
    <!-- 1 -->
    <g transform="translate(603.916364 422.312727)scale(0.1 -0.1)">
     <use xlink:href="#DejaVuSans-49"/>
    </g>
   </g>
   <g id="text_82">
    <!-- w -->
    <g transform="translate(606.881455 466.789091)scale(0.1 -0.1)">
     <defs>
      <path d="M 4.203125 54.6875 
L 13.1875 54.6875 
L 24.421875 12.015625 
L 35.59375 54.6875 
L 46.1875 54.6875 
L 57.421875 12.015625 
L 68.609375 54.6875 
L 77.59375 54.6875 
L 63.28125 0 
L 52.6875 0 
L 40.921875 44.828125 
L 29.109375 0 
L 18.5 0 
z
" id="DejaVuSans-119"/>
     </defs>
     <use xlink:href="#DejaVuSans-119"/>
    </g>
   </g>
  </g>
 </g>
 <defs>
  <clipPath id="pe3d0d78e6f">
   <rect height="652.32" width="669.6" x="7.2" y="7.2"/>
  </clipPath>
 </defs>
</svg>
