<?xml version="1.0" encoding="UTF-8" standalone="no"?>
<!-- Created with matplotlib (https://matplotlib.org/) -->

<svg
   xmlns:dc="http://purl.org/dc/elements/1.1/"
   xmlns:cc="http://creativecommons.org/ns#"
   xmlns:rdf="http://www.w3.org/1999/02/22-rdf-syntax-ns#"
   xmlns:svg="http://www.w3.org/2000/svg"
   xmlns="http://www.w3.org/2000/svg"
   xmlns:xlink="http://www.w3.org/1999/xlink"
   xmlns:sodipodi="http://sodipodi.sourceforge.net/DTD/sodipodi-0.dtd"
   xmlns:inkscape="http://www.inkscape.org/namespaces/inkscape"
   height="354.70023pt"
   version="1.1"
   viewBox="0 0 473.40421 354.70023"
   width="473.40421pt"
   id="svg258"
   sodipodi:docname="Tree.svg"
   inkscape:version="0.92.5 (2060ec1f9f, 2020-04-08)">
  <sodipodi:namedview
     pagecolor="#ffffff"
     bordercolor="#666666"
     borderopacity="1"
     objecttolerance="10"
     gridtolerance="10"
     guidetolerance="10"
     inkscape:pageopacity="0"
     inkscape:pageshadow="2"
     inkscape:window-width="1127"
     inkscape:window-height="813"
     id="namedview260"
     showgrid="false"
     fit-margin-top="0"
     fit-margin-left="0"
     fit-margin-right="0"
     fit-margin-bottom="0"
     inkscape:zoom="1.2048611"
     inkscape:cx="358.45895"
     inkscape:cy="243.86037"
     inkscape:window-x="2225"
     inkscape:window-y="130"
     inkscape:window-maximized="0"
     inkscape:current-layer="svg258" />
  <metadata
     id="metadata2">
    <rdf:RDF>
      <cc:Work>
        <dc:type
           rdf:resource="http://purl.org/dc/dcmitype/StillImage" />
        <dc:date>2021-03-31T22:18:30.324901</dc:date>
        <dc:format>image/svg+xml</dc:format>
        <dc:creator>
          <cc:Agent>
            <dc:title>Matplotlib v3.3.3, https://matplotlib.org/</dc:title>
          </cc:Agent>
        </dc:creator>
        <dc:title></dc:title>
      </cc:Work>
    </rdf:RDF>
  </metadata>
  <defs
     id="defs6"
     style="stroke-linecap:butt;stroke-linejoin:round">
    <style
       type="text/css"
       id="style4">*{stroke-linecap:butt;stroke-linejoin:round;}</style>
  </defs>
  <g
     id="figure_1"
     transform="translate(0,35.106321)"
     style="stroke-linecap:butt;stroke-linejoin:round">
    <g
       id="patch_1"
       style="stroke-linecap:butt;stroke-linejoin:round">
      <path
         d="M 0,288 H 432 V 0 H 0 Z"
         style="fill:none;stroke-linecap:butt;stroke-linejoin:round"
         id="path8"
         inkscape:connector-curvature="0" />
    </g>
    <g
       id="axes_1"
       style="stroke-linecap:butt;stroke-linejoin:round">
      <g
         id="PathCollection_1"
         style="stroke-linecap:butt;stroke-linejoin:round">
        <defs
           id="defs12">
          <path
             d="M 0,3.535534 C 0.937635,3.535534 1.836992,3.163008 2.5,2.5 3.163008,1.836992 3.535534,0.937635 3.535534,0 3.535534,-0.937635 3.163008,-1.836992 2.5,-2.5 1.836992,-3.163008 0.937635,-3.535534 0,-3.535534 c -0.937635,0 -1.836992,0.372526 -2.5,1.035534 -0.663008,0.663008 -1.035534,1.562365 -1.035534,2.5 0,0.937635 0.372526,1.836992 1.035534,2.5 0.663008,0.663008 1.562365,1.035534 2.5,1.035534 z"
             id="mf406a5e378"
             style="stroke:#000000;stroke-linecap:butt;stroke-linejoin:round"
             inkscape:connector-curvature="0" />
        </defs>
        <g
           clip-path="url(#p7cfb5ae46f)"
           id="g16"
           style="stroke-linecap:butt;stroke-linejoin:round">
          <use
             style="stroke:#000000;stroke-linecap:butt;stroke-linejoin:round"
             x="226.64764"
             xlink:href="#mf406a5e378"
             y="109.69505"
             id="use14"
             width="100%"
             height="100%" />
        </g>
      </g>
      <g
         id="PathCollection_2"
         style="stroke-linecap:butt;stroke-linejoin:round">
        <g
           clip-path="url(#p7cfb5ae46f)"
           id="g21"
           style="stroke-linecap:butt;stroke-linejoin:round">
          <use
             style="stroke:#000000;stroke-linecap:butt;stroke-linejoin:round"
             x="142.68527"
             xlink:href="#mf406a5e378"
             y="126.48753"
             id="use19"
             width="100%"
             height="100%" />
        </g>
      </g>
      <g
         id="PathCollection_3"
         style="stroke-linecap:butt;stroke-linejoin:round">
        <g
           clip-path="url(#p7cfb5ae46f)"
           id="g26"
           style="stroke-linecap:butt;stroke-linejoin:round">
          <use
             style="stroke:#000000;stroke-linecap:butt;stroke-linejoin:round"
             x="100.70408"
             xlink:href="#mf406a5e378"
             y="143.28"
             id="use24"
             width="100%"
             height="100%" />
        </g>
      </g>
      <g
         id="PathCollection_4"
         style="stroke-linecap:butt;stroke-linejoin:round">
        <g
           clip-path="url(#p7cfb5ae46f)"
           id="g31"
           style="stroke-linecap:butt;stroke-linejoin:round">
          <use
             style="stroke:#000000;stroke-linecap:butt;stroke-linejoin:round"
             x="79.713478"
             xlink:href="#mf406a5e378"
             y="160.07248"
             id="use29"
             width="100%"
             height="100%" />
        </g>
      </g>
      <g
         id="PathCollection_5"
         style="stroke-linecap:butt;stroke-linejoin:round">
        <g
           clip-path="url(#p7cfb5ae46f)"
           id="g36"
           style="stroke-linecap:butt;stroke-linejoin:round">
          <use
             style="stroke:#000000;stroke-linecap:butt;stroke-linejoin:round"
             x="69.218185"
             xlink:href="#mf406a5e378"
             y="176.86496"
             id="use34"
             width="100%"
             height="100%" />
        </g>
      </g>
      <g
         id="PathCollection_6"
         style="stroke-linecap:butt;stroke-linejoin:round">
        <g
           clip-path="url(#p7cfb5ae46f)"
           id="g41"
           style="stroke-linecap:butt;stroke-linejoin:round">
          <use
             style="stroke:#000000;stroke-linecap:butt;stroke-linejoin:round"
             x="90.208778"
             xlink:href="#mf406a5e378"
             y="176.86496"
             id="use39"
             width="100%"
             height="100%" />
        </g>
      </g>
      <g
         id="PathCollection_7"
         style="stroke-linecap:butt;stroke-linejoin:round">
        <g
           clip-path="url(#p7cfb5ae46f)"
           id="g46"
           style="stroke-linecap:butt;stroke-linejoin:round">
          <use
             style="stroke:#000000;stroke-linecap:butt;stroke-linejoin:round"
             x="184.66646"
             xlink:href="#mf406a5e378"
             y="143.28"
             id="use44"
             width="100%"
             height="100%" />
        </g>
      </g>
      <g
         id="PathCollection_8"
         style="stroke-linecap:butt;stroke-linejoin:round">
        <g
           clip-path="url(#p7cfb5ae46f)"
           id="g51"
           style="stroke-linecap:butt;stroke-linejoin:round">
          <use
             style="stroke:#000000;stroke-linecap:butt;stroke-linejoin:round"
             x="205.65706"
             xlink:href="#mf406a5e378"
             y="160.07248"
             id="use49"
             width="100%"
             height="100%" />
        </g>
      </g>
      <g
         id="PathCollection_9"
         style="stroke-linecap:butt;stroke-linejoin:round">
        <g
           clip-path="url(#p7cfb5ae46f)"
           id="g56"
           style="stroke-linecap:butt;stroke-linejoin:round">
          <use
             style="stroke:#000000;stroke-linecap:butt;stroke-linejoin:round"
             x="310.61002"
             xlink:href="#mf406a5e378"
             y="126.48753"
             id="use54"
             width="100%"
             height="100%" />
        </g>
      </g>
      <g
         id="PathCollection_10"
         style="stroke-linecap:butt;stroke-linejoin:round">
        <g
           clip-path="url(#p7cfb5ae46f)"
           id="g61"
           style="stroke-linecap:butt;stroke-linejoin:round">
          <use
             style="stroke:#000000;stroke-linecap:butt;stroke-linejoin:round"
             x="268.62885"
             xlink:href="#mf406a5e378"
             y="143.28"
             id="use59"
             width="100%"
             height="100%" />
        </g>
      </g>
      <g
         id="PathCollection_11"
         style="stroke-linecap:butt;stroke-linejoin:round">
        <g
           clip-path="url(#p7cfb5ae46f)"
           id="g66"
           style="stroke-linecap:butt;stroke-linejoin:round">
          <use
             style="stroke:#000000;stroke-linecap:butt;stroke-linejoin:round"
             x="247.63824"
             xlink:href="#mf406a5e378"
             y="160.07248"
             id="use64"
             width="100%"
             height="100%" />
        </g>
      </g>
      <g
         id="PathCollection_13"
         style="stroke-linecap:butt;stroke-linejoin:round">
        <g
           clip-path="url(#p7cfb5ae46f)"
           id="g76"
           style="stroke-linecap:butt;stroke-linejoin:round">
          <use
             style="stroke:#000000;stroke-linecap:butt;stroke-linejoin:round"
             x="352.59122"
             xlink:href="#mf406a5e378"
             y="143.28"
             id="use74"
             width="100%"
             height="100%" />
        </g>
      </g>
      <g
         id="PathCollection_14"
         style="stroke-linecap:butt;stroke-linejoin:round">
        <g
           clip-path="url(#p7cfb5ae46f)"
           id="g81"
           style="stroke-linecap:butt;stroke-linejoin:round">
          <use
             style="stroke:#000000;stroke-linecap:butt;stroke-linejoin:round"
             x="373.58182"
             xlink:href="#mf406a5e378"
             y="160.07248"
             id="use79"
             width="100%"
             height="100%" />
        </g>
      </g>
      <g
         id="PathCollection_15"
         style="stroke-linecap:butt;stroke-linejoin:round">
        <g
           clip-path="url(#p7cfb5ae46f)"
           id="g86"
           style="stroke-linecap:butt;stroke-linejoin:round">
          <use
             style="stroke:#000000;stroke-linecap:butt;stroke-linejoin:round"
             x="363.08652"
             xlink:href="#mf406a5e378"
             y="176.86496"
             id="use84"
             width="100%"
             height="100%" />
        </g>
      </g>
      <g
         id="line2d_1"
         style="stroke-linecap:butt;stroke-linejoin:round">
        <path
           clip-path="url(#p7cfb5ae46f)"
           d="m 226.64765,109.69505 -83.96238,16.79247"
           style="fill:none;stroke:#1f77b4;stroke-width:1.5;stroke-linecap:square;stroke-linejoin:round"
           id="path89"
           inkscape:connector-curvature="0" />
      </g>
      <g
         id="line2d_2"
         style="stroke-linecap:butt;stroke-linejoin:round">
        <path
           clip-path="url(#p7cfb5ae46f)"
           d="M 142.68527,126.48752 100.70408,143.28"
           style="fill:none;stroke:#ff7f0e;stroke-width:1.5;stroke-linecap:square;stroke-linejoin:round"
           id="path92"
           inkscape:connector-curvature="0" />
      </g>
      <g
         id="line2d_3"
         style="stroke-linecap:butt;stroke-linejoin:round">
        <path
           clip-path="url(#p7cfb5ae46f)"
           d="m 100.70408,143.28 -20.9906,16.79248"
           style="fill:none;stroke:#2ca02c;stroke-width:1.5;stroke-linecap:square;stroke-linejoin:round"
           id="path95"
           inkscape:connector-curvature="0" />
      </g>
      <g
         id="line2d_4"
         style="stroke-linecap:butt;stroke-linejoin:round">
        <path
           clip-path="url(#p7cfb5ae46f)"
           d="M 79.71348,160.07248 69.218182,176.86495"
           style="fill:none;stroke:#d62728;stroke-width:1.5;stroke-linecap:square;stroke-linejoin:round"
           id="path98"
           inkscape:connector-curvature="0" />
      </g>
      <g
         id="line2d_5"
         style="stroke-linecap:butt;stroke-linejoin:round">
        <path
           clip-path="url(#p7cfb5ae46f)"
           d="m 79.71348,160.07248 10.495297,16.79247"
           style="fill:none;stroke:#9467bd;stroke-width:1.5;stroke-linecap:square;stroke-linejoin:round"
           id="path101"
           inkscape:connector-curvature="0" />
      </g>
      <g
         id="line2d_6"
         style="stroke-linecap:butt;stroke-linejoin:round">
        <path
           clip-path="url(#p7cfb5ae46f)"
           d="M 142.68527,126.48752 184.66646,143.28"
           style="fill:none;stroke:#8c564b;stroke-width:1.5;stroke-linecap:square;stroke-linejoin:round"
           id="path104"
           inkscape:connector-curvature="0" />
      </g>
      <g
         id="line2d_7"
         style="stroke-linecap:butt;stroke-linejoin:round">
        <path
           clip-path="url(#p7cfb5ae46f)"
           d="m 184.66646,143.28 20.99059,16.79248"
           style="fill:none;stroke:#e377c2;stroke-width:1.5;stroke-linecap:square;stroke-linejoin:round"
           id="path107"
           inkscape:connector-curvature="0" />
      </g>
      <g
         id="line2d_8"
         style="stroke-linecap:butt;stroke-linejoin:round">
        <path
           clip-path="url(#p7cfb5ae46f)"
           d="m 226.64765,109.69505 83.96238,16.79247"
           style="fill:none;stroke:#7f7f7f;stroke-width:1.5;stroke-linecap:square;stroke-linejoin:round"
           id="path110"
           inkscape:connector-curvature="0" />
      </g>
      <g
         id="line2d_9"
         style="stroke-linecap:butt;stroke-linejoin:round">
        <path
           clip-path="url(#p7cfb5ae46f)"
           d="M 310.61003,126.48752 268.62884,143.28"
           style="fill:none;stroke:#bcbd22;stroke-width:1.5;stroke-linecap:square;stroke-linejoin:round"
           id="path113"
           inkscape:connector-curvature="0" />
      </g>
      <g
         id="line2d_10"
         style="stroke-linecap:butt;stroke-linejoin:round">
        <path
           clip-path="url(#p7cfb5ae46f)"
           d="m 268.62884,143.28 -20.9906,16.79248"
           style="fill:none;stroke:#17becf;stroke-width:1.5;stroke-linecap:square;stroke-linejoin:round"
           id="path116"
           inkscape:connector-curvature="0" />
      </g>
      <g
         id="line2d_12"
         style="stroke-linecap:butt;stroke-linejoin:round">
        <path
           clip-path="url(#p7cfb5ae46f)"
           d="M 310.61003,126.48752 352.59122,143.28"
           style="fill:none;stroke:#ff7f0e;stroke-width:1.5;stroke-linecap:square;stroke-linejoin:round"
           id="path122"
           inkscape:connector-curvature="0" />
      </g>
      <g
         id="line2d_13"
         style="stroke-linecap:butt;stroke-linejoin:round">
        <path
           clip-path="url(#p7cfb5ae46f)"
           d="m 352.59122,143.28 20.9906,16.79248"
           style="fill:none;stroke:#2ca02c;stroke-width:1.5;stroke-linecap:square;stroke-linejoin:round"
           id="path125"
           inkscape:connector-curvature="0" />
      </g>
      <g
         id="line2d_14"
         style="stroke-linecap:butt;stroke-linejoin:round">
        <path
           clip-path="url(#p7cfb5ae46f)"
           d="m 373.58182,160.07248 -10.4953,16.79247"
           style="fill:none;stroke:#d62728;stroke-width:1.5;stroke-linecap:square;stroke-linejoin:round"
           id="path128"
           inkscape:connector-curvature="0" />
      </g>
      <g
         id="text_1"
         style="stroke-linecap:butt;stroke-linejoin:round">
        <!-- 37 -->
        <g
           transform="matrix(0.1,0,0,-0.1,230.84577,109.69505)"
           id="g139"
           style="stroke-linecap:butt;stroke-linejoin:round">
          <defs
             id="defs133">
            <path
               d="M 40.578125,39.3125 Q 47.65625,37.796875 51.625,33 q 3.984375,-4.78125 3.984375,-11.8125 0,-10.78125 -7.421875,-16.703125 -7.421875,-5.90625 -21.09375,-5.90625 -4.578125,0 -9.4375,0.90625 -4.859375,0.90625 -10.03125,2.71875 v 9.515625 q 4.09375,-2.390625 8.96875,-3.609375 4.890625,-1.21875 10.21875,-1.21875 9.265625,0 14.125,3.65625 4.859375,3.65625 4.859375,10.640625 0,6.453125 -4.515625,10.078125 -4.515625,3.640625 -12.5625,3.640625 h -8.5 v 8.109375 h 8.890625 q 7.265625,0 11.125,2.90625 3.859375,2.90625 3.859375,8.375 0,5.609375 -3.984375,8.609375 -3.96875,3.015625 -11.390625,3.015625 -4.0625,0 -8.703125,-0.890625 Q 15.375,64.15625 9.8125,62.3125 v 8.78125 q 5.625,1.5625 10.53125,2.34375 4.90625,0.78125 9.25,0.78125 11.234375,0 17.765625,-5.109375 6.546875,-5.09375 6.546875,-13.78125 0,-6.0625 -3.46875,-10.234375 -3.46875,-4.171875 -9.859375,-5.78125 z"
               id="DejaVuSans-51"
               inkscape:connector-curvature="0"
               style="stroke-linecap:butt;stroke-linejoin:round" />
            <path
               d="m 8.203125,72.90625 h 46.875 V 68.703125 L 28.609375,0 H 18.3125 L 43.21875,64.59375 H 8.203125 Z"
               id="DejaVuSans-55"
               inkscape:connector-curvature="0"
               style="stroke-linecap:butt;stroke-linejoin:round" />
          </defs>
          <use
             xlink:href="#DejaVuSans-51"
             id="use135"
             style="stroke-linecap:butt;stroke-linejoin:round"
             x="0"
             y="0"
             width="100%"
             height="100%" />
          <use
             x="63.623047"
             xlink:href="#DejaVuSans-55"
             id="use137"
             style="stroke-linecap:butt;stroke-linejoin:round"
             y="0"
             width="100%"
             height="100%" />
        </g>
      </g>
      <g
         id="text_2"
         transform="translate(-9.4001732,-6.6023803)"
         style="stroke-linecap:butt;stroke-linejoin:round">
        <!-- 12 -->
        <g
           transform="matrix(0.1,0,0,-0.1,146.88339,126.48752)"
           id="g150"
           style="stroke-linecap:butt;stroke-linejoin:round">
          <defs
             id="defs144">
            <path
               d="m 12.40625,8.296875 h 16.109375 v 55.625 L 10.984375,60.40625 v 8.984375 l 17.4375,3.515625 H 38.28125 V 8.296875 H 54.390625 V 0 H 12.40625 Z"
               id="DejaVuSans-49"
               inkscape:connector-curvature="0"
               style="stroke-linecap:butt;stroke-linejoin:round" />
            <path
               d="M 19.1875,8.296875 H 53.609375 V 0 H 7.328125 v 8.296875 q 5.609375,5.8125 15.296875,15.59375 9.703125,9.796875 12.1875,12.640625 4.734375,5.3125 6.609375,9 1.890625,3.6875 1.890625,7.25 0,5.8125 -4.078125,9.46875 -4.078125,3.671875 -10.625,3.671875 -4.640625,0 -9.796875,-1.609375 -5.140625,-1.609375 -11,-4.890625 v 9.96875 Q 13.765625,71.78125 18.9375,73 q 5.1875,1.21875 9.484375,1.21875 11.328125,0 18.0625,-5.671875 6.734375,-5.65625 6.734375,-15.125 0,-4.5 -1.6875,-8.53125 Q 49.859375,40.875 45.40625,35.40625 44.1875,33.984375 37.640625,27.21875 31.109375,20.453125 19.1875,8.296875 Z"
               id="DejaVuSans-50"
               inkscape:connector-curvature="0"
               style="stroke-linecap:butt;stroke-linejoin:round" />
          </defs>
          <use
             xlink:href="#DejaVuSans-49"
             id="use146"
             style="stroke-linecap:butt;stroke-linejoin:round"
             x="0"
             y="0"
             width="100%"
             height="100%" />
          <use
             x="63.623047"
             xlink:href="#DejaVuSans-50"
             id="use148"
             style="stroke-linecap:butt;stroke-linejoin:round"
             y="0"
             width="100%"
             height="100%" />
        </g>
      </g>
      <g
         id="text_3"
         style="stroke-linecap:butt;stroke-linejoin:round">
        <!-- 9 -->
        <g
           transform="matrix(0.1,0,0,-0.1,104.90219,143.28)"
           id="g158"
           style="stroke-linecap:butt;stroke-linejoin:round">
          <defs
             id="defs154">
            <path
               d="M 10.984375,1.515625 V 10.5 Q 14.703125,8.734375 18.5,7.8125 q 3.8125,-0.921875 7.484375,-0.921875 9.765625,0 14.90625,6.5625 5.15625,6.5625 5.890625,19.953125 -2.828125,-4.203125 -7.1875,-6.453125 -4.34375,-2.25 -9.609375,-2.25 -10.9375,0 -17.3125,6.609375 -6.375,6.625 -6.375,18.109375 0,11.21875 6.640625,18 6.640625,6.796875 17.671875,6.796875 12.65625,0 19.3125,-9.703125 6.671875,-9.6875 6.671875,-28.140625 0,-17.234375 -8.1875,-27.515625 -8.171875,-10.28125 -21.984375,-10.28125 -3.71875,0 -7.53125,0.734375 -3.796875,0.734375 -7.90625,2.203125 z m 19.625,30.90625 q 6.640625,0 10.515625,4.53125 3.890625,4.546875 3.890625,12.46875 0,7.859375 -3.890625,12.421875 -3.875,4.5625 -10.515625,4.5625 -6.640625,0 -10.515625,-4.5625 -3.875,-4.5625 -3.875,-12.421875 0,-7.921875 3.875,-12.46875 3.875,-4.53125 10.515625,-4.53125 z"
               id="DejaVuSans-57"
               inkscape:connector-curvature="0"
               style="stroke-linecap:butt;stroke-linejoin:round" />
          </defs>
          <use
             xlink:href="#DejaVuSans-57"
             id="use156"
             style="stroke-linecap:butt;stroke-linejoin:round"
             x="0"
             y="0"
             width="100%"
             height="100%" />
        </g>
      </g>
      <g
         id="text_4"
         style="stroke-linecap:butt;stroke-linejoin:round">
        <!-- 5 -->
        <g
           transform="matrix(0.1,0,0,-0.1,83.911599,160.07248)"
           id="g166"
           style="stroke-linecap:butt;stroke-linejoin:round">
          <defs
             id="defs162">
            <path
               d="m 10.796875,72.90625 h 38.71875 v -8.3125 h -29.6875 V 46.734375 q 2.140625,0.734375 4.28125,1.09375 2.15625,0.359375 4.3125,0.359375 Q 40.625,48.1875 47.75,41.5 54.890625,34.8125 54.890625,23.390625 54.890625,11.625 47.5625,5.09375 40.234375,-1.421875 26.90625,-1.421875 q -4.59375,0 -9.359375,0.78125 -4.75,0.78125 -9.828125,2.34375 V 11.625 q 4.390625,-2.390625 9.078125,-3.5625 4.6875,-1.171875 9.90625,-1.171875 8.453125,0 13.375,4.4375 4.9375,4.4375 4.9375,12.0625 0,7.609375 -4.9375,12.046875 -4.921875,4.453125 -13.375,4.453125 -3.953125,0 -7.890625,-0.875 -3.921875,-0.875 -8.015625,-2.734375 z"
               id="DejaVuSans-53"
               inkscape:connector-curvature="0"
               style="stroke-linecap:butt;stroke-linejoin:round" />
          </defs>
          <use
             xlink:href="#DejaVuSans-53"
             id="use164"
             style="stroke-linecap:butt;stroke-linejoin:round"
             x="0"
             y="0"
             width="100%"
             height="100%" />
        </g>
      </g>
      <g
         id="text_5"
         style="stroke-linecap:butt;stroke-linejoin:round">
        <!-- 1 -->
        <g
           transform="matrix(0.1,0,0,-0.1,73.416301,176.86495)"
           id="g171"
           style="stroke-linecap:butt;stroke-linejoin:round">
          <use
             xlink:href="#DejaVuSans-49"
             id="use169"
             style="stroke-linecap:butt;stroke-linejoin:round"
             x="0"
             y="0"
             width="100%"
             height="100%" />
        </g>
      </g>
      <g
         id="text_6"
         style="stroke-linecap:butt;stroke-linejoin:round">
        <!-- 6 -->
        <g
           transform="matrix(0.1,0,0,-0.1,94.406897,176.86495)"
           id="g179"
           style="stroke-linecap:butt;stroke-linejoin:round">
          <defs
             id="defs175">
            <path
               d="m 33.015625,40.375 q -6.640625,0 -10.53125,-4.546875 -3.875,-4.53125 -3.875,-12.4375 0,-7.859375 3.875,-12.4375 3.890625,-4.5625 10.53125,-4.5625 6.640625,0 10.515625,4.5625 3.875,4.578125 3.875,12.4375 0,7.90625 -3.875,12.4375 Q 39.65625,40.375 33.015625,40.375 Z M 52.59375,71.296875 V 62.3125 q -3.71875,1.75 -7.5,2.671875 -3.78125,0.9375 -7.5,0.9375 -9.765625,0 -14.921875,-6.59375 -5.140625,-6.59375 -5.875,-19.921875 2.875,4.25 7.21875,6.515625 4.359375,2.265625 9.578125,2.265625 10.984375,0 17.359375,-6.671875 6.375,-6.65625 6.375,-18.125 0,-11.234375 -6.640625,-18.03125 -6.640625,-6.78125 -17.671875,-6.78125 -12.65625,0 -19.34375,9.6875 -6.6875,9.703125 -6.6875,28.109375 0,17.28125 8.203125,27.5625 8.203125,10.28125 22.015625,10.28125 3.71875,0 7.5,-0.734375 3.78125,-0.734375 7.890625,-2.1875 z"
               id="DejaVuSans-54"
               inkscape:connector-curvature="0"
               style="stroke-linecap:butt;stroke-linejoin:round" />
          </defs>
          <use
             xlink:href="#DejaVuSans-54"
             id="use177"
             style="stroke-linecap:butt;stroke-linejoin:round"
             x="0"
             y="0"
             width="100%"
             height="100%" />
        </g>
      </g>
      <g
         id="text_7"
         style="stroke-linecap:butt;stroke-linejoin:round">
        <!-- 16 -->
        <g
           transform="matrix(0.1,0,0,-0.1,188.86458,143.28)"
           id="g186"
           style="stroke-linecap:butt;stroke-linejoin:round">
          <use
             xlink:href="#DejaVuSans-49"
             id="use182"
             style="stroke-linecap:butt;stroke-linejoin:round"
             x="0"
             y="0"
             width="100%"
             height="100%" />
          <use
             x="63.623047"
             xlink:href="#DejaVuSans-54"
             id="use184"
             style="stroke-linecap:butt;stroke-linejoin:round"
             y="0"
             width="100%"
             height="100%" />
        </g>
      </g>
      <g
         id="text_8"
         style="stroke-linecap:butt;stroke-linejoin:round">
        <!-- 25 -->
        <g
           transform="matrix(0.1,0,0,-0.1,209.85517,160.07248)"
           id="g193"
           style="stroke-linecap:butt;stroke-linejoin:round">
          <use
             xlink:href="#DejaVuSans-50"
             id="use189"
             style="stroke-linecap:butt;stroke-linejoin:round"
             x="0"
             y="0"
             width="100%"
             height="100%" />
          <use
             x="63.623047"
             xlink:href="#DejaVuSans-53"
             id="use191"
             style="stroke-linecap:butt;stroke-linejoin:round"
             y="0"
             width="100%"
             height="100%" />
        </g>
      </g>
      <g
         id="text_10"
         style="stroke-linecap:butt;stroke-linejoin:round">
        <!-- 64 -->
        <g
           transform="matrix(0.1,0,0,-0.1,272.82696,143.28)"
           id="g210"
           style="stroke-linecap:butt;stroke-linejoin:round">
          <defs
             id="defs204">
            <path
               d="M 37.796875,64.3125 12.890625,25.390625 h 24.90625 z m -2.59375,8.59375 h 12.40625 V 25.390625 h 10.40625 V 17.1875 H 47.609375 V 0 h -9.8125 V 17.1875 H 4.890625 v 9.515625 z"
               id="DejaVuSans-52"
               inkscape:connector-curvature="0"
               style="stroke-linecap:butt;stroke-linejoin:round" />
          </defs>
          <use
             xlink:href="#DejaVuSans-54"
             id="use206"
             style="stroke-linecap:butt;stroke-linejoin:round"
             x="0"
             y="0"
             width="100%"
             height="100%" />
          <use
             x="63.623047"
             xlink:href="#DejaVuSans-52"
             id="use208"
             style="stroke-linecap:butt;stroke-linejoin:round"
             y="0"
             width="100%"
             height="100%" />
        </g>
      </g>
      <g
         id="text_11"
         style="stroke-linecap:butt;stroke-linejoin:round">
        <!-- 50 -->
        <g
           transform="matrix(0.1,0,0,-0.1,251.83636,160.07248)"
           id="g220"
           style="stroke-linecap:butt;stroke-linejoin:round">
          <defs
             id="defs214">
            <path
               d="m 31.78125,66.40625 q -7.609375,0 -11.453125,-7.5 Q 16.5,51.421875 16.5,36.375 q 0,-14.984375 3.828125,-22.484375 3.84375,-7.5 11.453125,-7.5 7.671875,0 11.5,7.5 3.84375,7.5 3.84375,22.484375 0,15.046875 -3.84375,22.53125 -3.828125,7.5 -11.5,7.5 z m 0,7.8125 q 12.265625,0 18.734375,-9.703125 6.46875,-9.6875 6.46875,-28.140625 0,-18.40625 -6.46875,-28.109375 -6.46875,-9.6875 -18.734375,-9.6875 -12.25,0 -18.71875,9.6875 Q 6.59375,17.96875 6.59375,36.375 q 0,18.453125 6.46875,28.140625 6.46875,9.703125 18.71875,9.703125 z"
               id="DejaVuSans-48"
               inkscape:connector-curvature="0"
               style="stroke-linecap:butt;stroke-linejoin:round" />
          </defs>
          <use
             xlink:href="#DejaVuSans-53"
             id="use216"
             style="stroke-linecap:butt;stroke-linejoin:round"
             x="0"
             y="0"
             width="100%"
             height="100%" />
          <use
             x="63.623047"
             xlink:href="#DejaVuSans-48"
             id="use218"
             style="stroke-linecap:butt;stroke-linejoin:round"
             y="0"
             width="100%"
             height="100%" />
        </g>
      </g>
      <g
         id="text_12"
         style="stroke-linecap:butt;stroke-linejoin:round"
         transform="translate(12.764602,-43.135551)">
        <!-- 71 -->
        <g
           transform="matrix(0.1,0,0,-0.1,293.81756,160.07248)"
           id="g227"
           style="stroke-linecap:butt;stroke-linejoin:round">
          <use
             xlink:href="#DejaVuSans-55"
             id="use223"
             style="stroke-linecap:butt;stroke-linejoin:round"
             x="0"
             y="0"
             width="100%"
             height="100%" />
          <use
             x="63.623047"
             xlink:href="#DejaVuSans-49"
             id="use225"
             style="stroke-linecap:butt;stroke-linejoin:round"
             y="0"
             width="100%"
             height="100%" />
        </g>
      </g>
      <g
         id="text_13"
         style="stroke-linecap:butt;stroke-linejoin:round">
        <!-- 75 -->
        <g
           transform="matrix(0.1,0,0,-0.1,356.78934,143.28)"
           id="g234"
           style="stroke-linecap:butt;stroke-linejoin:round">
          <use
             xlink:href="#DejaVuSans-55"
             id="use230"
             style="stroke-linecap:butt;stroke-linejoin:round"
             x="0"
             y="0"
             width="100%"
             height="100%" />
          <use
             x="63.623047"
             xlink:href="#DejaVuSans-53"
             id="use232"
             style="stroke-linecap:butt;stroke-linejoin:round"
             y="0"
             width="100%"
             height="100%" />
        </g>
      </g>
      <g
         id="text_14"
         style="stroke-linecap:butt;stroke-linejoin:round">
        <!-- 79 -->
        <g
           transform="matrix(0.1,0,0,-0.1,377.77994,160.07248)"
           id="g241"
           style="stroke-linecap:butt;stroke-linejoin:round">
          <use
             xlink:href="#DejaVuSans-55"
             id="use237"
             style="stroke-linecap:butt;stroke-linejoin:round"
             x="0"
             y="0"
             width="100%"
             height="100%" />
          <use
             x="63.623047"
             xlink:href="#DejaVuSans-57"
             id="use239"
             style="stroke-linecap:butt;stroke-linejoin:round"
             y="0"
             width="100%"
             height="100%" />
        </g>
      </g>
      <g
         id="text_15"
         style="stroke-linecap:butt;stroke-linejoin:round">
        <!-- 76 -->
        <g
           transform="matrix(0.1,0,0,-0.1,367.28464,176.86495)"
           id="g248"
           style="stroke-linecap:butt;stroke-linejoin:round">
          <use
             xlink:href="#DejaVuSans-55"
             id="use244"
             style="stroke-linecap:butt;stroke-linejoin:round"
             x="0"
             y="0"
             width="100%"
             height="100%" />
          <use
             x="63.623047"
             xlink:href="#DejaVuSans-54"
             id="use246"
             style="stroke-linecap:butt;stroke-linejoin:round"
             y="0"
             width="100%"
             height="100%" />
        </g>
      </g>
      <text
         xml:space="preserve"
         style="font-style:normal;font-weight:normal;font-size:15.99999905px;line-height:1.25;font-family:sans-serif;letter-spacing:0px;word-spacing:0px;fill:#000000;fill-opacity:1;stroke:none;stroke-width:0.75;stroke-linecap:butt;stroke-linejoin:round"
         x="59.585835"
         y="8.9518671"
         id="text384"><tspan
           sodipodi:role="line"
           id="tspan382"
           style="font-size:12px;stroke-width:0.75;stroke-linecap:butt;stroke-linejoin:round"
           x="59.585835"
           y="8.9518671">* Removing leaf nodes is trivial</tspan><tspan
           sodipodi:role="line"
           style="font-size:12px;stroke-width:0.75;stroke-linecap:butt;stroke-linejoin:round"
           x="59.585835"
           y="28.951866"
           id="tspan408">* Removing a node with a single child amounts to simply reassigning</tspan><tspan
           sodipodi:role="line"
           style="font-size:12px;stroke-width:0.75;stroke-linecap:butt;stroke-linejoin:round"
           x="59.585835"
           y="48.951866"
           id="tspan410">that child's parent to be the node's parent</tspan></text>
      <text
         xml:space="preserve"
         style="font-style:normal;font-weight:normal;font-size:16px;line-height:1.25;font-family:sans-serif;letter-spacing:0px;word-spacing:0px;fill:#000000;fill-opacity:1;stroke:none;stroke-width:0.75;stroke-linecap:butt;stroke-linejoin:round"
         x="49.282597"
         y="-22.950071"
         id="text428"><tspan
           sodipodi:role="line"
           id="tspan426"
           style="stroke-width:0.75;stroke-linecap:butt;stroke-linejoin:round"
           x="49.282597"
           y="-22.950071">Binary Search Tree Removal</tspan></text>
    </g>
  </g>
  <defs
     id="defs256">
    <clipPath
       id="p7cfb5ae46f"
       style="stroke-linecap:butt;stroke-linejoin:round">
      <rect
         height="217.44"
         width="334.79999"
         x="54"
         y="34.560001"
         id="rect253"
         style="stroke-linecap:butt;stroke-linejoin:round" />
    </clipPath>
  </defs>
  <text
     xml:space="preserve"
     style="font-style:normal;font-weight:normal;font-size:32px;line-height:1.25;font-family:sans-serif;letter-spacing:0px;word-spacing:0px;fill:#000000;fill-opacity:1;stroke:none;stroke-width:0.75;stroke-linecap:butt;stroke-linejoin:round"
     x="97.337631"
     y="67.311554"
     id="text264"><tspan
       sodipodi:role="line"
       id="tspan262"
       style="font-size:12px;stroke-width:0.75;stroke-linecap:butt;stroke-linejoin:round"
       x="97.337631"
       y="95.624054" /></text>
  <text
     xml:space="preserve"
     style="font-style:normal;font-weight:normal;font-size:16px;line-height:1.25;font-family:sans-serif;letter-spacing:0px;word-spacing:0px;fill:#000000;fill-opacity:1;stroke:none;stroke-width:0.75;stroke-linecap:butt;stroke-linejoin:round"
     x="85.013199"
     y="240.29393"
     id="text330"><tspan
       sodipodi:role="line"
       id="tspan328"
       style="stroke-width:0.75;stroke-linecap:butt;stroke-linejoin:round"
       x="85.013199"
       y="254.45018" /></text>
  <text
     xml:space="preserve"
     style="font-style:normal;font-weight:normal;font-size:16px;line-height:1.25;font-family:sans-serif;letter-spacing:0px;word-spacing:0px;fill:#000000;fill-opacity:1;stroke:none;stroke-width:0.75;stroke-linecap:butt;stroke-linejoin:round"
     x="62.244694"
     y="252.20412"
     id="text414"><tspan
       sodipodi:role="line"
       id="tspan412"
       style="font-size:12px;stroke-width:0.75;stroke-linecap:butt;stroke-linejoin:round"
       x="62.244694"
       y="252.20412">* If I want to remove a node that has two children</tspan><tspan
       sodipodi:role="line"
       style="font-size:12px;stroke-width:0.75;stroke-linecap:butt;stroke-linejoin:round"
       x="62.244694"
       y="272.20413"
       id="tspan418">1. Find the node in the left subtree with the greatest value</tspan><tspan
       sodipodi:role="line"
       style="font-size:12px;stroke-width:0.75;stroke-linecap:butt;stroke-linejoin:round"
       x="62.244694"
       y="292.20413"
       id="tspan422">2. Swap this value with the value to be removed</tspan><tspan
       sodipodi:role="line"
       style="font-size:12px;stroke-width:0.75;stroke-linecap:butt;stroke-linejoin:round"
       x="62.244694"
       y="312.20413"
       id="tspan424">3. Remove the key that we want to remove.  We're guaranteed</tspan><tspan
       sodipodi:role="line"
       style="font-size:12px;stroke-width:0.75;stroke-linecap:butt;stroke-linejoin:round"
       x="62.244694"
       y="332.20413"
       id="tspan430">that this has at most one child in its reassigned position, so we</tspan><tspan
       sodipodi:role="line"
       style="font-size:12px;stroke-width:0.75;stroke-linecap:butt;stroke-linejoin:round"
       x="62.244694"
       y="352.20413"
       id="tspan432">can use the previous two cases we established</tspan></text>
</svg>
