<?xml version="1.0" encoding="UTF-8" standalone="no"?>
<!-- Created with matplotlib (https://matplotlib.org/) -->

<svg
   xmlns:dc="http://purl.org/dc/elements/1.1/"
   xmlns:cc="http://creativecommons.org/ns#"
   xmlns:rdf="http://www.w3.org/1999/02/22-rdf-syntax-ns#"
   xmlns:svg="http://www.w3.org/2000/svg"
   xmlns="http://www.w3.org/2000/svg"
   xmlns:xlink="http://www.w3.org/1999/xlink"
   xmlns:sodipodi="http://sodipodi.sourceforge.net/DTD/sodipodi-0.dtd"
   xmlns:inkscape="http://www.inkscape.org/namespaces/inkscape"
   height="231.84pt"
   version="1.1"
   viewBox="0 0 351.77954 231.84"
   width="351.77954pt"
   id="svg218"
   sodipodi:docname="Tree.svg"
   inkscape:version="0.92.5 (2060ec1f9f, 2020-04-08)">
  <sodipodi:namedview
     pagecolor="#ffffff"
     bordercolor="#666666"
     borderopacity="1"
     objecttolerance="10"
     gridtolerance="10"
     guidetolerance="10"
     inkscape:pageopacity="0"
     inkscape:pageshadow="2"
     inkscape:window-width="1108"
     inkscape:window-height="767"
     id="namedview220"
     showgrid="false"
     fit-margin-top="0"
     fit-margin-left="0"
     fit-margin-right="0"
     fit-margin-bottom="0"
     inkscape:zoom="1.0462492"
     inkscape:cx="53.514369"
     inkscape:cy="212.57667"
     inkscape:window-x="2309"
     inkscape:window-y="131"
     inkscape:window-maximized="0"
     inkscape:current-layer="svg218">
    <inkscape:grid
       type="xygrid"
       id="grid1109"
       originx="0"
       originy="3.0321782e-06" />
  </sodipodi:namedview>
  <metadata
     id="metadata2">
    <rdf:RDF>
      <cc:Work>
        <dc:type
           rdf:resource="http://purl.org/dc/dcmitype/StillImage" />
        <dc:date>2021-03-31T20:45:36.759583</dc:date>
        <dc:format>image/svg+xml</dc:format>
        <dc:creator>
          <cc:Agent>
            <dc:title>Matplotlib v3.3.3, https://matplotlib.org/</dc:title>
          </cc:Agent>
        </dc:creator>
        <dc:title></dc:title>
      </cc:Work>
    </rdf:RDF>
  </metadata>
  <defs
     id="defs6"
     style="stroke-linecap:butt;stroke-linejoin:round">
    <style
       type="text/css"
       id="style4">*{stroke-linecap:butt;stroke-linejoin:round;}</style>
  </defs>
  <g
     id="figure_1"
     style="stroke-linecap:butt;stroke-linejoin:round">
    <g
       id="patch_1"
       style="stroke-linecap:butt;stroke-linejoin:round">
      <path
         d="M 0,231.84 H 351.77954 V 0 H 0 Z"
         style="fill:none;stroke-linecap:butt;stroke-linejoin:round"
         id="path8"
         inkscape:connector-curvature="0" />
    </g>
    <g
       id="axes_1"
       style="stroke-linecap:butt;stroke-linejoin:round">
      <g
         id="PathCollection_1"
         style="stroke-linecap:butt;stroke-linejoin:round">
        <defs
           id="defs12">
          <path
             d="M 0,5 C 1.326016,5 2.597899,4.473168 3.535534,3.535534 4.473168,2.597899 5,1.326016 5,0 5,-1.326016 4.473168,-2.597899 3.535534,-3.535534 2.597899,-4.473168 1.326016,-5 0,-5 -1.326016,-5 -2.597899,-4.473168 -3.535534,-3.535534 -4.473168,-2.597899 -5,-1.326016 -5,0 -5,1.326016 -4.473168,2.597899 -3.535534,3.535534 -2.597899,4.473168 -1.326016,5 0,5 Z"
             id="m8044ff8a5c"
             style="stroke:#000000;stroke-linecap:butt;stroke-linejoin:round"
             inkscape:connector-curvature="0" />
        </defs>
        <g
           clip-path="url(#p7692aa8bee)"
           id="g16"
           style="stroke-linecap:butt;stroke-linejoin:round">
          <use
             style="stroke:#000000;stroke-linecap:butt;stroke-linejoin:round"
             x="174.60001"
             xlink:href="#m8044ff8a5c"
             y="65.192726"
             id="use14"
             width="100%"
             height="100%" />
        </g>
      </g>
      <g
         id="PathCollection_2"
         style="stroke-linecap:butt;stroke-linejoin:round">
        <g
           clip-path="url(#p7692aa8bee)"
           id="g21"
           style="stroke-linecap:butt;stroke-linejoin:round">
          <use
             style="stroke:#000000;stroke-linecap:butt;stroke-linejoin:round"
             x="73.145454"
             xlink:href="#m8044ff8a5c"
             y="85.483635"
             id="use19"
             width="100%"
             height="100%" />
        </g>
      </g>
      <g
         id="PathCollection_3"
         style="stroke-linecap:butt;stroke-linejoin:round">
        <g
           clip-path="url(#p7692aa8bee)"
           id="g26"
           style="stroke-linecap:butt;stroke-linejoin:round">
          <use
             style="stroke:#000000;stroke-linecap:butt;stroke-linejoin:round"
             x="22.418182"
             xlink:href="#m8044ff8a5c"
             y="105.77454"
             id="use24"
             width="100%"
             height="100%" />
        </g>
      </g>
      <g
         id="PathCollection_4"
         style="stroke-linecap:butt;stroke-linejoin:round">
        <g
           clip-path="url(#p7692aa8bee)"
           id="g31"
           style="stroke-linecap:butt;stroke-linejoin:round">
          <use
             style="stroke:#000000;stroke-linecap:butt;stroke-linejoin:round"
             x="123.87273"
             xlink:href="#m8044ff8a5c"
             y="105.77454"
             id="use29"
             width="100%"
             height="100%" />
        </g>
      </g>
      <g
         id="PathCollection_5"
         style="stroke-linecap:butt;stroke-linejoin:round">
        <g
           clip-path="url(#p7692aa8bee)"
           id="g36"
           style="stroke-linecap:butt;stroke-linejoin:round">
          <use
             style="stroke:#000000;stroke-linecap:butt;stroke-linejoin:round"
             x="98.509094"
             xlink:href="#m8044ff8a5c"
             y="126.06545"
             id="use34"
             width="100%"
             height="100%" />
        </g>
      </g>
      <g
         id="PathCollection_6"
         style="stroke-linecap:butt;stroke-linejoin:round">
        <g
           clip-path="url(#p7692aa8bee)"
           id="g41"
           style="stroke-linecap:butt;stroke-linejoin:round">
          <use
             style="stroke:#000000;stroke-linecap:butt;stroke-linejoin:round"
             x="276.05453"
             xlink:href="#m8044ff8a5c"
             y="85.483635"
             id="use39"
             width="100%"
             height="100%" />
        </g>
      </g>
      <g
         id="PathCollection_7"
         style="stroke-linecap:butt;stroke-linejoin:round">
        <g
           clip-path="url(#p7692aa8bee)"
           id="g46"
           style="stroke-linecap:butt;stroke-linejoin:round">
          <use
             style="stroke:#000000;stroke-linecap:butt;stroke-linejoin:round"
             x="225.32727"
             xlink:href="#m8044ff8a5c"
             y="105.77454"
             id="use44"
             width="100%"
             height="100%" />
        </g>
      </g>
      <g
         id="PathCollection_8"
         style="stroke-linecap:butt;stroke-linejoin:round">
        <g
           clip-path="url(#p7692aa8bee)"
           id="g51"
           style="stroke-linecap:butt;stroke-linejoin:round">
          <use
             style="stroke:#000000;stroke-linecap:butt;stroke-linejoin:round"
             x="250.6909"
             xlink:href="#m8044ff8a5c"
             y="126.06545"
             id="use49"
             width="100%"
             height="100%" />
        </g>
      </g>
      <g
         id="PathCollection_9"
         style="stroke-linecap:butt;stroke-linejoin:round">
        <g
           clip-path="url(#p7692aa8bee)"
           id="g56"
           style="stroke-linecap:butt;stroke-linejoin:round">
          <use
             style="stroke:#000000;stroke-linecap:butt;stroke-linejoin:round"
             x="238.00909"
             xlink:href="#m8044ff8a5c"
             y="146.35637"
             id="use54"
             width="100%"
             height="100%" />
        </g>
      </g>
      <g
         id="PathCollection_10"
         style="stroke-linecap:butt;stroke-linejoin:round">
        <g
           clip-path="url(#p7692aa8bee)"
           id="g61"
           style="stroke-linecap:butt;stroke-linejoin:round">
          <use
             style="stroke:#000000;stroke-linecap:butt;stroke-linejoin:round"
             x="231.66818"
             xlink:href="#m8044ff8a5c"
             y="166.64728"
             id="use59"
             width="100%"
             height="100%" />
        </g>
      </g>
      <g
         id="PathCollection_11"
         style="stroke-linecap:butt;stroke-linejoin:round">
        <g
           clip-path="url(#p7692aa8bee)"
           id="g66"
           style="stroke-linecap:butt;stroke-linejoin:round">
          <use
             style="stroke:#000000;stroke-linecap:butt;stroke-linejoin:round"
             x="263.37274"
             xlink:href="#m8044ff8a5c"
             y="146.35637"
             id="use64"
             width="100%"
             height="100%" />
        </g>
      </g>
      <g
         id="PathCollection_12"
         style="stroke-linecap:butt;stroke-linejoin:round">
        <g
           clip-path="url(#p7692aa8bee)"
           id="g71"
           style="stroke-linecap:butt;stroke-linejoin:round">
          <use
             style="stroke:#000000;stroke-linecap:butt;stroke-linejoin:round"
             x="326.78183"
             xlink:href="#m8044ff8a5c"
             y="105.77454"
             id="use69"
             width="100%"
             height="100%" />
        </g>
      </g>
      <g
         id="line2d_1"
         style="stroke-linecap:butt;stroke-linejoin:round">
        <path
           clip-path="url(#p7692aa8bee)"
           d="M 174.6,65.192727 73.145455,85.483636"
           style="fill:none;stroke:#1f77b4;stroke-width:1.5;stroke-linecap:square;stroke-linejoin:round"
           id="path74"
           inkscape:connector-curvature="0" />
      </g>
      <g
         id="line2d_2"
         style="stroke-linecap:butt;stroke-linejoin:round">
        <path
           clip-path="url(#p7692aa8bee)"
           d="M 73.145455,85.483636 22.418182,105.77455"
           style="fill:none;stroke:#ff7f0e;stroke-width:1.5;stroke-linecap:square;stroke-linejoin:round"
           id="path77"
           inkscape:connector-curvature="0" />
      </g>
      <g
         id="line2d_3"
         style="stroke-linecap:butt;stroke-linejoin:round">
        <path
           clip-path="url(#p7692aa8bee)"
           d="M 73.145455,85.483636 123.87273,105.77455"
           style="fill:none;stroke:#2ca02c;stroke-width:1.5;stroke-linecap:square;stroke-linejoin:round"
           id="path80"
           inkscape:connector-curvature="0" />
      </g>
      <g
         id="line2d_4"
         style="stroke-linecap:butt;stroke-linejoin:round">
        <path
           clip-path="url(#p7692aa8bee)"
           d="M 123.87273,105.77455 98.509091,126.06546"
           style="fill:none;stroke:#d62728;stroke-width:1.5;stroke-linecap:square;stroke-linejoin:round"
           id="path83"
           inkscape:connector-curvature="0" />
      </g>
      <g
         id="line2d_5"
         style="stroke-linecap:butt;stroke-linejoin:round">
        <path
           clip-path="url(#p7692aa8bee)"
           d="M 174.6,65.192727 276.05455,85.483636"
           style="fill:none;stroke:#9467bd;stroke-width:1.5;stroke-linecap:square;stroke-linejoin:round"
           id="path86"
           inkscape:connector-curvature="0" />
      </g>
      <g
         id="line2d_6"
         style="stroke-linecap:butt;stroke-linejoin:round">
        <path
           clip-path="url(#p7692aa8bee)"
           d="M 276.05455,85.483636 225.32727,105.77455"
           style="fill:none;stroke:#8c564b;stroke-width:1.5;stroke-linecap:square;stroke-linejoin:round"
           id="path89"
           inkscape:connector-curvature="0" />
      </g>
      <g
         id="line2d_7"
         style="stroke-linecap:butt;stroke-linejoin:round">
        <path
           clip-path="url(#p7692aa8bee)"
           d="m 225.32727,105.77455 25.36364,20.29091"
           style="fill:none;stroke:#e377c2;stroke-width:1.5;stroke-linecap:square;stroke-linejoin:round"
           id="path92"
           inkscape:connector-curvature="0" />
      </g>
      <g
         id="line2d_8"
         style="stroke-linecap:butt;stroke-linejoin:round">
        <path
           clip-path="url(#p7692aa8bee)"
           d="m 250.69091,126.06546 -12.68182,20.2909"
           style="fill:none;stroke:#7f7f7f;stroke-width:1.5;stroke-linecap:square;stroke-linejoin:round"
           id="path95"
           inkscape:connector-curvature="0" />
      </g>
      <g
         id="line2d_9"
         style="stroke-linecap:butt;stroke-linejoin:round">
        <path
           clip-path="url(#p7692aa8bee)"
           d="m 238.00909,146.35636 -6.34091,20.29091"
           style="fill:none;stroke:#bcbd22;stroke-width:1.5;stroke-linecap:square;stroke-linejoin:round"
           id="path98"
           inkscape:connector-curvature="0" />
      </g>
      <g
         id="line2d_10"
         style="stroke-linecap:butt;stroke-linejoin:round">
        <path
           clip-path="url(#p7692aa8bee)"
           d="m 250.69091,126.06546 12.68182,20.2909"
           style="fill:none;stroke:#17becf;stroke-width:1.5;stroke-linecap:square;stroke-linejoin:round"
           id="path101"
           inkscape:connector-curvature="0" />
      </g>
      <g
         id="line2d_11"
         style="stroke-linecap:butt;stroke-linejoin:round">
        <path
           clip-path="url(#p7692aa8bee)"
           d="m 276.05455,85.483636 50.72727,20.290914"
           style="fill:none;stroke:#1f77b4;stroke-width:1.5;stroke-linecap:square;stroke-linejoin:round"
           id="path104"
           inkscape:connector-curvature="0" />
      </g>
      <g
         id="text_1"
         style="stroke-linecap:butt;stroke-linejoin:round">
        <!-- 10 -->
        <g
           transform="matrix(0.1,0,0,-0.1,179.67273,65.192727)"
           id="g115"
           style="stroke-linecap:butt;stroke-linejoin:round">
          <defs
             id="defs109">
            <path
               d="m 12.40625,8.296875 h 16.109375 v 55.625 L 10.984375,60.40625 v 8.984375 l 17.4375,3.515625 H 38.28125 V 8.296875 H 54.390625 V 0 H 12.40625 Z"
               id="DejaVuSans-49"
               inkscape:connector-curvature="0"
               style="stroke-linecap:butt;stroke-linejoin:round" />
            <path
               d="m 31.78125,66.40625 q -7.609375,0 -11.453125,-7.5 Q 16.5,51.421875 16.5,36.375 q 0,-14.984375 3.828125,-22.484375 3.84375,-7.5 11.453125,-7.5 7.671875,0 11.5,7.5 3.84375,7.5 3.84375,22.484375 0,15.046875 -3.84375,22.53125 -3.828125,7.5 -11.5,7.5 z m 0,7.8125 q 12.265625,0 18.734375,-9.703125 6.46875,-9.6875 6.46875,-28.140625 0,-18.40625 -6.46875,-28.109375 -6.46875,-9.6875 -18.734375,-9.6875 -12.25,0 -18.71875,9.6875 Q 6.59375,17.96875 6.59375,36.375 q 0,18.453125 6.46875,28.140625 6.46875,9.703125 18.71875,9.703125 z"
               id="DejaVuSans-48"
               inkscape:connector-curvature="0"
               style="stroke-linecap:butt;stroke-linejoin:round" />
          </defs>
          <use
             xlink:href="#DejaVuSans-49"
             id="use111"
             style="stroke-linecap:butt;stroke-linejoin:round"
             x="0"
             y="0"
             width="100%"
             height="100%" />
          <use
             x="63.623047"
             xlink:href="#DejaVuSans-48"
             id="use113"
             style="stroke-linecap:butt;stroke-linejoin:round"
             y="0"
             width="100%"
             height="100%" />
        </g>
      </g>
      <g
         id="text_2"
         style="stroke-linecap:butt;stroke-linejoin:round">
        <!-- 7 -->
        <g
           transform="matrix(0.1,0,0,-0.1,78.218182,85.483636)"
           id="g123"
           style="stroke-linecap:butt;stroke-linejoin:round">
          <defs
             id="defs119">
            <path
               d="m 8.203125,72.90625 h 46.875 V 68.703125 L 28.609375,0 H 18.3125 L 43.21875,64.59375 H 8.203125 Z"
               id="DejaVuSans-55"
               inkscape:connector-curvature="0"
               style="stroke-linecap:butt;stroke-linejoin:round" />
          </defs>
          <use
             xlink:href="#DejaVuSans-55"
             id="use121"
             style="stroke-linecap:butt;stroke-linejoin:round"
             x="0"
             y="0"
             width="100%"
             height="100%" />
        </g>
      </g>
      <g
         id="text_3"
         style="stroke-linecap:butt;stroke-linejoin:round">
        <!-- 3 -->
        <g
           transform="matrix(0.1,0,0,-0.1,27.490909,105.77455)"
           id="g131"
           style="stroke-linecap:butt;stroke-linejoin:round">
          <defs
             id="defs127">
            <path
               d="M 40.578125,39.3125 Q 47.65625,37.796875 51.625,33 q 3.984375,-4.78125 3.984375,-11.8125 0,-10.78125 -7.421875,-16.703125 -7.421875,-5.90625 -21.09375,-5.90625 -4.578125,0 -9.4375,0.90625 -4.859375,0.90625 -10.03125,2.71875 v 9.515625 q 4.09375,-2.390625 8.96875,-3.609375 4.890625,-1.21875 10.21875,-1.21875 9.265625,0 14.125,3.65625 4.859375,3.65625 4.859375,10.640625 0,6.453125 -4.515625,10.078125 -4.515625,3.640625 -12.5625,3.640625 h -8.5 v 8.109375 h 8.890625 q 7.265625,0 11.125,2.90625 3.859375,2.90625 3.859375,8.375 0,5.609375 -3.984375,8.609375 -3.96875,3.015625 -11.390625,3.015625 -4.0625,0 -8.703125,-0.890625 Q 15.375,64.15625 9.8125,62.3125 v 8.78125 q 5.625,1.5625 10.53125,2.34375 4.90625,0.78125 9.25,0.78125 11.234375,0 17.765625,-5.109375 6.546875,-5.09375 6.546875,-13.78125 0,-6.0625 -3.46875,-10.234375 -3.46875,-4.171875 -9.859375,-5.78125 z"
               id="DejaVuSans-51"
               inkscape:connector-curvature="0"
               style="stroke-linecap:butt;stroke-linejoin:round" />
          </defs>
          <use
             xlink:href="#DejaVuSans-51"
             id="use129"
             style="stroke-linecap:butt;stroke-linejoin:round"
             x="0"
             y="0"
             width="100%"
             height="100%" />
        </g>
      </g>
      <g
         id="text_4"
         style="stroke-linecap:butt;stroke-linejoin:round">
        <!-- 9 -->
        <g
           transform="matrix(0.1,0,0,-0.1,128.94545,105.77455)"
           id="g139"
           style="stroke-linecap:butt;stroke-linejoin:round">
          <defs
             id="defs135">
            <path
               d="M 10.984375,1.515625 V 10.5 Q 14.703125,8.734375 18.5,7.8125 q 3.8125,-0.921875 7.484375,-0.921875 9.765625,0 14.90625,6.5625 5.15625,6.5625 5.890625,19.953125 -2.828125,-4.203125 -7.1875,-6.453125 -4.34375,-2.25 -9.609375,-2.25 -10.9375,0 -17.3125,6.609375 -6.375,6.625 -6.375,18.109375 0,11.21875 6.640625,18 6.640625,6.796875 17.671875,6.796875 12.65625,0 19.3125,-9.703125 6.671875,-9.6875 6.671875,-28.140625 0,-17.234375 -8.1875,-27.515625 -8.171875,-10.28125 -21.984375,-10.28125 -3.71875,0 -7.53125,0.734375 -3.796875,0.734375 -7.90625,2.203125 z m 19.625,30.90625 q 6.640625,0 10.515625,4.53125 3.890625,4.546875 3.890625,12.46875 0,7.859375 -3.890625,12.421875 -3.875,4.5625 -10.515625,4.5625 -6.640625,0 -10.515625,-4.5625 -3.875,-4.5625 -3.875,-12.421875 0,-7.921875 3.875,-12.46875 3.875,-4.53125 10.515625,-4.53125 z"
               id="DejaVuSans-57"
               inkscape:connector-curvature="0"
               style="stroke-linecap:butt;stroke-linejoin:round" />
          </defs>
          <use
             xlink:href="#DejaVuSans-57"
             id="use137"
             style="stroke-linecap:butt;stroke-linejoin:round"
             x="0"
             y="0"
             width="100%"
             height="100%" />
        </g>
      </g>
      <g
         id="text_5"
         style="stroke-linecap:butt;stroke-linejoin:round">
        <!-- 8 -->
        <g
           transform="matrix(0.1,0,0,-0.1,103.58182,126.06546)"
           id="g147"
           style="stroke-linecap:butt;stroke-linejoin:round">
          <defs
             id="defs143">
            <path
               d="m 31.78125,34.625 q -7.03125,0 -11.0625,-3.765625 -4.015625,-3.765625 -4.015625,-10.34375 0,-6.59375 4.015625,-10.359375 4.03125,-3.765625 11.0625,-3.765625 7.03125,0 11.078125,3.78125 4.0625,3.796875 4.0625,10.34375 0,6.578125 -4.03125,10.34375 Q 38.875,34.625 31.78125,34.625 Z m -9.859375,4.1875 Q 15.578125,40.375 12.03125,44.71875 8.5,49.078125 8.5,55.328125 q 0,8.734375 6.21875,13.8125 6.234375,5.078125 17.0625,5.078125 10.890625,0 17.09375,-5.078125 6.203125,-5.078125 6.203125,-13.8125 0,-6.25 -3.546875,-10.609375 Q 48,40.375 41.703125,38.8125 q 7.125,-1.65625 11.09375,-6.5 3.984375,-4.828125 3.984375,-11.796875 0,-10.609375 -6.46875,-16.28125 -6.46875,-5.65625 -18.53125,-5.65625 -12.046875,0 -18.53125,5.65625 -6.46875,5.671875 -6.46875,16.28125 0,6.96875 4,11.796875 4.015625,4.84375 11.140625,6.5 z M 18.3125,54.390625 q 0,-5.65625 3.53125,-8.828125 3.546875,-3.171875 9.9375,-3.171875 6.359375,0 9.9375,3.171875 3.59375,3.171875 3.59375,8.828125 0,5.671875 -3.59375,8.84375 -3.578125,3.171875 -9.9375,3.171875 -6.390625,0 -9.9375,-3.171875 Q 18.3125,60.0625 18.3125,54.390625 Z"
               id="DejaVuSans-56"
               inkscape:connector-curvature="0"
               style="stroke-linecap:butt;stroke-linejoin:round" />
          </defs>
          <use
             xlink:href="#DejaVuSans-56"
             id="use145"
             style="stroke-linecap:butt;stroke-linejoin:round"
             x="0"
             y="0"
             width="100%"
             height="100%" />
        </g>
      </g>
      <g
         id="text_6"
         style="stroke-linecap:butt;stroke-linejoin:round">
        <!-- 16 -->
        <g
           transform="matrix(0.1,0,0,-0.1,281.12727,85.483636)"
           id="g157"
           style="stroke-linecap:butt;stroke-linejoin:round">
          <defs
             id="defs151">
            <path
               d="m 33.015625,40.375 q -6.640625,0 -10.53125,-4.546875 -3.875,-4.53125 -3.875,-12.4375 0,-7.859375 3.875,-12.4375 3.890625,-4.5625 10.53125,-4.5625 6.640625,0 10.515625,4.5625 3.875,4.578125 3.875,12.4375 0,7.90625 -3.875,12.4375 Q 39.65625,40.375 33.015625,40.375 Z M 52.59375,71.296875 V 62.3125 q -3.71875,1.75 -7.5,2.671875 -3.78125,0.9375 -7.5,0.9375 -9.765625,0 -14.921875,-6.59375 -5.140625,-6.59375 -5.875,-19.921875 2.875,4.25 7.21875,6.515625 4.359375,2.265625 9.578125,2.265625 10.984375,0 17.359375,-6.671875 6.375,-6.65625 6.375,-18.125 0,-11.234375 -6.640625,-18.03125 -6.640625,-6.78125 -17.671875,-6.78125 -12.65625,0 -19.34375,9.6875 -6.6875,9.703125 -6.6875,28.109375 0,17.28125 8.203125,27.5625 8.203125,10.28125 22.015625,10.28125 3.71875,0 7.5,-0.734375 3.78125,-0.734375 7.890625,-2.1875 z"
               id="DejaVuSans-54"
               inkscape:connector-curvature="0"
               style="stroke-linecap:butt;stroke-linejoin:round" />
          </defs>
          <use
             xlink:href="#DejaVuSans-49"
             id="use153"
             style="stroke-linecap:butt;stroke-linejoin:round"
             x="0"
             y="0"
             width="100%"
             height="100%" />
          <use
             x="63.623047"
             xlink:href="#DejaVuSans-54"
             id="use155"
             style="stroke-linecap:butt;stroke-linejoin:round"
             y="0"
             width="100%"
             height="100%" />
        </g>
      </g>
      <g
         id="text_7"
         style="stroke-linecap:butt;stroke-linejoin:round">
        <!-- 11 -->
        <g
           transform="matrix(0.1,0,0,-0.1,230.4,105.77455)"
           id="g164"
           style="stroke-linecap:butt;stroke-linejoin:round">
          <use
             xlink:href="#DejaVuSans-49"
             id="use160"
             style="stroke-linecap:butt;stroke-linejoin:round"
             x="0"
             y="0"
             width="100%"
             height="100%" />
          <use
             x="63.623047"
             xlink:href="#DejaVuSans-49"
             id="use162"
             style="stroke-linecap:butt;stroke-linejoin:round"
             y="0"
             width="100%"
             height="100%" />
        </g>
      </g>
      <g
         id="text_8"
         style="stroke-linecap:butt;stroke-linejoin:round">
        <!-- 14 -->
        <g
           transform="matrix(0.1,0,0,-0.1,255.76364,126.06546)"
           id="g174"
           style="stroke-linecap:butt;stroke-linejoin:round">
          <defs
             id="defs168">
            <path
               d="M 37.796875,64.3125 12.890625,25.390625 h 24.90625 z m -2.59375,8.59375 h 12.40625 V 25.390625 h 10.40625 V 17.1875 H 47.609375 V 0 h -9.8125 V 17.1875 H 4.890625 v 9.515625 z"
               id="DejaVuSans-52"
               inkscape:connector-curvature="0"
               style="stroke-linecap:butt;stroke-linejoin:round" />
          </defs>
          <use
             xlink:href="#DejaVuSans-49"
             id="use170"
             style="stroke-linecap:butt;stroke-linejoin:round"
             x="0"
             y="0"
             width="100%"
             height="100%" />
          <use
             x="63.623047"
             xlink:href="#DejaVuSans-52"
             id="use172"
             style="stroke-linecap:butt;stroke-linejoin:round"
             y="0"
             width="100%"
             height="100%" />
        </g>
      </g>
      <g
         id="text_9"
         style="stroke-linecap:butt;stroke-linejoin:round">
        <!-- 13 -->
        <g
           transform="matrix(0.1,0,0,-0.1,243.08182,146.35636)"
           id="g181"
           style="stroke-linecap:butt;stroke-linejoin:round">
          <use
             xlink:href="#DejaVuSans-49"
             id="use177"
             style="stroke-linecap:butt;stroke-linejoin:round"
             x="0"
             y="0"
             width="100%"
             height="100%" />
          <use
             x="63.623047"
             xlink:href="#DejaVuSans-51"
             id="use179"
             style="stroke-linecap:butt;stroke-linejoin:round"
             y="0"
             width="100%"
             height="100%" />
        </g>
      </g>
      <g
         id="text_10"
         style="stroke-linecap:butt;stroke-linejoin:round">
        <!-- 12 -->
        <g
           transform="matrix(0.1,0,0,-0.1,236.74091,166.64727)"
           id="g191"
           style="stroke-linecap:butt;stroke-linejoin:round">
          <defs
             id="defs185">
            <path
               d="M 19.1875,8.296875 H 53.609375 V 0 H 7.328125 v 8.296875 q 5.609375,5.8125 15.296875,15.59375 9.703125,9.796875 12.1875,12.640625 4.734375,5.3125 6.609375,9 1.890625,3.6875 1.890625,7.25 0,5.8125 -4.078125,9.46875 -4.078125,3.671875 -10.625,3.671875 -4.640625,0 -9.796875,-1.609375 -5.140625,-1.609375 -11,-4.890625 v 9.96875 Q 13.765625,71.78125 18.9375,73 q 5.1875,1.21875 9.484375,1.21875 11.328125,0 18.0625,-5.671875 6.734375,-5.65625 6.734375,-15.125 0,-4.5 -1.6875,-8.53125 Q 49.859375,40.875 45.40625,35.40625 44.1875,33.984375 37.640625,27.21875 31.109375,20.453125 19.1875,8.296875 Z"
               id="DejaVuSans-50"
               inkscape:connector-curvature="0"
               style="stroke-linecap:butt;stroke-linejoin:round" />
          </defs>
          <use
             xlink:href="#DejaVuSans-49"
             id="use187"
             style="stroke-linecap:butt;stroke-linejoin:round"
             x="0"
             y="0"
             width="100%"
             height="100%" />
          <use
             x="63.623047"
             xlink:href="#DejaVuSans-50"
             id="use189"
             style="stroke-linecap:butt;stroke-linejoin:round"
             y="0"
             width="100%"
             height="100%" />
        </g>
      </g>
      <g
         id="text_11"
         style="stroke-linecap:butt;stroke-linejoin:round">
        <!-- 15 -->
        <g
           transform="matrix(0.1,0,0,-0.1,268.44545,146.35636)"
           id="g201"
           style="stroke-linecap:butt;stroke-linejoin:round">
          <defs
             id="defs195">
            <path
               d="m 10.796875,72.90625 h 38.71875 v -8.3125 h -29.6875 V 46.734375 q 2.140625,0.734375 4.28125,1.09375 2.15625,0.359375 4.3125,0.359375 Q 40.625,48.1875 47.75,41.5 54.890625,34.8125 54.890625,23.390625 54.890625,11.625 47.5625,5.09375 40.234375,-1.421875 26.90625,-1.421875 q -4.59375,0 -9.359375,0.78125 -4.75,0.78125 -9.828125,2.34375 V 11.625 q 4.390625,-2.390625 9.078125,-3.5625 4.6875,-1.171875 9.90625,-1.171875 8.453125,0 13.375,4.4375 4.9375,4.4375 4.9375,12.0625 0,7.609375 -4.9375,12.046875 -4.921875,4.453125 -13.375,4.453125 -3.953125,0 -7.890625,-0.875 -3.921875,-0.875 -8.015625,-2.734375 z"
               id="DejaVuSans-53"
               inkscape:connector-curvature="0"
               style="stroke-linecap:butt;stroke-linejoin:round" />
          </defs>
          <use
             xlink:href="#DejaVuSans-49"
             id="use197"
             style="stroke-linecap:butt;stroke-linejoin:round"
             x="0"
             y="0"
             width="100%"
             height="100%" />
          <use
             x="63.623047"
             xlink:href="#DejaVuSans-53"
             id="use199"
             style="stroke-linecap:butt;stroke-linejoin:round"
             y="0"
             width="100%"
             height="100%" />
        </g>
      </g>
      <g
         id="text_12"
         style="stroke-linecap:butt;stroke-linejoin:round">
        <!-- 20 -->
        <g
           transform="matrix(0.1,0,0,-0.1,331.85454,105.77455)"
           id="g208"
           style="stroke-linecap:butt;stroke-linejoin:round">
          <use
             xlink:href="#DejaVuSans-50"
             id="use204"
             style="stroke-linecap:butt;stroke-linejoin:round"
             x="0"
             y="0"
             width="100%"
             height="100%" />
          <use
             x="63.623047"
             xlink:href="#DejaVuSans-48"
             id="use206"
             style="stroke-linecap:butt;stroke-linejoin:round"
             y="0"
             width="100%"
             height="100%" />
        </g>
      </g>
      <text
         xml:space="preserve"
         style="font-style:normal;font-weight:normal;font-size:31.99999809px;line-height:1.25;font-family:sans-serif;letter-spacing:0px;word-spacing:0px;fill:#000000;fill-opacity:1;stroke:none;stroke-width:0.75;stroke-linecap:butt;stroke-linejoin:round"
         x="219.0683"
         y="94.099663"
         id="text1029-3"><tspan
           sodipodi:role="line"
           id="tspan1027-6"
           style="font-size:16px;stroke-width:0.75;stroke-linecap:butt;stroke-linejoin:round"
           x="219.0683"
           y="94.099663">-w/2</tspan></text>
      <text
         xml:space="preserve"
         style="font-style:normal;font-weight:normal;font-size:31.99999809px;line-height:1.25;font-family:sans-serif;letter-spacing:0px;word-spacing:0px;fill:#000000;fill-opacity:1;stroke:none;stroke-width:0.75;stroke-linecap:butt;stroke-linejoin:round"
         x="220.41841"
         y="71.283272"
         id="text1029-3-6"><tspan
           sodipodi:role="line"
           id="tspan1027-6-2"
           style="font-size:15.99999905px;stroke-width:0.75;stroke-linecap:butt;stroke-linejoin:round"
           x="220.41841"
           y="71.283272">w</tspan></text>
      <text
         xml:space="preserve"
         style="font-style:normal;font-weight:normal;font-size:31.99999809px;line-height:1.25;font-family:sans-serif;letter-spacing:0px;word-spacing:0px;fill:#000000;fill-opacity:1;stroke:none;stroke-width:0.75;stroke-linecap:butt;stroke-linejoin:round"
         x="296.45145"
         y="90.544983"
         id="text1029-3-9"><tspan
           sodipodi:role="line"
           id="tspan1027-6-1"
           style="font-size:15.99999905px;stroke-width:0.75;stroke-linecap:butt;stroke-linejoin:round"
           x="296.45145"
           y="90.544983">w/2</tspan></text>
      <text
         xml:space="preserve"
         style="font-style:normal;font-weight:normal;font-size:31.99999809px;line-height:1.25;font-family:sans-serif;letter-spacing:0px;word-spacing:0px;fill:#000000;fill-opacity:1;stroke:none;stroke-width:0.75;stroke-linecap:butt;stroke-linejoin:round"
         x="238.79305"
         y="115.00227"
         id="text1029-3-2"><tspan
           sodipodi:role="line"
           id="tspan1027-6-7"
           style="font-size:10px;stroke-width:0.75;stroke-linecap:butt;stroke-linejoin:round"
           x="238.79305"
           y="115.00227">w/4</tspan></text>
      <text
         xml:space="preserve"
         style="font-style:normal;font-weight:normal;font-size:31.99999809px;line-height:1.25;font-family:sans-serif;letter-spacing:0px;word-spacing:0px;fill:#000000;fill-opacity:1;stroke:none;stroke-width:0.75;stroke-linecap:butt;stroke-linejoin:round"
         x="220.35533"
         y="134.91098"
         id="text1029-3-2-0"><tspan
           sodipodi:role="line"
           id="tspan1027-6-7-9"
           style="font-size:10px;stroke-width:0.75;stroke-linecap:butt;stroke-linejoin:round"
           x="220.35533"
           y="134.91098">-w/8</tspan></text>
      <text
         xml:space="preserve"
         style="font-style:normal;font-weight:normal;font-size:31.99999809px;line-height:1.25;font-family:sans-serif;letter-spacing:0px;word-spacing:0px;fill:#000000;fill-opacity:1;stroke:none;stroke-width:0.75;stroke-linecap:butt;stroke-linejoin:round"
         x="260.77634"
         y="135.35706"
         id="text1029-3-2-0-3"><tspan
           sodipodi:role="line"
           id="tspan1027-6-7-9-6"
           style="font-size:10px;stroke-width:0.75;stroke-linecap:butt;stroke-linejoin:round"
           x="260.77634"
           y="135.35706">w/8</tspan></text>
    </g>
  </g>
  <defs
     id="defs216">
    <clipPath
       id="p7692aa8bee"
       style="stroke-linecap:butt;stroke-linejoin:round">
      <rect
         height="217.44"
         width="334.79999"
         x="7.1999998"
         y="7.1999998"
         id="rect213"
         style="stroke-linecap:butt;stroke-linejoin:round" />
    </clipPath>
  </defs>
</svg>
