<?xml version="1.0" encoding="UTF-8" standalone="no"?>
<!-- Created with Inkscape (http://www.inkscape.org/) -->

<svg
   xmlns:dc="http://purl.org/dc/elements/1.1/"
   xmlns:cc="http://creativecommons.org/ns#"
   xmlns:rdf="http://www.w3.org/1999/02/22-rdf-syntax-ns#"
   xmlns:svg="http://www.w3.org/2000/svg"
   xmlns="http://www.w3.org/2000/svg"
   xmlns:sodipodi="http://sodipodi.sourceforge.net/DTD/sodipodi-0.dtd"
   xmlns:inkscape="http://www.inkscape.org/namespaces/inkscape"
   width="778.67749mm"
   height="735.45593mm"
   viewBox="0 0 778.67747 735.45593"
   version="1.1"
   id="svg8"
   inkscape:version="0.92.5 (2060ec1f9f, 2020-04-08)"
   sodipodi:docname="BFSDFSnotes.svg">
  <defs
     id="defs2" />
  <sodipodi:namedview
     id="base"
     pagecolor="#ffffff"
     bordercolor="#666666"
     borderopacity="1.0"
     inkscape:pageopacity="0.0"
     inkscape:pageshadow="2"
     inkscape:zoom="0.24748737"
     inkscape:cx="1892.1005"
     inkscape:cy="1291.6325"
     inkscape:document-units="mm"
     inkscape:current-layer="layer1"
     showgrid="false"
     fit-margin-top="0"
     fit-margin-left="0"
     fit-margin-right="0"
     fit-margin-bottom="0"
     inkscape:window-width="1848"
     inkscape:window-height="1016"
     inkscape:window-x="1992"
     inkscape:window-y="27"
     inkscape:window-maximized="0" />
  <metadata
     id="metadata5">
    <rdf:RDF>
      <cc:Work
         rdf:about="">
        <dc:format>image/svg+xml</dc:format>
        <dc:type
           rdf:resource="http://purl.org/dc/dcmitype/StillImage" />
        <dc:title></dc:title>
      </cc:Work>
    </rdf:RDF>
  </metadata>
  <g
     inkscape:label="Layer 1"
     inkscape:groupmode="layer"
     id="layer1"
     transform="translate(235.94327,284.79318)">
    <text
       xml:space="preserve"
       style="font-style:normal;font-weight:normal;font-size:7.76111126px;line-height:1.25;font-family:sans-serif;letter-spacing:0px;word-spacing:0px;fill:#000000;fill-opacity:1;stroke:none;stroke-width:0.26458332"
       x="121.75632"
       y="-251.89977"
       id="text817"><tspan
         sodipodi:role="line"
         id="tspan815"
         x="121.75632"
         y="-251.89977"
         style="font-size:12.69999981px;stroke-width:0.26458332">Breadth-First Search</tspan><tspan
         sodipodi:role="line"
         x="121.75632"
         y="-236.02477"
         style="font-size:12.69999981px;stroke-width:0.26458332"
         id="tspan819">(Graph Traversal)</tspan><tspan
         sodipodi:role="line"
         x="121.75632"
         y="-224.51953"
         style="font-size:12.69999981px;stroke-width:0.26458332"
         id="tspan821" /><tspan
         sodipodi:role="line"
         x="121.75632"
         y="-214.81813"
         style="font-size:12.69999981px;stroke-width:0.26458332"
         id="tspan823" /><tspan
         sodipodi:role="line"
         x="121.75632"
         y="-200.74699"
         style="font-size:12.69999981px;stroke-width:0.26458332"
         id="tspan841">Node:</tspan><tspan
         sodipodi:role="line"
         x="121.75632"
         y="-184.87199"
         style="font-size:12.69999981px;stroke-width:0.26458332"
         id="tspan843">   edges[]</tspan><tspan
         sodipodi:role="line"
         x="121.75632"
         y="-168.99699"
         style="font-size:12.69999981px;stroke-width:0.26458332"
         id="tspan845">   visited = False</tspan><tspan
         sodipodi:role="line"
         x="121.75632"
         y="-153.12199"
         style="font-size:12.69999981px;stroke-width:0.26458332"
         id="tspan847">   touched = False</tspan><tspan
         sodipodi:role="line"
         x="121.75632"
         y="-141.61674"
         style="font-size:12.69999981px;stroke-width:0.26458332"
         id="tspan835" /><tspan
         sodipodi:role="line"
         x="121.75632"
         y="-131.91536"
         style="font-size:12.69999981px;stroke-width:0.26458332"
         id="tspan839" /><tspan
         sodipodi:role="line"
         x="121.75632"
         y="-122.21397"
         style="font-size:12.69999981px;stroke-width:0.26458332"
         id="tspan837" /><tspan
         sodipodi:role="line"
         x="121.75632"
         y="-108.14282"
         style="font-size:12.69999981px;stroke-width:0.26458332"
         id="tspan825">queue = [node0]   (First in first out)</tspan><tspan
         sodipodi:role="line"
         x="121.75632"
         y="-92.267822"
         style="font-size:12.69999981px;stroke-width:0.26458332"
         id="tspan849">node0.touched = True</tspan><tspan
         sodipodi:role="line"
         x="121.75632"
         y="-80.762581"
         style="font-size:12.69999981px;stroke-width:0.26458332"
         id="tspan827" /><tspan
         sodipodi:role="line"
         x="121.75632"
         y="-66.691429"
         style="font-size:12.69999981px;stroke-width:0.26458332"
         id="tspan829">while len(queue) &gt; 0:</tspan><tspan
         sodipodi:role="line"
         x="121.75632"
         y="-50.816433"
         style="font-size:12.69999981px;stroke-width:0.26458332"
         id="tspan831">     node = queue.removefirst() # O(1)</tspan><tspan
         sodipodi:role="line"
         x="121.75632"
         y="-34.941433"
         style="font-size:12.69999981px;stroke-width:0.26458332"
         id="tspan833">     node.visited = True # O(1)</tspan><tspan
         sodipodi:role="line"
         x="121.75632"
         y="-19.066433"
         style="font-size:12.69999981px;stroke-width:0.26458332"
         id="tspan851">     for neighbor in node.edges: # ?</tspan><tspan
         sodipodi:role="line"
         x="121.75632"
         y="-3.1914334"
         style="font-size:12.69999981px;stroke-width:0.26458332"
         id="tspan855">           if not neighbor.touched # O(1)</tspan><tspan
         sodipodi:role="line"
         x="121.75632"
         y="12.683566"
         style="font-size:12.69999981px;stroke-width:0.26458332"
         id="tspan857">               neighbor.touched = True # O(1)</tspan><tspan
         sodipodi:role="line"
         x="121.75632"
         y="28.558567"
         style="font-size:12.69999981px;stroke-width:0.26458332"
         id="tspan853">               queue.append(neighbor) # O(1)</tspan></text>
    <text
       xml:space="preserve"
       style="font-style:normal;font-weight:normal;font-size:7.76111126px;line-height:1.25;font-family:sans-serif;letter-spacing:0px;word-spacing:0px;fill:#000000;fill-opacity:1;stroke:none;stroke-width:0.26458332"
       x="-193.52039"
       y="-252.34357"
       id="text817-6"><tspan
         sodipodi:role="line"
         id="tspan815-2"
         x="-193.52039"
         y="-252.34357"
         style="font-size:12.69999981px;stroke-width:0.26458332">Depth-First Search</tspan><tspan
         sodipodi:role="line"
         x="-193.52039"
         y="-236.46857"
         style="font-size:12.69999981px;stroke-width:0.26458332"
         id="tspan819-9">(Graph Traversal)</tspan><tspan
         sodipodi:role="line"
         x="-193.52039"
         y="-224.96333"
         style="font-size:12.69999981px;stroke-width:0.26458332"
         id="tspan821-1" /><tspan
         sodipodi:role="line"
         x="-193.52039"
         y="-215.26193"
         style="font-size:12.69999981px;stroke-width:0.26458332"
         id="tspan823-2" /><tspan
         sodipodi:role="line"
         x="-193.52039"
         y="-201.1908"
         style="font-size:12.69999981px;stroke-width:0.26458332"
         id="tspan841-7">Node:</tspan><tspan
         sodipodi:role="line"
         x="-193.52039"
         y="-185.3158"
         style="font-size:12.69999981px;stroke-width:0.26458332"
         id="tspan843-0">   edges[]</tspan><tspan
         sodipodi:role="line"
         x="-193.52039"
         y="-169.4408"
         style="font-size:12.69999981px;stroke-width:0.26458332"
         id="tspan845-9">   visited = False</tspan><tspan
         sodipodi:role="line"
         x="-193.52039"
         y="-153.5658"
         style="font-size:12.69999981px;stroke-width:0.26458332"
         id="tspan847-3">   touched = False</tspan><tspan
         sodipodi:role="line"
         x="-193.52039"
         y="-142.06055"
         style="font-size:12.69999981px;stroke-width:0.26458332"
         id="tspan835-6" /><tspan
         sodipodi:role="line"
         x="-193.52039"
         y="-132.35916"
         style="font-size:12.69999981px;stroke-width:0.26458332"
         id="tspan839-0" /><tspan
         sodipodi:role="line"
         x="-193.52039"
         y="-122.65777"
         style="font-size:12.69999981px;stroke-width:0.26458332"
         id="tspan837-6" /><tspan
         sodipodi:role="line"
         x="-193.52039"
         y="-108.58662"
         style="font-size:12.69999981px;stroke-width:0.26458332"
         id="tspan825-2">stack = [node0]   (Last in first out)</tspan><tspan
         sodipodi:role="line"
         x="-193.52039"
         y="-92.711624"
         style="font-size:12.69999981px;stroke-width:0.26458332"
         id="tspan849-6">node0.touched = True</tspan><tspan
         sodipodi:role="line"
         x="-193.52039"
         y="-81.206383"
         style="font-size:12.69999981px;stroke-width:0.26458332"
         id="tspan827-1" /><tspan
         sodipodi:role="line"
         x="-193.52039"
         y="-67.135231"
         style="font-size:12.69999981px;stroke-width:0.26458332"
         id="tspan829-8">while len(stack) &gt; 0:</tspan><tspan
         sodipodi:role="line"
         x="-193.52039"
         y="-51.260235"
         style="font-size:12.69999981px;stroke-width:0.26458332"
         id="tspan831-7">     node = stack.pop() # Take off top</tspan><tspan
         sodipodi:role="line"
         x="-193.52039"
         y="-35.385235"
         style="font-size:12.69999981px;stroke-width:0.26458332"
         id="tspan833-9">     node.visited = True # O(1)</tspan><tspan
         sodipodi:role="line"
         x="-193.52039"
         y="-19.510235"
         style="font-size:12.69999981px;stroke-width:0.26458332"
         id="tspan851-2">     for neighbor in node.edges: # ?</tspan><tspan
         sodipodi:role="line"
         x="-193.52039"
         y="-3.6352353"
         style="font-size:12.69999981px;stroke-width:0.26458332"
         id="tspan855-0">           if not neighbor.touched # O(1)</tspan><tspan
         sodipodi:role="line"
         x="-193.52039"
         y="12.239764"
         style="font-size:12.69999981px;stroke-width:0.26458332"
         id="tspan857-2">               neighbor.touched = True # O(1)</tspan><tspan
         sodipodi:role="line"
         x="-193.52039"
         y="28.114765"
         style="font-size:12.69999981px;stroke-width:0.26458332"
         id="tspan853-3">               stack.push(neighbor) # O(1)</tspan></text>
    <text
       xml:space="preserve"
       style="font-style:normal;font-weight:normal;font-size:7.76111126px;line-height:1.25;font-family:sans-serif;letter-spacing:0px;word-spacing:0px;fill:#000000;fill-opacity:1;stroke:none;stroke-width:0.26458332"
       x="-201.90898"
       y="120.05027"
       id="text817-3"><tspan
         sodipodi:role="line"
         id="tspan815-6"
         x="-201.90898"
         y="120.05027"
         style="font-size:12.69999981px;stroke-width:0.26458332">Dijkstra's Algorithm</tspan><tspan
         sodipodi:role="line"
         x="-201.90898"
         y="135.92526"
         style="font-size:12.69999981px;stroke-width:0.26458332"
         id="tspan819-7">(Shortest Path Finding)</tspan><tspan
         sodipodi:role="line"
         x="-201.90898"
         y="147.43051"
         style="font-size:12.69999981px;stroke-width:0.26458332"
         id="tspan821-5" /><tspan
         sodipodi:role="line"
         x="-201.90898"
         y="157.1319"
         style="font-size:12.69999981px;stroke-width:0.26458332"
         id="tspan823-3" /><tspan
         sodipodi:role="line"
         x="-201.90898"
         y="171.20305"
         style="font-size:12.69999981px;stroke-width:0.26458332"
         id="tspan841-5">Node:</tspan><tspan
         sodipodi:role="line"
         x="-201.90898"
         y="187.07805"
         style="font-size:12.69999981px;stroke-width:0.26458332"
         id="tspan843-6">   edges[] # Pointers to other nodes</tspan><tspan
         sodipodi:role="line"
         x="-201.90898"
         y="202.95305"
         style="font-size:12.69999981px;stroke-width:0.26458332"
         id="tspan976">   distances[] # Distance of each node to this node</tspan><tspan
         sodipodi:role="line"
         x="-201.90898"
         y="218.82805"
         style="font-size:12.69999981px;stroke-width:0.26458332"
         id="tspan847-9">   visited = False</tspan><tspan
         sodipodi:role="line"
         x="-201.90898"
         y="230.33328"
         style="font-size:12.69999981px;stroke-width:0.26458332"
         id="tspan835-1" /><tspan
         sodipodi:role="line"
         x="-201.90898"
         y="240.03468"
         style="font-size:12.69999981px;stroke-width:0.26458332"
         id="tspan839-2" /><tspan
         sodipodi:role="line"
         x="-201.90898"
         y="249.73607"
         style="font-size:12.69999981px;stroke-width:0.26458332"
         id="tspan837-7" /><tspan
         sodipodi:role="line"
         x="-201.90898"
         y="263.80722"
         style="font-size:12.69999981px;stroke-width:0.26458332"
         id="tspan849-9">queue = [node0]   # Priority queue</tspan><tspan
         sodipodi:role="line"
         x="-201.90898"
         y="275.31247"
         style="font-size:12.69999981px;stroke-width:0.26458332"
         id="tspan827-3" /><tspan
         sodipodi:role="line"
         x="-201.90898"
         y="289.38361"
         style="font-size:12.69999981px;stroke-width:0.26458332"
         id="tspan829-6">while len(queue) &gt; 0:</tspan><tspan
         sodipodi:role="line"
         x="-201.90898"
         y="305.25861"
         style="font-size:12.69999981px;stroke-width:0.26458332"
         id="tspan831-0">     (node, d) = queue.pop() # O(logN)</tspan><tspan
         sodipodi:role="line"
         x="-201.90898"
         y="321.13361"
         style="font-size:12.69999981px;stroke-width:0.26458332"
         id="tspan1131">     # NOTE: d is the shortest path from node0 to node</tspan><tspan
         sodipodi:role="line"
         x="-201.90898"
         y="337.00861"
         style="font-size:12.69999981px;stroke-width:0.26458332"
         id="tspan833-6">     node.visited = True # O(1)</tspan><tspan
         sodipodi:role="line"
         x="-201.90898"
         y="352.88361"
         style="font-size:12.69999981px;stroke-width:0.26458332"
         id="tspan855-1">     for neighbor in node.edges: # ?</tspan><tspan
         sodipodi:role="line"
         x="-201.90898"
         y="368.75861"
         style="font-size:12.69999981px;stroke-width:0.26458332"
         id="tspan857-8">           if not node.visited:</tspan><tspan
         sodipodi:role="line"
         x="-201.90898"
         y="384.63361"
         style="font-size:12.69999981px;stroke-width:0.26458332"
         id="tspan1133">                 queue.push((d+nodes.distances[neighbor]), node))</tspan><tspan
         sodipodi:role="line"
         x="-201.90898"
         y="400.50861"
         style="font-size:12.69999981px;stroke-width:0.26458332"
         id="tspan1129">                 </tspan><tspan
         sodipodi:role="line"
         x="-201.90898"
         y="416.38361"
         style="font-size:12.69999981px;stroke-width:0.26458332"
         id="tspan1121">               </tspan><tspan
         sodipodi:role="line"
         x="-201.90898"
         y="432.25861"
         style="font-size:12.69999981px;stroke-width:0.26458332"
         id="tspan853-7">               </tspan></text>
    <ellipse
       style="fill:#000000;fill-opacity:1;stroke:#000000;stroke-width:0.26499999;stroke-miterlimit:4;stroke-dasharray:none;stroke-dashoffset:0;stroke-opacity:1;paint-order:stroke markers fill"
       id="path988"
       cx="250.68797"
       cy="277.08823"
       rx="6.6817379"
       ry="6.4144688" />
    <ellipse
       style="fill:#000000;fill-opacity:1;stroke:#000000;stroke-width:0.26499999;stroke-miterlimit:4;stroke-dasharray:none;stroke-dashoffset:0;stroke-opacity:1;paint-order:stroke markers fill"
       id="path988-9"
       cx="412.92062"
       cy="264.79379"
       rx="6.6817379"
       ry="6.4144688" />
    <path
       style="fill:none;stroke:#000000;stroke-width:0.26458332px;stroke-linecap:butt;stroke-linejoin:miter;stroke-opacity:1"
       d="m 255.76609,278.15728 c 0.50946,-2.03775 0.28525,-2.15972 1.60362,-3.74177 0.48395,-0.58073 1.11969,-1.02288 1.60364,-1.60361 0.41126,-0.49356 0.66773,-1.10196 1.06907,-1.60364 0.7919,-0.98989 1.93027,-1.6333 2.67269,-2.67269 0.46315,-0.64841 0.6591,-1.45486 1.06908,-2.13815 0.40854,-0.68091 0.95382,-0.6359 1.60361,-1.06908 0.20965,-0.13977 0.32488,-0.39475 0.53454,-0.53453 0.33152,-0.22101 0.73758,-0.31353 1.06907,-0.53454 0.20968,-0.13978 0.30917,-0.42185 0.53454,-0.53454 0.15938,-0.0797 0.35637,0 0.53454,0 0.35636,0 0.71273,0 1.06907,0 0.18212,0 1.84888,-0.0964 2.13818,0 0.37796,0.126 0.69109,0.40854 1.06908,0.53454 0.16904,0.0563 0.37515,-0.0797 0.53453,0 0.22538,0.11269 0.32489,0.39476 0.53454,0.53454 0.3315,0.221 0.75033,0.29548 1.06908,0.53453 0.40317,0.30237 0.7127,0.71271 1.06907,1.06908 0.35637,0.35637 0.71271,0.71271 1.06908,1.06908 0.35636,0.35636 0.71273,0.71273 1.06907,1.06907 0.53454,0.53454 1.16425,0.98848 1.60362,1.60361 0.46318,0.64844 0.67373,1.44632 1.0691,2.13818 0.31871,0.55777 0.66773,1.10194 1.06907,1.60361 0.31483,0.39352 0.84368,0.61831 1.06908,1.06908 0.32853,0.65709 0.20598,1.48106 0.53454,2.13815 0.22537,0.45077 0.7127,0.71271 1.06907,1.06908 0.17817,0.71273 0.2617,1.45605 0.53454,2.13815 0.12483,0.3121 1.99213,1.91913 2.13815,2.13817 0.0988,0.14825 -0.0797,0.37516 0,0.53454 0.11269,0.22537 0.35637,0.35634 0.53454,0.53454 0.17819,0.17817 0.29548,0.45484 0.53454,0.53454 1.82946,0.60981 1.90161,-1.70884 2.67271,-2.67272 0.47223,-0.59028 1.06908,-1.06907 1.60361,-1.60361 0.71271,-0.71271 1.35107,-1.5085 2.13815,-2.13815 0.50271,-0.40217 2.20478,-0.95211 2.67269,-1.06908 0.34573,-0.0864 0.71274,0 1.06908,0 0.35637,0 0.75036,-0.15936 1.06907,0 0.45077,0.22537 0.71274,0.71271 1.06908,1.06908 0.1782,0.17817 0.42185,0.30916 0.53454,0.53454 0.0797,0.15938 -0.0432,0.36168 0,0.53453 0.13665,0.54663 0.3979,1.05699 0.53456,1.60362 0.43503,1.74021 -2.02531,-1.45312 1.06908,2.67271 0.10689,0.14253 0.35634,0 0.53453,0 0.35634,0 0.71271,0 1.06908,0 0.17817,0 0.38629,0.0988 0.53454,0 0.41931,-0.27956 0.71271,-0.71273 1.06907,-1.0691 0.17817,-0.17817 0.39476,-0.32486 0.53454,-0.53454 0.51932,-0.77896 0.33372,-1.11336 1.06908,-1.60361 0.33149,-0.22101 0.72315,-0.33687 1.06907,-0.53454 0.90207,-0.51546 1.80824,-1.0273 2.67269,-1.60361 0.20968,-0.13978 0.30917,-0.42185 0.53454,-0.53454 0.50398,-0.25199 1.15287,-0.19645 1.60364,-0.53454 0.31871,-0.23905 0.29548,-0.75033 0.53453,-1.06907 1.49157,-1.98874 0.83006,-0.0565 2.13816,-2.67269 0.25198,-0.50398 0.35636,-1.06908 0.53453,-1.60364 0.17817,-0.53454 0.39788,-1.05698 0.53454,-1.60361 0.0432,-0.17286 -0.0797,-0.37516 0,-0.53454 0.11269,-0.22537 0.40489,-0.31845 0.53454,-0.53454 0.40997,-0.68329 0.71271,-1.42544 1.06907,-2.13815 0.1782,-0.35637 0.40855,-0.69109 0.53454,-1.06908 0.0564,-0.16904 -0.0563,-0.36549 0,-0.53453 0.126,-0.37799 0.31353,-0.73758 0.53454,-1.06908 0.13978,-0.20968 0.45487,-0.29549 0.53454,-0.53454 0.11268,-0.33808 -0.15936,-0.75035 0,-1.06907 0.2254,-0.45077 0.71273,-0.71273 1.06907,-1.06908 0.1782,-0.17819 0.45487,-0.29548 0.53454,-0.53456 0.11271,-0.33806 -0.0864,-0.72334 0,-1.06907 0.19328,-0.77304 0.87582,-1.3651 1.0691,-2.13816 0.0864,-0.3457 -0.15938,-0.75033 0,-1.06907 0.13409,-0.26821 2.23674,-2.23676 2.67269,-2.67269 0.18132,-0.18132 2.39657,-2.53465 2.67269,-2.67269 0.2014,-0.10072 3.13118,-0.0254 3.20723,0 0.37798,0.12597 0.68257,0.43789 1.06907,0.53454 0.26043,0.0651 1.85552,-0.14134 2.13818,0 0.22537,0.11269 0.29548,0.45484 0.53454,0.53454 0.33805,0.11268 0.75033,-0.15939 1.06907,0 1.4115,0.70575 0.79571,1.12826 1.60361,2.13815 1.78179,2.22723 1.18788,0.8909 2.67269,2.67269 2.92468,3.50962 0.64278,1.17731 2.13815,2.67269 0.1782,0.17819 0.30917,0.42185 0.53457,0.53453 0.22828,0.11417 2.46136,0 2.67269,0 0.33091,0 2.4467,0.0904 2.67268,0 0.73986,-0.29593 1.45487,-0.6591 2.13816,-1.06907 0.21608,-0.12965 0.29008,-0.47342 0.53453,-0.53454 0.51859,-0.12965 1.08506,0.12965 1.60362,0 0.24447,-0.0611 0.30916,-0.42185 0.53453,-0.53454 0.50398,-0.25199 1.08048,-0.32528 1.60364,-0.53454 0.6957,0.29748 1.16602,-0.85029 1.60362,-1.06907 0.15935,-0.0797 0.36168,0.0432 0.53453,0 0.54663,-0.13666 1.04783,-0.44191 1.60362,-0.53454 0.52726,-0.0879 1.06907,0 1.60361,0 0.53454,0 1.06908,0 1.60361,0 2.49452,0 4.98904,0 7.48356,0 0.71271,0 1.42544,0 2.13815,0 0.35637,0 0.72337,0.0864 1.06907,0 0.54663,-0.13666 1.05699,-0.39788 1.60362,-0.53454 0.6708,-0.16769 1.46738,0.1677 2.13817,0 0.38653,-0.0966 0.6911,-0.40854 1.06908,-0.53453 0.35354,-0.11785 2.68211,0 3.20723,0 0.38213,0 2.93362,-0.0912 3.20722,0 0.23905,0.0797 0.35637,0.35636 0.53454,0.53453 0.42003,0.42003 2.33222,2.50246 2.67271,2.67269 0.15936,0.0797 0.35635,0 0.53454,0 0.4086,0 3.59138,-0.0752 3.74177,0 1.21988,0.60995 1.47259,1.20359 2.67268,1.60362 0.16905,0.0564 0.36553,-0.0563 0.53454,0 0.75597,0.25198 1.38221,0.81711 2.13818,1.06907 0.16902,0.0564 0.3655,-0.0563 0.53454,0 3.87188,1.29064 -0.84278,-0.15409 1.60361,1.0691 0.42762,0.21381 1.17599,-0.21383 1.60361,0 0.22538,0.11269 0.29549,0.45485 0.53454,0.53454 0.33809,0.11269 0.71271,0 1.06908,0 0.17817,0 0.37518,-0.0797 0.53453,0 0.2254,0.11269 0.30917,0.42182 0.53454,0.53454 0.15939,0.0797 0.35637,0 0.53454,0 0.35637,0 0.71964,-0.0699 1.06908,0 0.55252,0.11049 1.05111,0.42402 1.60363,0.53453 0.34944,0.0699 0.75034,-0.15938 1.06908,0 0.45074,0.22538 0.71271,0.71271 1.06908,1.06908"
       id="path1005"
       inkscape:connector-curvature="0" />
    <text
       xml:space="preserve"
       style="font-style:normal;font-weight:normal;font-size:11.28888893px;line-height:1.25;font-family:sans-serif;letter-spacing:0px;word-spacing:0px;fill:#000000;fill-opacity:1;stroke:none;stroke-width:0.26458332"
       x="399.55716"
       y="287.24438"
       id="text1009"><tspan
         sodipodi:role="line"
         id="tspan1007"
         x="399.55716"
         y="287.24438"
         style="stroke-width:0.26458332">node</tspan></text>
    <text
       xml:space="preserve"
       style="font-style:normal;font-weight:normal;font-size:11.28888893px;line-height:1.25;font-family:sans-serif;letter-spacing:0px;word-spacing:0px;fill:#000000;fill-opacity:1;stroke:none;stroke-width:0.26458332"
       x="337.5506"
       y="247.15393"
       id="text1013"><tspan
         sodipodi:role="line"
         id="tspan1011"
         x="337.5506"
         y="247.15393"
         style="stroke-width:0.26458332">d</tspan></text>
    <ellipse
       style="fill:#000000;fill-opacity:1;stroke:#000000;stroke-width:0.26499999;stroke-miterlimit:4;stroke-dasharray:none;stroke-dashoffset:0;stroke-opacity:1;paint-order:stroke markers fill"
       id="path988-9-2"
       cx="448.20016"
       cy="234.85963"
       rx="6.6817379"
       ry="6.4144688" />
    <ellipse
       style="fill:#000000;fill-opacity:1;stroke:#000000;stroke-width:0.26499999;stroke-miterlimit:4;stroke-dasharray:none;stroke-dashoffset:0;stroke-opacity:1;paint-order:stroke markers fill"
       id="path988-9-0"
       cx="465.30545"
       cy="294.728"
       rx="6.6817379"
       ry="6.4144688" />
    <ellipse
       style="fill:#000000;fill-opacity:1;stroke:#000000;stroke-width:0.26499999;stroke-miterlimit:4;stroke-dasharray:none;stroke-dashoffset:0;stroke-opacity:1;paint-order:stroke markers fill"
       id="path988-9-23"
       cx="378.71011"
       cy="315.0405"
       rx="6.6817379"
       ry="6.4144688" />
    <ellipse
       style="fill:#000000;fill-opacity:1;stroke:#000000;stroke-width:0.26499999;stroke-miterlimit:4;stroke-dasharray:none;stroke-dashoffset:0;stroke-opacity:1;paint-order:stroke markers fill"
       id="path988-9-7"
       cx="401.16074"
       cy="230.58331"
       rx="6.6817379"
       ry="6.4144688" />
    <path
       style="fill:none;stroke:#000000;stroke-width:0.26458332px;stroke-linecap:butt;stroke-linejoin:miter;stroke-opacity:1"
       d="M 408.10974,264.25924 397.95349,231.11785"
       id="path1048"
       inkscape:connector-curvature="0" />
    <path
       style="fill:none;stroke:#000000;stroke-width:0.26458332px;stroke-linecap:butt;stroke-linejoin:miter;stroke-opacity:1"
       d="m 408.10974,264.25922 43.83219,-32.60683"
       id="path1050"
       inkscape:connector-curvature="0" />
    <path
       style="fill:none;stroke:#000000;stroke-width:0.26458332px;stroke-linecap:butt;stroke-linejoin:miter;stroke-opacity:1"
       d="m 464.77086,295.26254 -56.66112,-31.0033 -33.14142,53.98849"
       id="path1052"
       inkscape:connector-curvature="0" />
    <text
       xml:space="preserve"
       style="font-style:normal;font-weight:normal;font-size:11.28888893px;line-height:1.25;font-family:sans-serif;letter-spacing:0px;word-spacing:0px;fill:#000000;fill-opacity:1;stroke:none;stroke-width:0.26458332"
       x="373.36472"
       y="294.728"
       id="text1056"><tspan
         sodipodi:role="line"
         id="tspan1054"
         x="373.36472"
         y="294.728"
         style="stroke-width:0.26458332">d1</tspan></text>
    <text
       xml:space="preserve"
       style="font-style:normal;font-weight:normal;font-size:11.28888893px;line-height:1.25;font-family:sans-serif;letter-spacing:0px;word-spacing:0px;fill:#000000;fill-opacity:1;stroke:none;stroke-width:0.26458332"
       x="444.99292"
       y="274.95004"
       id="text1060"><tspan
         sodipodi:role="line"
         id="tspan1058"
         x="444.99292"
         y="274.95004"
         style="stroke-width:0.26458332">d2</tspan></text>
    <text
       xml:space="preserve"
       style="font-style:normal;font-weight:normal;font-size:11.28888893px;line-height:1.25;font-family:sans-serif;letter-spacing:0px;word-spacing:0px;fill:#000000;fill-opacity:1;stroke:none;stroke-width:0.26458332"
       x="420.40411"
       y="245.01584"
       id="text1064"><tspan
         sodipodi:role="line"
         id="tspan1062"
         x="420.40411"
         y="245.01584"
         style="stroke-width:0.26458332">d3</tspan></text>
    <text
       xml:space="preserve"
       style="font-style:normal;font-weight:normal;font-size:11.28888893px;line-height:1.25;font-family:sans-serif;letter-spacing:0px;word-spacing:0px;fill:#000000;fill-opacity:1;stroke:none;stroke-width:0.26458332"
       x="384.05545"
       y="249.29214"
       id="text1068"><tspan
         sodipodi:role="line"
         id="tspan1066"
         x="384.05545"
         y="249.29214"
         style="stroke-width:0.26458332">d4</tspan></text>
    <text
       xml:space="preserve"
       style="font-style:normal;font-weight:normal;font-size:11.28888893px;line-height:1.25;font-family:sans-serif;letter-spacing:0px;word-spacing:0px;fill:#000000;fill-opacity:1;stroke:none;stroke-width:0.26458332"
       x="372.83017"
       y="334.28387"
       id="text1072"><tspan
         sodipodi:role="line"
         id="tspan1070"
         x="372.83017"
         y="334.28387"
         style="stroke-width:0.26458332">(d+d1)</tspan></text>
    <text
       xml:space="preserve"
       style="font-style:normal;font-weight:normal;font-size:11.28888893px;line-height:1.25;font-family:sans-serif;letter-spacing:0px;word-spacing:0px;fill:#000000;fill-opacity:1;stroke:none;stroke-width:0.26458332"
       x="457.82181"
       y="316.10956"
       id="text1076"><tspan
         sodipodi:role="line"
         id="tspan1074"
         x="457.82181"
         y="316.10956"
         style="stroke-width:0.26458332">(d+d2)</tspan></text>
    <text
       xml:space="preserve"
       style="font-style:normal;font-weight:normal;font-size:11.28888893px;line-height:1.25;font-family:sans-serif;letter-spacing:0px;word-spacing:0px;fill:#000000;fill-opacity:1;stroke:none;stroke-width:0.26458332"
       x="227.97008"
       y="262.12112"
       id="text1080"><tspan
         sodipodi:role="line"
         id="tspan1078"
         x="227.97008"
         y="262.12112"
         style="stroke-width:0.26458332">node0</tspan></text>
    <text
       xml:space="preserve"
       style="font-style:normal;font-weight:normal;font-size:11.28888893px;line-height:1.25;font-family:sans-serif;letter-spacing:0px;word-spacing:0px;fill:#000000;fill-opacity:1;stroke:none;stroke-width:0.26458332"
       x="465.30539"
       y="233.25597"
       id="text1084"><tspan
         sodipodi:role="line"
         id="tspan1082"
         x="465.30539"
         y="233.25597"
         style="stroke-width:0.26458332">(d+d3)</tspan></text>
    <text
       xml:space="preserve"
       style="font-style:normal;font-weight:normal;font-size:11.28888893px;line-height:1.25;font-family:sans-serif;letter-spacing:0px;word-spacing:0px;fill:#000000;fill-opacity:1;stroke:none;stroke-width:0.26458332"
       x="391.00449"
       y="211.33986"
       id="text1088"><tspan
         sodipodi:role="line"
         id="tspan1086"
         x="391.00449"
         y="211.33986"
         style="stroke-width:0.26458332">(d+d4)</tspan></text>
    <ellipse
       style="fill:#000000;fill-opacity:1;stroke:#000000;stroke-width:0.26499999;stroke-miterlimit:4;stroke-dasharray:none;stroke-dashoffset:0;stroke-opacity:1;paint-order:stroke markers fill"
       id="path988-5"
       cx="271.26773"
       cy="339.62927"
       rx="6.6817379"
       ry="6.4144688" />
    <path
       style="fill:none;stroke:#000000;stroke-width:0.26458332px;stroke-linecap:butt;stroke-linejoin:miter;stroke-opacity:1"
       d="m 255.76607,278.15726 c -2.31632,0.1782 -4.65283,0.18129 -6.94899,0.53456 -0.1761,0.0271 0,0.35635 0,0.53454 0,0.89091 0,1.78179 0,2.67269 0,1.60361 0,3.20723 0,4.81087 0,0.61872 -0.1193,2.19546 0,2.67268 0.36558,1.46225 0.75163,0.86019 1.60362,2.13816 0.0988,0.14824 -0.0797,0.37517 0,0.53453 0.81507,1.6301 0.42378,-0.97763 1.06907,1.60362 0.0864,0.34573 -0.11268,0.73101 0,1.06907 0.0797,0.23905 0.39479,0.32488 0.53454,0.53454 1.66301,2.49452 -0.77211,-0.17817 1.60364,1.60361 0.40317,0.30239 0.64974,0.78955 1.06907,1.0691 0.14825,0.0988 0.37516,-0.0797 0.53454,0 0.14192,0.071 1.53265,1.4617 1.60361,1.60362 0.15936,0.31874 -0.11268,0.73099 0,1.06907 0.126,0.37799 0.43792,0.68255 0.53454,1.06908 0.0864,0.34573 0,0.71271 0,1.06907 0,0.89091 0,1.78181 0,2.67269 0,0.1782 -0.0564,0.36552 0,0.53454 0.71271,2.13818 0.17817,0.1782 1.60362,1.60364 0.56345,0.56343 0.57128,1.5159 1.06907,2.13815 0.62966,0.78706 1.42544,1.42544 2.13815,2.13815 0.1782,0.17817 0.45487,0.29549 0.53454,0.53454 0.0958,0.28736 0,1.68558 0,2.13815 0,1.42544 0,2.85089 0,4.27633 0,0.17552 -0.0531,1.52397 0,1.60361 0.35637,0.35634 0.71273,0.71271 1.0691,1.06908 0,0.17817 -0.0797,0.37515 0,0.53453 0.11269,0.22538 0.45485,0.29549 0.53454,0.53454 0.21815,0.65445 -0.16716,1.46958 0,2.13815 0.13666,0.54663 0.39788,1.05699 0.53454,1.60362 0.12308,0.49236 -0.1601,1.12336 0,1.60361 0.12599,0.37798 0.40854,0.69112 0.53453,1.0691 0.0563,0.16902 -0.0797,0.37515 0,0.53454 0.11057,0.22116 1.37705,1.45256 1.60362,1.60361 0.33149,0.22101 0.78734,0.25281 1.06907,0.53454 0.126,0.12599 -0.0797,0.37515 0,0.53454 0.32073,0.64145 1.28289,0.96215 1.60362,1.60361 0.0797,0.15936 -0.0797,0.37518 0,0.53454 0.11268,0.22537 0.42185,0.30916 0.53453,0.53454 0.0852,0.17033 0,2.19495 0,2.67268"
       id="path1105"
       inkscape:connector-curvature="0" />
    <path
       style="fill:none;stroke:#000000;stroke-width:0.26458332px;stroke-linecap:butt;stroke-linejoin:miter;stroke-opacity:1"
       d="M 270.19864,337.49108 374.96832,318.24769"
       id="path1107"
       inkscape:connector-curvature="0" />
    <text
       xml:space="preserve"
       style="font-style:normal;font-weight:normal;font-size:11.28888893px;line-height:1.25;font-family:sans-serif;letter-spacing:0px;word-spacing:0px;fill:#000000;fill-opacity:1;stroke:none;stroke-width:0.26458332"
       x="306.01279"
       y="324.12756"
       id="text1111"><tspan
         sodipodi:role="line"
         id="tspan1109"
         x="306.01279"
         y="324.12756"
         style="stroke-width:0.26458332">d'</tspan></text>
    <text
       xml:space="preserve"
       style="font-style:normal;font-weight:normal;font-size:11.28888893px;line-height:1.25;font-family:sans-serif;letter-spacing:0px;word-spacing:0px;fill:#000000;fill-opacity:1;stroke:none;stroke-width:0.26458332"
       x="241.86812"
       y="315.57501"
       id="text1115"><tspan
         sodipodi:role="line"
         id="tspan1113"
         x="241.86812"
         y="315.57501"
         style="stroke-width:0.26458332">a</tspan></text>
    <text
       xml:space="preserve"
       style="font-style:normal;font-weight:normal;font-size:11.28888893px;line-height:1.25;font-family:sans-serif;letter-spacing:0px;word-spacing:0px;fill:#000000;fill-opacity:1;stroke:none;stroke-width:0.26458332"
       x="363.74301"
       y="354.59628"
       id="text1119"><tspan
         sodipodi:role="line"
         id="tspan1117"
         x="363.74301"
         y="354.59628"
         style="stroke-width:0.26458332">(a+d')</tspan></text>
    <rect
       style="fill:none;fill-opacity:1;stroke:#000000;stroke-width:1;stroke-miterlimit:4;stroke-dasharray:none;stroke-dashoffset:0;stroke-opacity:1;paint-order:stroke markers fill"
       id="rect926"
       width="319.65436"
       height="356.00302"
       x="-235.21443"
       y="-284.29318"
       ry="3.3408673" />
    <rect
       style="fill:none;fill-opacity:1;stroke:#000000;stroke-width:1;stroke-miterlimit:4;stroke-dasharray:none;stroke-dashoffset:0;stroke-opacity:1;paint-order:stroke markers fill"
       id="rect926-3"
       width="319.65436"
       height="356.00302"
       x="84.439926"
       y="-284.29318"
       ry="3.3408673" />
    <rect
       style="fill:none;fill-opacity:1;stroke:#000000;stroke-width:1.60676408;stroke-miterlimit:4;stroke-dasharray:none;stroke-dashoffset:0;stroke-opacity:1;paint-order:stroke markers fill"
       id="rect926-6"
       width="777.07074"
       height="378.07501"
       x="-235.13989"
       y="71.784378"
       ry="3.5479991" />
    <text
       xml:space="preserve"
       style="font-style:normal;font-weight:normal;font-size:11.28888893px;line-height:1.25;font-family:sans-serif;letter-spacing:0px;word-spacing:0px;fill:#000000;fill-opacity:1;stroke:none;stroke-width:0.26458332"
       x="247.28004"
       y="126.73206"
       id="text951"><tspan
         sodipodi:role="line"
         id="tspan949"
         x="247.28004"
         y="126.73206"
         style="stroke-width:0.26458332">There may be multiple paths from the start</tspan><tspan
         sodipodi:role="line"
         x="247.28004"
         y="140.84319"
         style="stroke-width:0.26458332"
         id="tspan953">node to a particular node.  But Dijkstra's will</tspan><tspan
         sodipodi:role="line"
         x="247.28004"
         y="154.9543"
         style="stroke-width:0.26458332"
         id="tspan955">pop off the shortest one first</tspan></text>
  </g>
</svg>
