<?xml version="1.0" encoding="UTF-8" standalone="no"?>
<!-- Created with Inkscape (http://www.inkscape.org/) -->

<svg
   width="136.80545mm"
   height="173.98154mm"
   viewBox="0 0 136.80545 173.98154"
   version="1.1"
   id="svg5"
   inkscape:version="1.1.2 (0a00cf5339, 2022-02-04)"
   sodipodi:docname="2Opt.svg"
   xmlns:inkscape="http://www.inkscape.org/namespaces/inkscape"
   xmlns:sodipodi="http://sodipodi.sourceforge.net/DTD/sodipodi-0.dtd"
   xmlns="http://www.w3.org/2000/svg"
   xmlns:svg="http://www.w3.org/2000/svg">
  <sodipodi:namedview
     id="namedview7"
     pagecolor="#ffffff"
     bordercolor="#666666"
     borderopacity="1.0"
     inkscape:pageshadow="2"
     inkscape:pageopacity="0.0"
     inkscape:pagecheckerboard="0"
     inkscape:document-units="mm"
     showgrid="false"
     fit-margin-top="0"
     fit-margin-left="0"
     fit-margin-right="0"
     fit-margin-bottom="0"
     inkscape:zoom="1.8116734"
     inkscape:cx="225.75813"
     inkscape:cy="282.05967"
     inkscape:window-width="1533"
     inkscape:window-height="947"
     inkscape:window-x="1948"
     inkscape:window-y="82"
     inkscape:window-maximized="0"
     inkscape:current-layer="layer1" />
  <defs
     id="defs2">
    <marker
       style="overflow:visible"
       id="Arrow1Lend"
       refX="0"
       refY="0"
       orient="auto"
       inkscape:stockid="Arrow1Lend"
       inkscape:isstock="true">
      <path
         transform="matrix(-0.8,0,0,-0.8,-10,0)"
         style="fill:context-stroke;fill-rule:evenodd;stroke:context-stroke;stroke-width:1pt"
         d="M 0,0 5,-5 -12.5,0 5,5 Z"
         id="path334947" />
    </marker>
    <marker
       style="overflow:visible"
       id="Arrow1Lend-6"
       refX="0"
       refY="0"
       orient="auto"
       inkscape:stockid="Arrow1Lend"
       inkscape:isstock="true">
      <path
         transform="matrix(-0.8,0,0,-0.8,-10,0)"
         style="fill:context-stroke;fill-rule:evenodd;stroke:context-stroke;stroke-width:1pt"
         d="M 0,0 5,-5 -12.5,0 5,5 Z"
         id="path334947-2" />
    </marker>
  </defs>
  <g
     inkscape:label="Layer 1"
     inkscape:groupmode="layer"
     id="layer1"
     transform="translate(-9.8084869,-52.508656)">
    <text
       xml:space="preserve"
       style="font-size:4.23333px;line-height:1.25;font-family:sans-serif;stroke-width:0.264583"
       x="33.202641"
       y="64.307213"
       id="text11468"><tspan
         sodipodi:role="line"
         id="tspan11466"
         style="stroke-width:0.264583"
         x="33.202641"
         y="64.307213">0</tspan></text>
    <text
       xml:space="preserve"
       style="font-size:4.23333px;line-height:1.25;font-family:sans-serif;stroke-width:0.264583"
       x="52.377518"
       y="69.1008"
       id="text14292"><tspan
         sodipodi:role="line"
         id="tspan14290"
         style="stroke-width:0.264583"
         x="52.377518"
         y="69.1008">1</tspan></text>
    <text
       xml:space="preserve"
       style="font-size:4.23333px;line-height:1.25;font-family:sans-serif;stroke-width:0.264583"
       x="58.978416"
       y="76.028198"
       id="text15044"><tspan
         sodipodi:role="line"
         id="tspan15042"
         style="stroke-width:0.264583"
         x="58.978416"
         y="76.028198">2</tspan></text>
    <text
       xml:space="preserve"
       style="font-size:4.23333px;line-height:1.25;font-family:sans-serif;stroke-width:0.264583"
       x="56.51828"
       y="92.408875"
       id="text15972"><tspan
         sodipodi:role="line"
         id="tspan15970"
         style="stroke-width:0.264583"
         x="56.51828"
         y="92.408875">3</tspan></text>
    <text
       xml:space="preserve"
       style="font-size:4.23333px;line-height:1.25;font-family:sans-serif;stroke-width:0.264583"
       x="30.610821"
       y="85.070274"
       id="text17340"><tspan
         sodipodi:role="line"
         id="tspan17338"
         style="stroke-width:0.264583"
         x="30.610821"
         y="85.070274">4</tspan></text>
    <text
       xml:space="preserve"
       style="font-size:4.23333px;line-height:1.25;font-family:sans-serif;stroke-width:0.264583"
       x="82.802933"
       y="81.591904"
       id="text1782"><tspan
         sodipodi:role="line"
         id="tspan1780"
         style="stroke-width:0.264583"
         x="82.802933"
         y="81.591904">5</tspan></text>
    <text
       xml:space="preserve"
       style="font-size:4.23333px;line-height:1.25;font-family:sans-serif;stroke-width:0.264583"
       x="81.196632"
       y="59.81982"
       id="text2302"><tspan
         sodipodi:role="line"
         id="tspan2300"
         style="stroke-width:0.264583"
         x="81.196632"
         y="59.81982">6</tspan></text>
    <text
       xml:space="preserve"
       style="font-size:4.23333px;line-height:1.25;font-family:sans-serif;stroke-width:0.264583"
       x="55.019272"
       y="104.57539"
       id="text2211"><tspan
         sodipodi:role="line"
         id="tspan2209"
         style="stroke-width:0.264583"
         x="55.019272"
         y="104.57539">7</tspan></text>
    <text
       xml:space="preserve"
       style="font-size:2.82222px;line-height:1.25;font-family:sans-serif;stroke-width:0.264583"
       x="51.740273"
       y="56.318634"
       id="text18900"><tspan
         sodipodi:role="line"
         style="font-size:2.82222px;stroke-width:0.264583"
         x="51.740273"
         y="56.318634"
         id="tspan23710" /></text>
    <path
       style="fill:none;stroke:#000000;stroke-width:0.264583px;stroke-linecap:butt;stroke-linejoin:miter;stroke-opacity:1"
       d="m 37.156532,68.078158 c 0.209327,0.866294 0.209327,0.866294 0,0"
       id="path19807" />
    <path
       style="fill:none;stroke:#000000;stroke-width:0.264583px;stroke-linecap:butt;stroke-linejoin:miter;stroke-opacity:1"
       d="m 37.156532,68.078158 c 2.557238,0.612005 2.557238,0.612005 0,0"
       id="path19833" />
    <ellipse
       style="fill:#1a1a1a;fill-opacity:1;stroke:none;stroke-width:0.499999"
       id="path4318"
       cx="37.140076"
       cy="68.222496"
       rx="1.5364708"
       ry="1.5544565" />
    <ellipse
       style="fill:#000000;fill-opacity:1;stroke:none;stroke-width:0.499999"
       id="path4318-3"
       cx="37.104301"
       cy="82.802299"
       rx="1.5364708"
       ry="1.5544565" />
    <ellipse
       style="fill:#000000;fill-opacity:1;stroke:none;stroke-width:0.499999"
       id="path4318-6"
       cx="59.410278"
       cy="78.258484"
       rx="1.5364708"
       ry="1.5544565" />
    <ellipse
       style="fill:#000000;fill-opacity:1;stroke:none;stroke-width:0.499999"
       id="path4318-6-3"
       cx="82.963295"
       cy="74.867073"
       rx="1.5364708"
       ry="1.5544565" />
    <ellipse
       style="fill:#000000;fill-opacity:1;stroke:none;stroke-width:0.499999"
       id="path4318-6-6"
       cx="88.805038"
       cy="61.285007"
       rx="1.5364708"
       ry="1.5544565" />
    <ellipse
       style="fill:#000000;fill-opacity:1;stroke:none;stroke-width:0.499999"
       id="path4318-7"
       cx="56.990875"
       cy="69.917725"
       rx="1.5364708"
       ry="1.5544565" />
    <ellipse
       style="fill:#000000;fill-opacity:1;stroke:none;stroke-width:0.499999"
       id="path4318-5"
       cx="54.659935"
       cy="87.139572"
       rx="1.5364708"
       ry="1.5544565" />
    <ellipse
       style="fill:#000000;fill-opacity:1;stroke:none;stroke-width:0.499999"
       id="path4318-6-6-3"
       cx="51.563919"
       cy="102.72537"
       rx="1.5364708"
       ry="1.5544565" />
    <text
       xml:space="preserve"
       style="font-size:2.82223px;line-height:1.25;font-family:sans-serif;stroke-width:0.264583"
       x="20.829767"
       y="54.652889"
       id="text3147"><tspan
         sodipodi:role="line"
         id="tspan3145"
         style="stroke-width:0.264583"
         x="20.829767"
         y="54.652889">[0, 1, 4, 7, 3, 6, 5, 2]</tspan></text>
    <path
       style="fill:none;stroke:#000000;stroke-width:0.264583px;stroke-linecap:butt;stroke-linejoin:miter;stroke-opacity:1"
       d="M 37.156532,68.078158 56.953908,70.32504"
       id="path8421" />
    <path
       style="fill:none;stroke:#000000;stroke-width:0.264583px;stroke-linecap:butt;stroke-linejoin:miter;stroke-opacity:1"
       d="M 36.877248,82.812315 56.953908,70.32504"
       id="path8536" />
    <path
       style="fill:none;stroke:#000000;stroke-width:0.264583px;stroke-linecap:butt;stroke-linejoin:miter;stroke-opacity:1"
       d="M 51.913646,103.8553 36.877248,82.812315"
       id="path8538" />
    <path
       style="fill:none;stroke:#000000;stroke-width:0.264583px;stroke-linecap:butt;stroke-linejoin:miter;stroke-opacity:1"
       d="M 54.720727,87.02545 51.913646,103.8553"
       id="path8540" />
    <path
       style="fill:none;stroke:#000000;stroke-width:0.264583px;stroke-linecap:butt;stroke-linejoin:miter;stroke-opacity:1"
       d="M 89.016058,61.230766 54.720727,87.02545"
       id="path8542" />
    <path
       style="fill:none;stroke:#000000;stroke-width:0.264583px;stroke-linecap:butt;stroke-linejoin:miter;stroke-opacity:1"
       d="M 83.711826,74.976034 89.016058,61.230766"
       id="path8544" />
    <path
       style="fill:none;stroke:#000000;stroke-width:0.264583px;stroke-linecap:butt;stroke-linejoin:miter;stroke-opacity:1"
       d="M 59.376303,77.850891 83.711826,74.976034"
       id="path8546" />
    <path
       style="fill:none;stroke:#000000;stroke-width:0.264583px;stroke-linecap:butt;stroke-linejoin:miter;stroke-opacity:1"
       d="m 37.156532,68.078158 22.219771,9.772733"
       id="path8548" />
    <text
       xml:space="preserve"
       style="font-size:2.82223px;line-height:1.25;font-family:sans-serif;stroke-width:0.264583"
       x="96.240028"
       y="58.354271"
       id="text12122"><tspan
         sodipodi:role="line"
         id="tspan12120"
         style="stroke-width:0.264583"
         x="96.240028"
         y="58.354271">Prop: We can always do better</tspan><tspan
         sodipodi:role="line"
         style="stroke-width:0.264583"
         x="96.240028"
         y="61.882057"
         id="tspan12124">if we remove crossings</tspan><tspan
         sodipodi:role="line"
         style="stroke-width:0.264583"
         x="96.240028"
         y="65.409843"
         id="tspan12126">(i.e. the length goes down every</tspan><tspan
         sodipodi:role="line"
         style="stroke-width:0.264583"
         x="96.240028"
         y="68.937637"
         id="tspan12128">time we remove a crossing)</tspan></text>
    <ellipse
       style="fill:#000000;fill-opacity:1;stroke:none;stroke-width:0.499999"
       id="path4318-6-6-3-3"
       cx="60.945877"
       cy="130.90535"
       rx="1.5364708"
       ry="1.5544565" />
    <ellipse
       style="fill:#000000;fill-opacity:1;stroke:none;stroke-width:0.499999"
       id="path4318-6-6-3-6"
       cx="101.32384"
       cy="128.32364"
       rx="1.5364708"
       ry="1.5544565" />
    <ellipse
       style="fill:#000000;fill-opacity:1;stroke:none;stroke-width:0.499999"
       id="path4318-6-6-3-7"
       cx="65.696228"
       cy="151.45578"
       rx="1.5364708"
       ry="1.5544565" />
    <ellipse
       style="fill:#000000;fill-opacity:1;stroke:none;stroke-width:0.499999"
       id="path4318-6-6-3-5"
       cx="106.07418"
       cy="145.77602"
       rx="1.5364708"
       ry="1.5544565" />
    <text
       xml:space="preserve"
       style="font-size:2.82223px;line-height:1.25;font-family:sans-serif;stroke-width:0.264583"
       x="57.090179"
       y="127.72565"
       id="text14312"><tspan
         sodipodi:role="line"
         id="tspan14310"
         style="stroke-width:0.264583"
         x="57.090179"
         y="127.72565">i</tspan></text>
    <text
       xml:space="preserve"
       style="font-size:2.82223px;line-height:1.25;font-family:sans-serif;stroke-width:0.264583"
       x="102.74324"
       y="152.06427"
       id="text19288"><tspan
         sodipodi:role="line"
         id="tspan19286"
         style="stroke-width:0.264583"
         x="102.74324"
         y="152.06427">i+1</tspan></text>
    <text
       xml:space="preserve"
       style="font-size:2.82223px;line-height:1.25;font-family:sans-serif;stroke-width:0.264583"
       x="103.85933"
       y="125.73707"
       id="text20732"><tspan
         sodipodi:role="line"
         id="tspan20730"
         style="stroke-width:0.264583"
         x="103.85933"
         y="125.73707">j</tspan></text>
    <text
       xml:space="preserve"
       style="font-size:2.82223px;line-height:1.25;font-family:sans-serif;stroke-width:0.264583"
       x="63.199554"
       y="156.16399"
       id="text23838"><tspan
         sodipodi:role="line"
         id="tspan23836"
         style="stroke-width:0.264583"
         x="63.199554"
         y="156.16399">j+1</tspan></text>
    <path
       style="fill:none;stroke:#0000ff;stroke-width:0.264583px;stroke-linecap:butt;stroke-linejoin:miter;stroke-opacity:1"
       d="m 65.76707,151.31741 35.8737,-23.18681"
       id="path24615" />
    <path
       style="fill:none;stroke:#000000;stroke-width:0.264583px;stroke-linecap:butt;stroke-linejoin:miter;stroke-opacity:1"
       d="m 65.76707,151.31741 c -0.866309,0.69426 -1.664385,0.62081 -2.602333,0.88867 -0.358706,0.10244 -0.696127,0.27513 -1.058778,0.36258 -0.651332,0.15707 -1.446638,0.14423 -2.072857,0.3241 -0.612761,0.176 -1.16804,0.63158 -1.773639,0.83345 -0.400196,0.1334 -0.859044,0.0165 -1.239224,0.20654 -0.153942,0.077 -0.25327,0.24588 -0.413073,0.3098 -0.19441,0.0778 -0.424524,0.0272 -0.619609,0.10327 -0.277442,0.10815 -0.506449,0.31634 -0.776832,0.44109 -0.565862,0.26107 -1.145445,0.49455 -1.735193,0.69593 -0.213212,0.0728 -0.448279,0.0585 -0.665422,0.11854 -1.115547,0.30863 -2.203133,0.71753 -3.312835,1.03684 -1.481259,0.42622 -2.932528,0.98653 -4.409278,1.42236 -2.607641,0.76959 -5.32452,0.79624 -8.018053,0.79624 -0.95614,0 -1.994123,0.11289 -2.940402,0 -1.28724,-0.15357 -2.439062,-0.81065 -3.576148,-1.35093 -0.272444,-0.12945 -0.581676,-0.17455 -0.847578,-0.31695 -0.969294,-0.51911 -2.287533,-2.30125 -3.050705,-3.17602 -0.546436,-0.62634 -1.246476,-1.12899 -1.772304,-1.77229 -0.667756,-0.81694 -2.212854,-2.70158 -2.334229,-3.79396 -0.04687,-0.4218 0,-0.8488 0,-1.27321 0,-0.41657 -0.205892,-1.45202 0.103268,-1.77775 1.887671,-1.98881 7.772426,-2.50779 10.317515,-1.5329 1.588898,0.60862 2.563288,1.67561 3.921402,2.47687 0.381101,0.22484 0.818462,0.33981 1.2099,0.54613 0.888931,0.46854 1.727753,1.1631 2.65911,1.54969 0.590831,0.24524 0.845317,0.22058 1.442305,0.32949 2.074201,0.37841 4.07666,0.50287 6.18486,0.50287 0.341699,0 1.49007,0.15653 1.84227,0 0.17794,-0.0791 0.262361,-0.28978 0.413073,-0.41308 0.918305,-0.7513 1.706028,-1.2808 1.899523,-2.55962 0.09215,-0.60902 0,-1.2319 0,-1.84785 0,-0.50762 0.08288,-1.02205 0,-1.52286 -0.226695,-1.36977 -1.618142,-3.12199 -2.778641,-3.84885 -1.99372,-1.24873 -4.289822,-1.66331 -6.448706,-2.5287 -0.69511,-0.27864 -1.343271,-0.66639 -2.039477,-0.94228 -1.197596,-0.47458 -2.377747,-0.58931 -3.534497,-1.1804 -1.156499,-0.59096 -2.258393,-1.37264 -3.45334,-1.88301 -0.161416,-0.069 -0.355948,-0.032 -0.516343,-0.10327 -0.296754,-0.13189 -0.560507,-0.32954 -0.826147,-0.51635 -0.224217,-0.15767 -0.399611,-0.38027 -0.630805,-0.52752 -0.158893,-0.10121 -0.368409,-0.10431 -0.525191,-0.20875 -0.288352,-0.1921 -0.527611,-0.45744 -0.734981,-0.735 -1.041809,-1.39448 -2.02751,-3.1223 -0.548538,-4.60148 0.196713,-0.19674 0.785526,-0.62824 1.054493,-0.73705 0.162711,-0.0658 0.353373,-0.0381 0.516342,-0.10327 0.186362,-0.0745 0.32998,-0.23526 0.516342,-0.30981 0.925237,-0.37009 3.531141,-0.3038 4.51923,-0.10326 0.71783,0.14568 1.12187,0.53948 1.744747,0.87645 0.801801,0.43377 0.624596,0.14561 1.186175,0.64571 0.188396,0.16776 0.338754,0.37681 0.535151,0.53513 0.573283,0.46216 1.258882,0.77058 1.838661,1.22456 0.218379,0.171 0.375147,0.41099 0.588373,0.58838 0.264808,0.22029 0.575405,0.38117 0.840896,0.60063 0.84021,0.69457 1.600578,1.50538 2.447861,2.19985 0.406009,0.33279 0.855253,0.57608 1.282787,0.86111 0.01037,0.007 1.033786,0.82735 1.042165,0.83321 1.089933,0.763 2.880185,1.42033 4.181665,1.56629 0.628981,0.0705 1.3315,0 1.964267,0 0.379823,0 0.975879,0.10518 1.342491,0 0.514971,-0.14774 1.093565,-0.4492 1.553009,-0.72487 0.273388,-0.16403 0.521567,-0.17909 0.823602,-0.30853 0.979205,-0.41966 1.797315,-1.42706 2.479752,-2.16493"
       id="path24730" />
    <path
       style="fill:none;stroke:#ff0000;stroke-width:0.264583;stroke-linecap:butt;stroke-linejoin:miter;stroke-miterlimit:4;stroke-dasharray:0.529166, 0.264583;stroke-dashoffset:0;stroke-opacity:1"
       d="M 60.963147,131.32844 101.64077,128.1306"
       id="path24845" />
    <path
       style="fill:none;stroke:#ff0000;stroke-width:0.264583;stroke-linecap:butt;stroke-linejoin:miter;stroke-miterlimit:4;stroke-dasharray:0.529166, 0.264583;stroke-dashoffset:0;stroke-opacity:1"
       d="m 65.76707,151.31741 40.40607,-5.35852"
       id="path25040" />
    <path
       style="fill:none;stroke:#000000;stroke-width:0.264583px;stroke-linecap:butt;stroke-linejoin:miter;stroke-opacity:1"
       d="m 101.64077,128.1306 c 5.23562,-1.98253 9.47906,2.36666 13.91358,3.29711 5.82318,-1.64368 4.29687,-10.34436 10.28361,-11.84574 5.25348,-1.7434 12.59538,-1.65484 15.41939,4.02074 3.99481,5.82652 -2.27177,10.42093 -7.87435,9.793 -5.60627,-1.11249 -9.94545,5.51433 -4.53098,8.89429 0.30696,6.0697 -8.14507,4.75733 -12.19043,5.03028 -3.53246,-0.0711 -7.05122,-0.54969 -10.48834,-1.36142"
       id="path68228" />
    <path
       style="fill:none;stroke:#0000ff;stroke-width:0.264583px;stroke-linecap:butt;stroke-linejoin:miter;stroke-opacity:1"
       d="m 60.963147,131.32844 45.209993,14.63045"
       id="path68510" />
    <path
       style="fill:none;stroke:#0000ff;stroke-width:0.264583px;stroke-linecap:butt;stroke-linejoin:miter;stroke-opacity:1"
       d="M 26.070369,198.03317 61.944072,174.84636"
       id="path24615-1" />
    <path
       style="fill:none;stroke:#ff0000;stroke-width:0.264583;stroke-linecap:butt;stroke-linejoin:miter;stroke-miterlimit:4;stroke-dasharray:0.529166, 0.264583;stroke-dashoffset:0;stroke-opacity:1"
       d="m 21.266446,178.0442 40.677626,-3.19784"
       id="path24845-2" />
    <path
       style="fill:none;stroke:#ff0000;stroke-width:0.264583;stroke-linecap:butt;stroke-linejoin:miter;stroke-miterlimit:4;stroke-dasharray:0.529166, 0.264583;stroke-dashoffset:0;stroke-opacity:1"
       d="M 26.070369,198.03317 66.47644,192.67465"
       id="path25040-7" />
    <path
       style="fill:none;stroke:#0000ff;stroke-width:0.264583px;stroke-linecap:butt;stroke-linejoin:miter;stroke-opacity:1"
       d="M 21.266446,178.0442 66.47644,192.67465"
       id="path68510-0" />
    <ellipse
       style="fill:#000000;fill-opacity:1;stroke:none;stroke-width:0.499999"
       id="path4318-6-6-3-3-3"
       cx="52.541073"
       cy="144.13785"
       rx="1.5364708"
       ry="1.5544565" />
    <text
       xml:space="preserve"
       style="font-size:2.82223px;line-height:1.25;font-family:sans-serif;stroke-width:0.264583"
       x="48.659504"
       y="144.76656"
       id="text94530"><tspan
         sodipodi:role="line"
         id="tspan94528"
         style="stroke-width:0.264583"
         x="48.659504"
         y="144.76656">0</tspan></text>
    <path
       style="fill:none;stroke:#0000ff;stroke-width:0.265;stroke-linecap:butt;stroke-linejoin:miter;stroke-miterlimit:4;stroke-dasharray:none;stroke-opacity:1;marker-end:url(#Arrow1Lend)"
       d="m 54.319076,142.41924 c 2.346767,-6.88978 -16.628645,-6.76881 -10.37636,-10.12431 5.112995,2.25914 14.593709,7.45819 17.020432,-0.96646"
       id="path137376" />
    <text
       xml:space="preserve"
       style="font-size:2.82223px;line-height:1.25;font-family:sans-serif;stroke-width:0.264583"
       x="52.717377"
       y="109.92981"
       id="text139839"><tspan
         sodipodi:role="line"
         id="tspan139837"
         style="stroke-width:0.264583"
         x="52.717377"
         y="109.92981">Before: 0, 1, 2, ..., i-1, i, i+1, i+2, ..., j-1, j, j+1, j+2, ..., -1</tspan></text>
    <path
       style="fill:none;stroke:#0000ff;stroke-width:0.264583px;stroke-linecap:butt;stroke-linejoin:miter;stroke-opacity:1;marker-end:url(#Arrow1Lend)"
       d="m 109.12771,144.93754 c 4.9602,0.41223 16.63276,3.26072 14.52401,-5.36021 -1.068,-7.41333 6.80174,-8.71492 11.98843,-10.45697 8.60602,-4.03445 -3.28553,-11.39305 -8.03687,-6.64573 -5.8011,3.66293 -7.22207,15.18771 -16.50282,11.2855 -3.03257,-0.48509 -3.6373,-4.64932 -6.75953,-4.39587"
       id="path140522" />
    <path
       style="fill:none;stroke:#0000ff;stroke-width:0.265;stroke-linecap:butt;stroke-linejoin:miter;stroke-miterlimit:4;stroke-dasharray:none;stroke-opacity:1;marker-end:url(#Arrow1Lend)"
       d="m 62.807282,150.98493 c -7.722845,1.3676 -14.986171,5.22473 -23.006019,4.70269 -4.947404,0.41029 -10.590207,-0.1713 -13.726782,-4.53714 -3.554851,-4.26727 3.717573,-5.7851 6.38376,-3.25509 4.662851,2.22863 9.715469,3.08154 14.834362,3.34412 2.746731,0.34659 8.269461,-0.44647 7.192873,-4.41554"
       id="path144201" />
    <path
       style="fill:none;stroke:#ff0000;stroke-width:0.264583px;stroke-linecap:butt;stroke-linejoin:miter;stroke-opacity:1;marker-end:url(#Arrow1Lend)"
       d="m 48.963992,141.88398 c -6.058224,-3.39875 -13.838343,-3.54048 -18.76764,-8.91584 -4.406105,-2.96726 -4.035834,-11.30088 2.519911,-10.45098 5.348625,-0.81225 10.498919,1.51092 14.343672,5.11633 3.028753,2.81607 7.024643,3.19194 10.955802,3.13184"
       id="path144514" />
    <text
       xml:space="preserve"
       style="font-size:2.82223px;line-height:1.25;font-family:sans-serif;stroke-width:0.264583"
       x="55.289413"
       y="115.08294"
       id="text147983"><tspan
         sodipodi:role="line"
         id="tspan147981"
         style="stroke-width:0.264583"
         x="55.289413"
         y="115.08294">After: 0, 1, 2, ..., i-1, i, j,j-1, ..., i+2, i+1,  j+1, j+2, .., -1</tspan></text>
    <path
       style="fill:none;stroke:#000000;stroke-width:0.264583px;stroke-linecap:butt;stroke-linejoin:miter;stroke-opacity:1;marker-end:url(#Arrow1Lend)"
       d="m 86.96047,106.14948 24.36971,-0.14701"
       id="path153534" />
    <path
       style="fill:none;stroke:#ff0000;stroke-width:0.264583px;stroke-linecap:butt;stroke-linejoin:miter;stroke-opacity:1;marker-end:url(#Arrow1Lend)"
       d="m 99.115513,123.53641 c 6.314917,-4.19869 14.459307,5.30814 19.751017,-1.18246 4.79213,-5.47939 12.38779,-7.20014 19.33126,-5.79498 7.94381,0.79169 11.5668,13.08951 4.5338,17.38118 -6.38263,1.64432 -13.50679,2.60821 -10.86426,11.32105 -3.30531,8.0271 -14.54088,3.83034 -21.16716,3.29362 l -1.29624,-0.12705 -1.29239,-0.073"
       id="path153651" />
    <path
       style="fill:none;stroke:#000000;stroke-width:0.264583px;stroke-linecap:butt;stroke-linejoin:miter;stroke-opacity:1;marker-end:url(#Arrow1Lend-6)"
       d="M 111.91754,111.71828 87.547839,111.57127"
       id="path153534-9" />
    <path
       style="fill:none;stroke:#ff0000;stroke-width:0.264583px;stroke-linecap:butt;stroke-linejoin:miter;stroke-opacity:1;marker-end:url(#Arrow1Lend)"
       d="m 61.148229,155.09613 c -6.403588,3.92791 -14.204891,3.97135 -21.428996,4.84065 -5.63127,0.13808 -13.80808,2.26069 -16.665942,-4.32199 -2.210458,-4.07185 -4.52059,-12.52727 1.91835,-13.82725 5.38644,-0.54451 11.192227,-0.6393 15.60242,3.0189 2.774454,1.8473 6.500258,3.40163 9.555437,1.19759"
       id="path164250" />
    <text
       xml:space="preserve"
       style="font-size:2.82223px;line-height:1.25;font-family:sans-serif;stroke-width:0.264583"
       x="35.988976"
       y="175.00389"
       id="text174388"><tspan
         sodipodi:role="line"
         id="tspan174386"
         style="stroke-width:0.264583"
         x="35.988976"
         y="175.00389">a</tspan></text>
    <text
       xml:space="preserve"
       style="font-size:2.82223px;line-height:1.25;font-family:sans-serif;stroke-width:0.264583"
       x="44.1436"
       y="199.2851"
       id="text176306"><tspan
         sodipodi:role="line"
         id="tspan176304"
         style="stroke-width:0.264583"
         x="44.1436"
         y="199.2851">b</tspan></text>
    <text
       xml:space="preserve"
       style="font-size:2.82223px;line-height:1.25;font-family:sans-serif;stroke-width:0.264583"
       x="31.7668"
       y="191.19264"
       id="text183430"><tspan
         sodipodi:role="line"
         id="tspan183428"
         style="stroke-width:0.264583"
         x="31.7668"
         y="191.19264">x</tspan></text>
    <text
       xml:space="preserve"
       style="font-size:2.82223px;line-height:1.25;font-family:sans-serif;stroke-width:0.264583"
       x="54.973328"
       y="186.86342"
       id="text184710"><tspan
         sodipodi:role="line"
         id="tspan184708"
         style="stroke-width:0.264583"
         x="54.973328"
         y="186.86342">y</tspan></text>
    <text
       xml:space="preserve"
       style="font-size:2.82223px;line-height:1.25;font-family:sans-serif;stroke-width:0.264583"
       x="32.666641"
       y="180.88226"
       id="text187768"><tspan
         sodipodi:role="line"
         id="tspan187766"
         style="stroke-width:0.264583"
         x="32.666641"
         y="180.88226">w</tspan></text>
    <text
       xml:space="preserve"
       style="font-size:2.82223px;line-height:1.25;font-family:sans-serif;stroke-width:0.264583"
       x="52.044502"
       y="179.72379"
       id="text189158"><tspan
         sodipodi:role="line"
         id="tspan189156"
         style="stroke-width:0.264583"
         x="52.044502"
         y="179.72379">z</tspan></text>
    <text
       xml:space="preserve"
       style="font-size:2.82223px;line-height:1.25;font-family:sans-serif;stroke-width:0.264583"
       x="77.956032"
       y="178.82233"
       id="text191486"><tspan
         sodipodi:role="line"
         id="tspan191484"
         style="stroke-width:0.264583"
         x="77.956032"
         y="178.82233">Original: w+y+x+z</tspan></text>
    <text
       xml:space="preserve"
       style="font-size:2.82223px;line-height:1.25;font-family:sans-serif;stroke-width:0.264583"
       x="78.230408"
       y="183.57242"
       id="text194118"><tspan
         sodipodi:role="line"
         id="tspan194116"
         style="stroke-width:0.264583"
         x="78.230408"
         y="183.57242">Final: a + b</tspan></text>
    <text
       xml:space="preserve"
       style="font-size:2.82223px;line-height:1.25;font-family:sans-serif;stroke-width:0.264583"
       x="74.796333"
       y="195.70102"
       id="text197050"><tspan
         sodipodi:role="line"
         id="tspan197048"
         style="stroke-width:0.264583"
         x="74.796333"
         y="195.70102">a &lt;= w + z,  b &lt;= x + y</tspan></text>
    <text
       xml:space="preserve"
       style="font-size:2.82223px;line-height:1.25;font-family:sans-serif;stroke-width:0.264583"
       x="74.976013"
       y="203.1395"
       id="text199184"><tspan
         sodipodi:role="line"
         id="tspan199182"
         style="stroke-width:0.264583"
         x="74.976013"
         y="203.1395">a + b &lt;= w + y + x + z</tspan></text>
    <text
       xml:space="preserve"
       style="font-size:2.82223px;line-height:1.25;font-family:sans-serif;stroke-width:0.264583"
       x="74.92424"
       y="207.80232"
       id="text200840"><tspan
         sodipodi:role="line"
         id="tspan200838"
         style="stroke-width:0.264583"
         x="74.92424"
         y="207.80232">Final &lt;= Original</tspan></text>
    <text
       xml:space="preserve"
       style="font-size:2.82223px;line-height:1.25;font-family:sans-serif;stroke-width:0.264583"
       x="9.8084869"
       y="218.84756"
       id="text203432"><tspan
         sodipodi:role="line"
         id="tspan203430"
         style="stroke-width:0.264583"
         x="9.8084869"
         y="218.84756">Algorithm:</tspan><tspan
         sodipodi:role="line"
         style="stroke-width:0.264583"
         x="9.8084869"
         y="222.37535"
         id="tspan203434">do while exist indices i and j where d(i, i+1) + d(j, j+1) &gt; d(i, j) + d(i+1, j+1)</tspan><tspan
         sodipodi:role="line"
         style="stroke-width:0.264583"
         x="9.8084869"
         y="225.90314"
         id="tspan218660">       flip</tspan></text>
    <text
       xml:space="preserve"
       style="font-size:2.82223px;line-height:1.25;font-family:sans-serif;stroke-width:0.264583"
       x="20.403673"
       y="170.95102"
       id="text222624"><tspan
         sodipodi:role="line"
         id="tspan222622"
         style="stroke-width:0.264583"
         x="20.403673"
         y="170.95102">Proof:</tspan></text>
  </g>
</svg>
